<svg width="700" height="546" viewBox="0 0 700 546" fill="none" xmlns="http://www.w3.org/2000/svg"><g clip-path="url(#a)"><path opacity=".2" d="M549.307 202.782C519.867 87.018 418.144 3.454 298.743.102 235.62-1.67 169.196 19.265 120.835 92.526c-86.451 130.96 5.312 221.458 69.288 264.461a400.314 400.314 0 0 1 82.742 74.368c43.213 51.28 126.345 115.001 225.352 15.159 71.761-72.366 70.699-166.623 51.09-243.732z" fill="#F2F2F2"/><path d="M700 228.558c0 30.045-24.356 77.996-54.401 77.996s-54.401-47.951-54.401-77.996a54.401 54.401 0 0 1 108.802 0z" fill="#FF6584"/><path d="M647.614 308.489c-6.836 2.354-8.473 11.676-6.121 18.513 2.351 6.838 7.331 12.509 9.837 19.291a57.824 57.824 0 0 1 2.452 10.514c1.431 8.508 2.867 17.166 1.764 25.723-1.046 8.117-4.335 15.77-8.004 23.086a216.021 216.021 0 0 1-25.773 39.779" stroke="#2F2E41" stroke-width="2"/><path d="M650.842 311.798c-3.495-2.244-6.991-2.244-10.487 0v-10.487h10.487v10.487z" fill="#FF6584"/><path d="M640.383 306.332a11.539 11.539 0 0 0 10.505-.043" stroke="#2F2E41" stroke-width="2"/><path opacity=".4" d="M668.211 219.382c6.335 0 11.47-6.162 11.47-13.764 0-7.602-5.135-13.764-11.47-13.764-6.334 0-11.47 6.162-11.47 13.764 0 7.602 5.136 13.764 11.47 13.764z" fill="#fff"/><path d="M0 220.037c0 30.045 24.356 77.997 54.4 77.997 30.045 0 54.402-47.952 54.402-77.997a54.4 54.4 0 0 0-108.802 0z" fill="#FF6584"/><path d="M52.386 299.968c6.837 2.354 8.473 11.677 6.122 18.514-2.352 6.837-7.332 12.509-9.838 19.291a57.792 57.792 0 0 0-2.452 10.514c-1.431 8.508-2.867 17.166-1.764 25.722 1.047 8.118 4.335 15.77 8.005 23.086a215.948 215.948 0 0 0 25.773 39.779" stroke="#2F2E41" stroke-width="2"/><path d="M49.157 303.277c3.496-2.243 6.992-2.243 10.487 0V292.79H49.157v10.487z" fill="#FF6584"/><path d="M59.617 297.812a11.528 11.528 0 0 1-10.506-.044" stroke="#2F2E41" stroke-width="2"/><path opacity=".4" d="M31.788 210.861c6.335 0 11.47-6.162 11.47-13.764 0-7.601-5.135-13.764-11.47-13.764-6.334 0-11.47 6.163-11.47 13.764 0 7.602 5.136 13.764 11.47 13.764z" fill="#fff"/><path d="M660.674 459.27c0 30.949-145.549 85.861-325.093 85.861-179.545 0-308.053-111.279-308.053-142.228 0-30.95 128.508 30.149 308.053 30.149 179.544 0 325.093-4.732 325.093 26.218z" fill="#E1E1E1"/><path opacity=".1" d="M660.674 459.27c0 30.949-145.549 85.861-325.093 85.861-179.545 0-308.053-111.279-308.053-142.228 0-30.95 128.508 30.149 308.053 30.149 179.544 0 325.093-4.732 325.093 26.218z" fill="#000"/><path d="M660.674 458.942c0 30.95-145.549 56.039-325.093 56.039-179.545 0-308.053-81.129-308.053-112.078 0-30.95 128.508 0 308.053 0 179.544 0 325.093 25.089 325.093 56.039z" fill="#E1E1E1"/><path d="M285.893 371.725l-6.584 42.033s-32.411 17.219-9.622 17.725c22.79.507 130.153 0 130.153 0s20.763 0-12.155-18.231l-6.583-44.06-95.209 2.533z" fill="#7F7E84"/><path opacity=".1" d="M265.102 431.027c5.175-4.605 14.206-9.404 14.206-9.404l6.584-42.033 95.209.089 6.583 41.438c7.677 4.251 12.432 7.511 15.214 10.011 4.228-.965 8.848-4.55-15.214-17.876l-6.583-44.06-95.209 2.533-6.584 42.033s-27.235 14.471-14.206 17.269z" fill="#000"/><path d="M532.382 78.755H133.599c-8.329 0-15.081 6.752-15.081 15.082v268.63c0 8.329 6.752 15.082 15.081 15.082h398.783c8.329 0 15.082-6.753 15.082-15.082V93.837c0-8.33-6.753-15.082-15.082-15.082z" fill="#7F7E84"/><path d="M533.03 94.707H132.95V318.55h400.08V94.708z" fill="#E1E1E1"/><path d="M332.99 90.15a2.532 2.532 0 1 0 0-5.064 2.532 2.532 0 0 0 0 5.064z" fill="#F2F2F2"/><path d="M547.464 336.274v26.193a15.082 15.082 0 0 1-15.082 15.081H133.599a15.062 15.062 0 0 1-10.665-4.416 15.062 15.062 0 0 1-4.416-10.665v-26.193h428.946z" fill="#7F7E84"/><path d="M444.911 458.83v5.065H172.452v-4.051l.375-1.014 6.715-18.231H439.34l5.571 18.231zm104.852-4.957c-.497 2.121-2.37 4.36-6.604 6.477-15.193 7.596-46.085-2.026-46.085-2.026s-23.803-4.051-23.803-14.686a18.928 18.928 0 0 1 2.087-1.241c6.388-3.379 27.566-11.718 65.119.353a15.658 15.658 0 0 1 7.138 4.678c1.522 1.781 2.715 4.041 2.148 6.445z" fill="#2F2E41"/><path opacity=".1" d="M549.763 453.873c-18.596 7.125-35.171 7.657-52.182-4.158-8.579-5.956-16.373-7.43-22.223-7.318 6.388-3.379 27.567-11.718 65.119.353a15.653 15.653 0 0 1 7.138 4.678c1.522 1.781 2.715 4.041 2.148 6.445z" fill="#000"/><path d="M526.447 449.715c3.636 0 6.583-.907 6.583-2.026 0-1.119-2.947-2.026-6.583-2.026s-6.584.907-6.584 2.026c0 1.119 2.948 2.026 6.584 2.026zM332.99 366.66a9.622 9.622 0 1 0 0-19.244 9.622 9.622 0 0 0 0 19.244z" fill="#F2F2F2"/><path opacity=".1" d="M444.911 458.83v5.065H172.452v-4.051l.375-1.014h272.084z" fill="#000"/><path d="M570.929 199.687c-6.837 2.354-8.473 11.677-6.122 18.514 2.352 6.837 7.332 12.509 9.838 19.291a57.782 57.782 0 0 1 2.451 10.514c1.432 8.508 2.868 17.166 1.764 25.722-1.046 8.118-4.335 15.771-8.003 23.087a215.933 215.933 0 0 1-25.774 39.778" stroke="#2F2E41" stroke-width="2"/><path d="M623.315 119.757c0 30.044-24.356 77.996-54.401 77.996-30.044 0-54.4-47.952-54.4-77.996a54.402 54.402 0 1 1 108.801 0z" fill="#EE4744"/><path d="M574.158 202.996c-3.496-2.243-6.991-2.243-10.487 0v-10.487h10.487v10.487z" fill="#EE4744"/><path d="M563.698 197.531a11.534 11.534 0 0 0 10.506-.043" stroke="#2F2E41" stroke-width="2"/><path opacity=".4" d="M591.527 110.581c6.334 0 11.47-6.163 11.47-13.764 0-7.602-5.136-13.765-11.47-13.765-6.335 0-11.47 6.163-11.47 13.764 0 7.602 5.135 13.765 11.47 13.765z" fill="#fff"/><path d="M395.622 189.126v56.725l-14.995 30.254v.003l-.476.955-39.699-2.622-15.261-1.009-35.42-2.34v-67.853l35.42.999 15.839.448 40.072 1.132 14.52-16.692z" fill="#FF5E5B"/><path opacity=".1" d="M395.623 192.472v53.379l-3.664 7.39v.003l-3.757 7.575v.003l-7.575 15.283.847-56.725.171-11.443 7.203-7.968v-.003l3.14-3.474 3.635-4.02z" fill="#000"/><path d="M397.658 174.063v19.813l-2.036 3.243-3.637 5.794-3.221 5.133-7.119 11.342-.171-.008-94.824-4.877v-19.542l.24-.257 11.32-12.255 4.098-4.435 7.412-8.023 87.938 4.072z" fill="#FF5E5B"/><path opacity=".1" d="M381.645 199.847v19.541l-94.995-4.885v-19.542l.24-.257 94.755 5.143z" fill="#000"/><path opacity=".15" d="M397.658 174.063v19.813l-16.013 25.512v-19.541l16.013-25.784z" fill="#000"/><path d="M391.997 183.179l-.008 13.313-.003 6.421-.027 50.328v.003l-3.757 7.575.563-52.773.083-8.077v-.003l.128-11.923-90.765-5.594 4.098-4.435 89.688 5.165z" fill="#2F2E41"/><path d="M347.447 183.833l-6.359 13.812-.057 7.041-.579 69.755-15.261-1.009v-76.706l8.143-12.893h14.113z" fill="#2F2E41"/><path d="M326.503 184.763a20.167 20.167 0 0 1-11.374.399 4.569 4.569 0 0 1-1.996-.925 5.175 5.175 0 0 1-1.234-2.445 19.312 19.312 0 0 1-1.089-5.853c.045-1.992.808-4.072 2.433-5.225.331-.199.64-.432.924-.694.339-.428.583-.923.716-1.453 1.112-3.317 3.267-6.819 6.725-7.35 3.19-.49 6.093 1.738 8.551 3.83l5.395 4.591a8.515 8.515 0 0 1 12.692-4.12 8.511 8.511 0 0 1 3.18 3.904 30.185 30.185 0 0 1 12.001-8.235c1.022-.381 2.223-.691 3.154-.124a3.621 3.621 0 0 1 1.256 1.684 25.927 25.927 0 0 1 2.338 10.228 1.792 1.792 0 0 1 2.08.717 4.73 4.73 0 0 1 .693 2.255c.144 1.233.215 2.474.215 3.715-.001 1.309-.122 2.723-.975 3.716-1.103 1.283-3.006 1.418-4.698 1.459.815.722.417 2.178-.483 2.79-.901.611-2.066.623-3.155.612-4.197-.041-8.662-.16-12.153-2.49-1.379-.92-2.533-2.145-3.916-3.06-3.387-2.242-7.641-2.349-11.562-2.163-3.539.167-6.348 3.108-9.718 4.237z" fill="#2F2E41"/><path d="M325.733 183.833s-35.012 4.886-39.897 26.056l7.328-1.086 5.157 9.228s5.428-20.627 21.441-25.513c16.014-4.885 21.713-5.699 21.713-5.699s11.128 2.714 21.17 35.012l5.7-7.871 10.042 2.171s-7.328-25.241-27.141-32.298h-25.513z" fill="#2F2E41"/></g><defs><clipPath id="a"><path fill="#fff" d="M0 0h700v545.131H0z"/></clipPath></defs></svg>