<svg width="779" height="562" viewBox="0 0 779 562" fill="none" xmlns="http://www.w3.org/2000/svg">
<path opacity="0.1" d="M818.084 356.137C809.824 376.001 792.542 393.943 773.991 410.935C757.683 425.875 740.239 440.312 721.658 454.246C716.509 458.114 711.278 461.933 705.964 465.704L702.273 468.308C699 470.624 695.671 472.918 692.287 475.19L691.88 475.466C688.598 477.699 685.286 479.911 681.945 482.102C671.016 489.281 659.463 496.41 646.692 502.314C642.34 504.33 637.851 506.208 633.202 507.891C630.688 508.804 628.121 509.66 625.5 510.458C621.207 511.763 616.798 512.902 612.193 513.838C611.424 513.997 610.648 514.149 609.872 514.294C605.158 515.179 600.386 515.825 595.563 516.267C577.889 517.884 559.635 516.702 541.933 513.932C533.085 512.547 524.375 510.763 515.948 508.732C514.911 508.485 513.881 508.232 512.844 508.007C484.147 500.827 457.204 491.08 428.304 484.227C418.344 481.862 408.191 479.856 397.845 478.207C392.797 477.405 387.721 476.679 382.615 476.031C370.598 474.538 358.429 473.537 346.209 473.029C329.731 472.304 312.718 472.616 297.038 475.495C294.95 475.877 292.888 476.307 290.852 476.786C288.27 477.39 285.737 478.079 283.252 478.853C276.552 481.017 270.032 483.702 263.75 486.881C262.51 487.49 261.285 488.107 260.059 488.73C256.215 490.688 252.422 492.69 248.571 494.634C241.641 498.261 234.428 501.322 227.003 503.786C222.936 505.07 218.801 506.126 214.616 506.948C203.542 509.167 191.757 510.045 179.921 510.103C174.214 510.103 168.499 509.979 162.85 509.682H162.676C160.746 509.58 158.81 509.464 156.874 509.319C148.055 508.717 139.265 507.789 130.606 506.52C100.937 502.169 72.7982 493.945 50.1639 481.398C19.4216 464.37 -0.101529 438.98 2.82839 413.611C4.93154 395.336 17.9929 378.365 30.387 361.75C53.4419 330.812 75.0392 299.171 86.4035 265.817C95.6211 238.745 98.3697 210.12 119.583 185.789C126.378 178 135.066 170.892 145.183 164.663C152.745 160.033 160.671 156.026 168.883 152.682C178.165 148.881 187.713 145.766 197.45 143.363C205.889 141.269 214.442 139.661 223.065 138.547C227.75 137.938 232.493 137.467 237.265 137.148C240.94 136.891 244.631 136.729 248.339 136.662H248.912C251.18 136.618 253.447 136.618 255.715 136.662C272.249 136.918 288.738 138.467 305.03 141.296C315.227 143 325.337 145.089 335.236 147.388C341.144 148.756 346.999 150.19 352.801 151.688C354.57 152.145 356.34 152.61 358.088 153.081C399.368 164.141 435.687 179.414 475.458 191.946C475.661 192.011 475.857 192.076 476.06 192.127C484.223 194.637 492.512 196.719 500.892 198.364C507.049 199.597 513.344 200.663 519.748 201.599C529.553 203.049 539.568 204.195 549.656 205.181L551.883 205.399C566.685 206.849 581.617 207.93 596.122 209.192C601.271 209.641 606.376 210.105 611.409 210.642C614.6 210.961 617.762 211.3 620.895 211.657C623.144 211.919 625.399 212.18 627.654 212.455C629.91 212.731 632.296 213.021 634.617 213.318C636.125 213.507 637.626 213.703 639.135 213.913C648.273 215.124 657.389 216.48 666.403 218.032C671.886 218.975 677.34 219.99 682.728 221.085C686.63 221.878 690.498 222.715 694.332 223.595C697.175 224.238 699.993 224.915 702.788 225.625C725.495 231.333 746.744 238.817 765.056 248.92C812.609 275.093 833.887 318.15 818.084 356.137Z" fill="#EE4744"/>
<path opacity="0.1" d="M180.574 65.5606C189.238 65.5606 196.261 58.5374 196.261 49.8739C196.261 41.2104 189.238 34.1873 180.574 34.1873C171.911 34.1873 164.888 41.2104 164.888 49.8739C164.888 58.5374 171.911 65.5606 180.574 65.5606Z" fill="#EE4744"/>
<path opacity="0.1" d="M501.204 31.3733C509.867 31.3733 516.891 24.3501 516.891 15.6866C516.891 7.02315 509.867 0 501.204 0C492.54 0 485.517 7.02315 485.517 15.6866C485.517 24.3501 492.54 31.3733 501.204 31.3733Z" fill="#EE4744"/>
<path opacity="0.1" d="M691.322 66.5032C699.986 66.5032 707.009 59.48 707.009 50.8165C707.009 42.153 699.986 35.1299 691.322 35.1299C682.659 35.1299 675.635 42.153 675.635 50.8165C675.635 59.48 682.659 66.5032 691.322 66.5032Z" fill="#EE4744"/>
<path opacity="0.1" d="M26.2895 114.114C40.8087 114.114 52.5789 102.344 52.5789 87.8249C52.5789 73.3056 40.8087 61.5354 26.2895 61.5354C11.7702 61.5354 0 73.3056 0 87.8249C0 102.344 11.7702 114.114 26.2895 114.114Z" fill="#EE4744"/>
<path opacity="0.1" d="M51.4911 243.93C66.0104 243.93 77.7805 232.16 77.7805 217.641C77.7805 203.121 66.0104 191.351 51.4911 191.351C36.9718 191.351 25.2016 203.121 25.2016 217.641C25.2016 232.16 36.9718 243.93 51.4911 243.93Z" fill="#EE4744"/>
<path opacity="0.1" d="M757.078 196.145C771.598 196.145 783.368 184.375 783.368 169.855C783.368 155.336 771.598 143.566 757.078 143.566C742.559 143.566 730.789 155.336 730.789 169.855C730.789 184.375 742.559 196.145 757.078 196.145Z" fill="#EE4744"/>
<path d="M256.984 173.583C257.114 175.79 256.985 178.005 256.6 180.183C255.149 186.92 249.014 191.547 243.074 195.057C237.135 198.567 230.608 201.889 227.076 207.814C222.819 214.972 224.175 224.595 229.172 231.282C234.168 237.969 242.088 241.95 250.239 243.611C265.107 246.679 281.388 242.371 292.535 232.073C303.681 221.774 309.273 205.682 306.539 190.735C300.49 191.583 295.102 186.246 293.144 180.458C291.186 174.671 291.592 168.398 290.83 162.328C290.775 161.301 290.466 160.304 289.931 159.427C289.083 158.252 287.581 157.773 286.182 157.389C279.19 155.467 267.427 151.261 260.182 152.871C253.655 154.365 256.875 168.1 256.984 173.583Z" fill="#BE6F72"/>
<path opacity="0.1" d="M256.984 173.583C257.114 175.79 256.985 178.005 256.6 180.183C255.149 186.92 249.014 191.547 243.074 195.057C237.135 198.567 230.608 201.889 227.076 207.814C222.819 214.972 224.175 224.595 229.172 231.282C234.168 237.969 242.088 241.95 250.239 243.611C265.107 246.679 281.388 242.371 292.535 232.073C303.681 221.774 309.273 205.682 306.539 190.735C300.49 191.583 295.102 186.246 293.144 180.458C291.186 174.671 291.592 168.398 290.83 162.328C290.775 161.301 290.466 160.304 289.931 159.427C289.083 158.252 287.581 157.773 286.182 157.389C279.19 155.467 267.427 151.261 260.182 152.871C253.655 154.365 256.875 168.1 256.984 173.583Z" fill="black"/>
<path d="M248.535 494.648C241.604 498.276 234.391 501.336 226.967 503.8C222.9 505.085 218.765 506.14 214.58 506.962C214.284 501.386 214.588 495.794 215.486 490.282C216.052 487.113 216.886 483.973 217.104 480.76C217.412 476.122 216.42 471.491 214.239 467.387C222.318 466.284 229.991 464.486 238.106 465.015L238.621 465.051C239.586 465.076 240.541 465.255 241.45 465.581C242.698 466.185 243.759 467.118 244.517 468.279C244.935 468.849 245.32 469.442 245.67 470.056C247.962 474.015 248.832 478.584 249.014 483.291C249.099 487.083 248.939 490.877 248.535 494.648Z" fill="#BE6F72"/>
<path d="M290.823 476.793C288.241 477.397 285.708 478.086 283.223 478.86C276.523 481.024 270.003 483.709 263.721 486.888C263.313 484.913 263.114 482.9 263.127 480.883C266.828 478.33 271.005 476.548 275.409 475.643C279.814 474.737 284.355 474.726 288.763 475.611C289.353 475.682 289.913 475.907 290.388 476.263C290.56 476.416 290.707 476.595 290.823 476.793Z" fill="#BE6F72"/>
<path d="M303.29 440.183C302.796 444.926 302.071 449.684 300.389 454.144C298.568 458.931 295.609 463.572 295.987 468.685C296.153 470.904 296.908 473.312 297.016 475.509C294.928 475.891 292.866 476.321 290.83 476.8C288.248 477.404 285.715 478.093 283.23 478.867C276.53 481.032 270.01 483.716 263.729 486.895C262.488 487.504 261.263 488.121 260.037 488.745C259.529 488.679 259.029 488.6 258.521 488.505C254.895 487.845 251.081 486.221 249.028 483.32C248.558 482.652 248.19 481.919 247.933 481.144C246.751 477.612 247.984 473.21 245.525 470.411L245.409 470.512L245.322 470.57C243.976 471.79 242.497 472.856 240.913 473.747C237.308 475.787 233.315 477.047 229.192 477.444C225.069 477.841 220.908 477.367 216.98 476.053C215.424 475.523 213.921 474.848 212.491 474.037C209.17 472.144 205.964 468.96 206.225 465.16C206.37 463.043 207.582 461.012 207.255 458.916C207.016 457.415 206.03 456.167 205.29 454.84C200.438 446.138 206.225 434.947 203.179 425.49C203.107 425.266 203.027 425.041 202.947 424.823C202.723 424.207 202.469 423.612 202.222 423.017C201.598 421.632 200.902 420.269 200.351 418.847C199.892 417.652 199.528 416.423 199.263 415.17C198.579 411.534 198.335 407.828 198.538 404.132C198.538 394.393 200.278 384.421 202.759 375.036C203.201 373.368 203.694 371.011 204.347 368.444C204.983 365.738 205.842 363.089 206.914 360.525C208.365 357.189 210.337 354.527 213.035 353.896C217.096 352.946 223.304 354.955 227.424 355.448L243.705 357.392L276.26 361.286C281.881 361.961 287.784 362.737 292.419 365.899C292.723 366.109 293.02 366.326 293.318 366.558C294.542 367.523 295.639 368.639 296.581 369.88C296.915 370.308 297.234 370.758 297.539 371.214C298.595 372.831 299.493 374.546 300.222 376.334C304.261 386.038 304.356 396.866 304.385 407.374C304.385 418.34 304.421 429.298 303.29 440.183Z" fill="#3F3D56"/>
<path opacity="0.1" d="M240.877 473.79C239.898 470.019 237.831 464.558 237.526 463.072C236.504 458.084 235.763 453.043 235.307 447.972C234.502 438.936 233.051 426.216 236.242 417.622C239.238 419.217 241.87 423.735 243.255 426.817C248.274 437.993 242.624 451.715 247.338 463.021C247.691 463.698 247.91 464.437 247.984 465.196C247.902 466.161 247.556 467.085 246.983 467.865L245.395 470.505L240.877 473.79Z" fill="black"/>
<path d="M345.324 128.771C350.661 120.068 357.972 111.511 357.515 101.336C357.348 97.7097 356.159 94.1633 355.252 90.6097C352.654 80.3249 352.483 69.577 354.752 59.2147C363.72 57.7738 372.899 59.8298 380.396 64.9585C382.767 66.5975 385.015 68.6353 386.06 71.3259C387.024 73.8062 386.865 76.5693 386.691 79.2237C386.292 85.3228 385.748 91.8281 381.991 96.6291C380.824 98.1303 379.388 99.3995 378.249 100.915C376.588 103.091 375.616 105.745 374.666 108.334L362.338 141.876C356.115 158.781 349.371 176.462 335.664 188.16C335.33 188.443 325.511 174.497 324.698 173.097C321.413 167.36 322.849 164.938 326.823 160.137C334.663 150.644 338.92 139.193 345.324 128.771Z" fill="#BE6F72"/>
<path d="M204.035 414.663C203.993 417.166 203.782 419.664 203.404 422.14C203.274 423.054 203.121 423.96 202.94 424.867C200.467 437.776 194.31 450.054 190.002 462.629C184.323 479.23 181.829 493.633 179.849 510.117C174.141 510.117 168.426 509.994 162.777 509.696H162.603C160.674 509.595 158.737 509.479 156.801 509.334C158.549 493.959 155.351 477.83 158.476 462.441C159.738 456.247 161.892 450.235 163.19 444.071C163.591 442.256 163.893 440.421 164.097 438.573C164.278 436.818 164.372 434.998 165.163 433.417C165.235 433.264 165.318 433.117 165.41 432.975C166.104 431.88 166.965 430.902 167.962 430.074C176.799 422.325 187.607 417.172 199.191 415.185C200.837 414.96 202.44 414.772 204.035 414.663Z" fill="#FBBEBE"/>
<path opacity="0.1" d="M204.035 414.663C203.993 417.166 203.782 419.664 203.404 422.14C203.274 423.054 203.121 423.96 202.94 424.867C200.467 437.776 194.31 450.054 190.002 462.629C184.323 479.23 181.829 493.633 179.849 510.117C174.141 510.117 168.426 509.994 162.777 509.696H162.603C160.674 509.595 158.737 509.479 156.801 509.334C158.549 493.959 155.351 477.83 158.476 462.441C159.738 456.247 161.892 450.235 163.19 444.071C163.591 442.256 163.893 440.421 164.097 438.573C164.278 436.818 164.372 434.998 165.163 433.417C165.235 433.264 165.318 433.117 165.41 432.975C166.104 431.88 166.965 430.902 167.962 430.074C176.799 422.325 187.607 417.172 199.191 415.185C200.837 414.96 202.44 414.772 204.035 414.663Z" fill="black"/>
<path d="M167.266 447.711C167.149 451.741 166.817 455.762 166.273 459.757C164.336 476.082 163.974 493.118 162.646 509.689C160.717 509.588 158.781 509.472 156.845 509.327C148.026 508.725 139.236 507.796 130.577 506.527C131.244 502.795 131.916 499.062 132.593 495.33C133.42 490.753 134.247 486.134 134.007 481.492C133.782 477.105 132.608 472.833 131.672 468.533C129.678 459.322 128.561 449.387 125.276 440.698C123.562 435.825 120.827 431.375 117.255 427.644C130.845 422.307 143.907 422.002 158.505 422.568C159.542 422.51 160.572 422.763 161.464 423.293C162.156 423.892 162.67 424.67 162.951 425.541C165.145 430.818 166.522 436.399 167.034 442.091C167.209 443.959 167.286 445.835 167.266 447.711Z" fill="#FBBEBE"/>
<path d="M276.739 169.841C292.36 169.841 305.023 157.178 305.023 141.557C305.023 125.936 292.36 113.273 276.739 113.273C261.118 113.273 248.455 125.936 248.455 141.557C248.455 157.178 261.118 169.841 276.739 169.841Z" fill="#BE6F72"/>
<path d="M282.621 207.661C286.247 201.475 289.423 193.752 296.4 192.033C300.338 191.054 304.436 192.388 308.272 193.701C309.383 193.964 310.393 194.549 311.173 195.383C311.74 196.283 312.044 197.323 312.05 198.386C313.265 211.171 313.224 224.045 311.927 236.823C311.006 245.866 309.454 254.866 309.178 263.953C308.794 276.551 310.868 289.148 310.187 301.73C309.672 311.267 307.583 320.637 305.509 329.956L296.806 368.973C296.65 370.181 296.166 371.322 295.406 372.273C294.673 372.946 293.794 373.442 292.839 373.724C280.242 378.177 266.852 379.939 253.532 378.895C240.212 377.852 227.258 374.028 215.508 367.668C212.368 365.942 209.235 363.948 207.19 361.003C204.289 356.826 204.021 351.3 204.963 346.296C205.906 341.292 207.944 336.57 209.315 331.661C211.432 324.046 211.933 316.097 212.412 308.207C213.05 297.821 213.688 287.371 212.578 277.022C211.817 269.893 210.229 262.873 209.032 255.802C207.27 245.145 206.247 234.378 205.972 223.58C205.79 217.133 206.088 209.975 210.548 205.326C212.723 203.063 215.624 201.7 218.576 200.598C223.529 198.77 229.063 197.697 234.067 199.365C239.071 201.033 243.103 206.283 241.921 211.425C241.377 213.811 239.832 215.9 239.455 218.322C238.955 221.528 240.652 224.755 243.081 226.923C256.15 238.73 276.101 218.859 282.621 207.661Z" fill="#E3E8F4"/>
<path d="M283.658 178.761C287.627 177.299 291.94 177.047 296.052 178.036C298.67 178.659 301.498 179.762 303.913 178.594C304.791 178.174 305.516 177.485 306.401 177.093C308.794 176.041 311.898 177.332 314.016 175.802C315.35 174.837 315.785 173.082 316.235 171.487C318.413 163.871 322.876 157.107 329.021 152.109C328.259 157.671 327.708 164.003 331.385 168.252C333.06 170.182 335.41 171.393 337.789 172.335C341.204 173.692 344.954 174.591 348.558 173.851C352.163 173.111 355.535 170.385 356.108 166.751C355.985 172.212 350.785 176.027 349.327 181.299C348.776 183.272 348.827 185.368 348.442 187.384C347.463 192.533 343.786 196.667 340.574 200.815C330.312 214.158 323.758 229.974 321.573 246.664C321.424 248.644 321.009 250.596 320.34 252.466C319.629 253.9 318.825 255.286 317.932 256.614C312.616 265.592 314.255 276.92 316.061 287.175C318.882 303.239 321.696 318.976 326.265 334.634C327.048 337.31 327.933 340.102 329.927 342.053C329.296 348.384 322.907 351.271 317.163 354.005C311.492 356.709 306.26 360.252 301.643 364.513C299.99 366.036 298.358 367.748 297.756 369.916C297.19 371.954 297.597 374.195 296.871 376.175C296.146 378.155 293.245 379.576 291.969 377.908C290.373 371.94 293.1 365.695 292.977 359.516C292.89 355.346 291.526 351.292 291.331 347.122C291.142 342.401 292.535 337.767 294.014 333.285C298.133 320.804 303.108 308.439 304.537 295.377C305.966 282.316 303.297 268.051 294.028 258.732C283.027 247.621 276.92 232.558 265.128 222.354C263.257 220.737 261.139 218.728 261.451 216.277C261.667 215.197 262.142 214.187 262.836 213.333C266.883 207.618 272.264 202.955 276.616 197.486C280.967 192.018 284.448 185.723 283.658 178.761Z" fill="#3F3D56"/>
<path d="M244.938 190.459C244.213 191.184 243.712 192.185 242.871 192.809C241.888 193.415 240.768 193.762 239.615 193.817C235.347 194.465 231.043 194.85 226.727 194.97C223.101 194.97 219.337 194.651 215.849 195.644C210.983 197.022 207.096 200.866 204.659 205.29C202.222 209.714 201.069 214.718 200.133 219.7C198.071 230.677 196.967 241.812 196.834 252.981C202.811 248.214 208.139 242.684 212.68 236.533C216.161 231.811 219.316 226.59 224.283 223.435C226.568 221.984 229.135 221.027 231.434 219.613C236.228 216.661 239.549 211.889 242.74 207.284C245.09 203.868 251.886 197.196 252.422 193.106C252.879 189.197 247.476 187.29 244.938 190.459Z" fill="#3F3D56"/>
<path d="M270.205 122.193C271.1 122.731 271.958 123.33 272.772 123.985C277.696 127.422 284.289 126.784 290.243 126.001C292.07 125.769 293.949 125.508 295.515 124.55C298.032 122.998 299.214 119.808 298.967 116.856C298.721 113.904 297.234 111.185 295.421 108.878C293.019 105.826 290.023 103.294 286.613 101.434C283.204 99.574 279.452 98.4255 275.586 98.058C273.584 97.7956 271.548 98.0118 269.646 98.6889C267.304 99.6535 265.542 101.641 263.38 102.968C257.006 106.884 247.186 105.143 243.074 111.395C240.064 116.007 242.211 122.273 240.79 127.575C239.731 131.534 236.678 135.139 237.265 139.178C237.591 141.354 238.955 143.254 240.043 145.198C242.541 149.666 243.697 154.76 243.371 159.869C246.163 161.842 250.058 158.774 250.834 155.452C251.61 152.131 250.718 148.592 251.378 145.241C252.545 139.36 257.738 135.045 260.081 129.649C261.763 125.783 264.504 119.256 270.205 122.193Z" fill="#3F3D56"/>
<path d="M201.627 186.572C201.41 187.892 201.272 189.349 202.005 190.466C203.455 192.642 206.777 191.859 209.387 192.185C213.456 192.685 216.458 196.536 217.249 200.583C218.039 204.63 217.096 208.749 216.067 212.723C213.736 221.731 210.961 230.61 207.741 239.361C199.082 238.338 189.966 235.01 185.368 227.62C181.191 220.897 181.618 212.332 178.964 204.876C177.1 199.626 173.757 195.057 170.45 190.575C175.766 191.242 179.566 185.165 179.878 179.813C180.19 174.46 178.507 169.028 179.653 163.8C179.921 162.559 200.873 166.468 202.911 167.883C208.8 171.966 202.556 180.9 201.627 186.572Z" fill="#FBBEBE"/>
<path opacity="0.1" d="M201.627 186.572C201.41 187.892 201.272 189.349 202.005 190.466C203.455 192.642 206.777 191.859 209.387 192.185C213.456 192.685 216.458 196.536 217.249 200.583C218.039 204.63 217.096 208.749 216.067 212.723C213.736 221.731 210.961 230.61 207.741 239.361C199.082 238.338 189.966 235.01 185.368 227.62C181.191 220.897 181.618 212.332 178.964 204.876C177.1 199.626 173.757 195.057 170.45 190.575C175.766 191.242 179.566 185.165 179.878 179.813C180.19 174.46 178.507 169.028 179.653 163.8C179.921 162.559 200.873 166.468 202.911 167.883C208.8 171.966 202.556 180.9 201.627 186.572Z" fill="black"/>
<path d="M196.964 177.818C212.585 177.818 225.248 165.155 225.248 149.534C225.248 133.914 212.585 121.25 196.964 121.25C181.344 121.25 168.68 133.914 168.68 149.534C168.68 165.155 181.344 177.818 196.964 177.818Z" fill="#FBBEBE"/>
<path d="M188.254 182.511C189.284 180.901 187.529 178.652 188.334 176.919C188.813 175.875 190.024 175.425 190.959 174.743C192.133 173.789 193.069 172.575 193.693 171.197C198.097 162.736 199.43 153.009 197.465 143.675C196.797 140.542 196.203 136.379 199.067 134.972C199.861 134.618 200.732 134.468 201.598 134.537C206.762 134.704 211.752 138.163 216.763 136.937C218.473 136.472 220.001 135.496 221.142 134.139C222.282 132.782 222.981 131.109 223.145 129.344C223.471 124.659 219.961 120.641 216.509 117.487C210.294 111.772 200.822 110.503 192.381 110.365L176.68 110.104C171.654 110.017 166.019 110.176 162.523 113.781C157.49 118.966 160.021 127.451 159.296 134.638C158.679 140.374 155.81 145.631 151.318 149.252C148.062 151.848 143.58 154.328 143.638 158.477C143.638 159.927 144.262 161.247 144.661 162.618C146.264 168.042 144.733 174.04 141.658 178.79C138.583 183.54 134.087 187.195 129.424 190.394C126.929 192.098 124.347 193.737 122.375 196.051C120.212 198.723 118.928 201.998 118.698 205.428C118.387 208.049 118.926 210.7 120.235 212.992C123.303 217.894 130.664 218.612 135.704 215.769C140.745 212.927 143.82 207.545 145.858 202.135C147.076 198.922 148.316 195.246 151.434 193.802C155.38 191.967 159.992 194.868 162.559 198.386C165.127 201.903 166.708 206.196 169.993 209.054C175.142 213.536 183.903 212.81 188.254 207.545C191.365 203.767 192.054 198.538 191.88 193.643C191.794 189.656 190.532 185.783 188.254 182.511Z" fill="#3F3D56"/>
<path d="M198.407 219.374C195.18 220.063 191.808 218.54 189.407 216.263C187.007 213.985 185.39 211.048 183.707 208.205C179.441 201.034 174.551 194.254 169.094 187.942C164.336 182.452 157.715 176.875 150.651 178.572C148.286 179.255 146.092 180.429 144.211 182.017C137.983 186.949 133.108 193.38 130.042 200.708C126.977 208.037 125.821 216.024 126.683 223.921C127.234 228.541 128.488 233.059 129.011 237.7C129.362 241.526 129.464 245.371 129.315 249.21C129.119 260.9 128.72 273.265 122.418 283.114C112.649 298.344 107.421 316.532 100.248 333.154C96.3754 342.14 94.0547 351.706 91.7775 361.221C90.4285 366.868 89.082 372.513 87.7379 378.155L78.9627 415.069C78.0562 418.876 77.1496 422.865 78.1069 426.672C79.5574 432.358 84.9023 436.332 90.5373 437.95C96.1723 439.567 102.141 439.291 107.994 439.342C119.191 439.451 130.476 440.843 140.984 444.731C143.987 445.84 146.982 447.167 150.18 447.428C153.378 447.69 156.562 446.855 159.557 445.695C167.73 442.533 174.736 436.992 182.264 432.518C186.966 429.684 191.918 427.288 197.059 425.36C199.64 424.395 202.411 423.481 204.188 421.371C205.529 419.783 206.131 417.709 206.574 415.678C209.025 404.248 207.379 392.406 206.574 380.744C205.769 369.082 198.799 356.761 204.565 346.593C205.725 344.541 207.11 342.568 207.705 340.291C208.488 337.317 207.828 334.119 208.488 331.117C208.974 328.897 210.142 326.903 210.939 324.778C212.332 321.036 212.52 316.96 212.506 312.964C212.473 304.191 211.55 295.443 209.75 286.856C207.466 275.978 215.022 265.223 219.352 254.946C220.904 251.269 223.101 247.795 223.747 243.857C224.327 240.304 223.58 236.685 223.022 233.124C222.188 227.605 221.848 222.023 222.006 216.444C222.144 211.44 222.674 206.341 221.477 201.475C220.28 196.609 216.864 191.888 211.955 190.887C211.404 190.725 210.825 190.688 210.258 190.777C209.691 190.866 209.151 191.079 208.677 191.402C208.11 191.957 207.71 192.661 207.524 193.432C205.928 198.32 206.24 203.586 205.348 208.662C204.456 213.739 203.412 218.3 198.407 219.374Z" fill="#F86D70"/>
<path d="M129.968 250.522C130.265 248.513 129.33 245.844 127.299 245.917C125.428 245.989 124.594 248.332 124.601 250.21C124.608 252.089 124.862 254.243 123.535 255.562C122.36 256.73 120.417 256.694 119.053 257.644C118.572 257.987 118.18 258.441 117.912 258.967C117.643 259.494 117.504 260.077 117.508 260.668C117.508 261.676 117.965 262.641 117.994 263.649C118.023 264.657 117.349 265.824 116.348 265.759C115.834 266.622 115.62 267.63 115.739 268.627C115.859 269.624 116.305 270.554 117.008 271.271C117.53 271.779 118.212 272.214 118.386 272.924C118.441 273.423 118.402 273.927 118.27 274.411C117.965 276.405 119.343 278.639 121.352 278.857C120.228 279.662 120.453 281.547 121.483 282.483C122.512 283.418 123.992 283.6 125.377 283.6C128.521 283.582 131.63 282.939 134.522 281.707C135.513 281.38 136.388 280.776 137.046 279.966C137.351 279.549 137.497 279.036 137.459 278.521C137.42 278.005 137.199 277.52 136.836 277.152C138.243 277.385 139.932 277.515 140.853 276.427C142.137 274.904 140.759 272.649 139.403 271.177C139.965 271.093 140.491 270.846 140.914 270.466C141.337 270.086 141.64 269.591 141.783 269.04C141.927 268.49 141.906 267.91 141.722 267.372C141.539 266.833 141.202 266.361 140.752 266.013C140.288 265.672 139.657 265.375 139.592 264.802C139.526 264.229 140.012 263.859 140.215 263.351C140.679 262.213 139.621 261.052 138.598 260.363C136.176 258.753 132.608 258.782 130.454 257.158C128.3 255.533 129.656 252.698 129.968 250.522Z" fill="#BE6F72"/>
<path d="M279.582 140.476C277.825 140.653 276.058 140.695 274.295 140.6C273.995 140.567 273.693 140.653 273.456 140.841C273.218 141.028 273.064 141.301 273.026 141.6L269.654 166.896C269.394 168.733 268.642 170.464 267.478 171.908C266.518 173.056 265.804 174.39 265.381 175.826C264.959 177.262 264.835 178.769 265.019 180.255V223.225C265.019 223.225 264.802 228.954 269.204 228.954C274.473 229.616 279.803 229.616 285.072 228.954C285.072 228.954 288.597 228.287 288.597 223V180.69C288.865 179.214 288.81 177.697 288.434 176.244C288.059 174.792 287.372 173.438 286.421 172.278C285.295 170.829 284.568 169.111 284.31 167.295L280.808 141.47C280.768 141.18 280.619 140.915 280.391 140.731C280.164 140.546 279.874 140.455 279.582 140.476Z" fill="#3F3D56"/>
<path opacity="0.1" d="M279.582 140.476C277.825 140.653 276.058 140.695 274.295 140.6C273.995 140.567 273.693 140.653 273.456 140.841C273.218 141.028 273.064 141.301 273.026 141.6L269.654 166.896C269.394 168.733 268.642 170.464 267.478 171.908C266.518 173.056 265.804 174.39 265.381 175.826C264.959 177.262 264.835 178.769 265.019 180.255V223.225C265.019 223.225 264.802 228.954 269.204 228.954C274.473 229.616 279.803 229.616 285.072 228.954C285.072 228.954 288.597 228.287 288.597 223V180.69C288.865 179.214 288.81 177.697 288.434 176.244C288.059 174.792 287.372 173.438 286.421 172.278C285.295 170.829 284.568 169.111 284.31 167.295L280.808 141.47C280.768 141.18 280.619 140.915 280.391 140.731C280.164 140.546 279.874 140.455 279.582 140.476Z" fill="black"/>
<path d="M279.604 181.024H274.259C269.833 181.024 266.245 184.612 266.245 189.037V209.148C266.245 213.574 269.833 217.162 274.259 217.162H279.604C284.03 217.162 287.618 213.574 287.618 209.148V189.037C287.618 184.612 284.03 181.024 279.604 181.024Z" fill="#EE4744"/>
<path d="M351.43 31.1702C349.88 32.0221 348.265 32.7496 346.6 33.3459C346.312 33.432 346.068 33.6269 345.92 33.8894C345.773 34.152 345.733 34.4616 345.81 34.7528L352.438 59.4105C352.912 61.2002 352.892 63.085 352.38 64.8642C351.933 66.2936 351.786 67.7998 351.949 69.2886C352.111 70.7774 352.579 72.2166 353.323 73.5162L369.873 113.172C369.873 113.172 371.874 118.538 375.943 116.841C381.065 115.42 385.987 113.359 390.592 110.706C390.592 110.706 393.588 108.733 391.557 103.86L375.261 64.8134C374.94 63.3474 374.305 61.9684 373.4 60.7714C372.495 59.5745 371.341 58.5881 370.018 57.8803C368.423 56.9778 367.091 55.6756 366.152 54.1019L352.975 31.6198C352.825 31.3598 352.581 31.1677 352.293 31.0838C352.005 31 351.696 31.031 351.43 31.1702Z" fill="#3F3D56"/>
<path d="M367.078 68.5894L362.145 70.6478C358.061 72.3522 356.131 77.045 357.835 81.1296L365.58 99.6891C367.284 103.774 371.977 105.703 376.062 103.999L380.995 101.94C385.079 100.236 387.009 95.543 385.304 91.4585L377.56 72.899C375.855 68.8145 371.162 66.885 367.078 68.5894Z" fill="#EE4744"/>
<path d="M147.91 183.257C140.114 186.47 137.031 196.464 138.859 204.688C140.687 212.912 146.191 219.765 151.558 226.285L166.599 244.633C170.754 249.71 175.302 255.055 181.64 256.824C190.909 259.414 200.177 253.51 208.191 248.173C232.111 232.233 257.681 218.918 284.455 208.459C287.074 207.444 289.757 206.414 291.911 204.601C296.378 200.844 297.633 193.918 295.145 188.646C292.658 183.374 286.863 179.943 281.025 179.9C275.187 179.856 269.509 182.946 265.998 187.616C264.323 189.843 263.098 192.388 261.48 194.651C257.39 200.337 251.008 203.854 244.764 207.03C229.708 214.712 214.209 221.493 198.349 227.337C195.448 228.396 192.178 229.404 189.444 228.004C187.768 227.141 186.637 225.509 185.622 223.914C180.995 216.631 177.315 208.789 174.671 200.576C172.691 194.411 171.088 187.696 166.331 183.316C159.586 177.108 147.373 178.594 142.318 186.216C142.318 186.216 136.393 194.883 140.019 198.509C143.646 202.135 147.91 183.257 147.91 183.257Z" fill="#FBBEBE"/>
<path d="M554.646 153.248C555.705 156.069 555.734 159.158 555.582 162.168C555.393 165.838 554.472 170.145 551.063 171.545C548.844 172.437 546.103 171.763 544.13 173.112C541.737 174.736 541.853 178.232 542.223 181.089C543.246 188.943 544.399 197.088 548.677 203.731C550.976 207.292 554.088 210.258 557.242 213.093C563.53 218.765 570.427 224.305 578.687 226.198C580.033 226.578 581.448 226.637 582.821 226.372C584.175 225.954 585.403 225.207 586.396 224.197C591.183 219.802 593.649 213.528 596.84 207.843C599.095 203.774 601.786 199.865 603.055 195.383C604.1 191.467 604.031 187.337 602.854 183.458C601.678 179.58 599.442 176.107 596.397 173.431C594.983 172.22 593.417 171.204 592.046 169.95C588.463 166.701 586.375 162.037 585.519 157.28C584.663 152.522 584.794 147.627 585.207 142.775C577.955 142.217 570.753 143.095 563.675 144.509C560.528 145.14 556.097 145.43 553.246 146.931C550.041 148.635 553.769 150.818 554.646 153.248Z" fill="#FBBEBE"/>
<path opacity="0.1" d="M554.646 153.248C555.705 156.069 555.734 159.158 555.582 162.168C555.393 165.838 554.472 170.145 551.063 171.545C548.844 172.437 546.103 171.763 544.13 173.112C541.737 174.736 541.853 178.232 542.223 181.089C543.246 188.943 544.399 197.088 548.677 203.731C550.976 207.292 554.088 210.258 557.242 213.093C563.53 218.765 570.427 224.305 578.687 226.198C580.033 226.578 581.448 226.637 582.821 226.372C584.175 225.954 585.403 225.207 586.396 224.197C591.183 219.802 593.649 213.528 596.84 207.843C599.095 203.774 601.786 199.865 603.055 195.383C604.1 191.467 604.031 187.337 602.854 183.458C601.678 179.58 599.442 176.107 596.397 173.431C594.983 172.22 593.417 171.204 592.046 169.95C588.463 166.701 586.375 162.037 585.519 157.28C584.663 152.522 584.794 147.627 585.207 142.775C577.955 142.217 570.753 143.095 563.675 144.509C560.528 145.14 556.097 145.43 553.246 146.931C550.041 148.635 553.769 150.818 554.646 153.248Z" fill="black"/>
<path d="M514.178 174.591C502.401 170.551 496.773 154.771 484.444 153.001C482.5 152.718 480.506 152.827 478.599 152.377C471.499 150.695 468.445 142.485 466.393 135.487C459.474 112.156 450.438 89.3261 437.602 68.6426C432.184 59.9399 423.619 52.7892 419.71 43.2597C418.811 41.084 418.354 38.6037 416.737 36.885C415.12 35.1662 411.66 34.9196 410.783 37.1098C410.538 37.8856 410.483 38.7089 410.623 39.5103L411.472 48.5394L396.721 47.2122C395.356 46.9795 393.955 47.079 392.638 47.5023C391.214 48.2145 390.08 49.3951 389.425 50.8456C384.435 60.2227 389.751 72.5081 398.555 78.4404C408.839 85.3663 423.525 86.4179 430.357 96.7524C434.418 102.902 434.498 110.815 437.174 117.682C438.45 120.968 440.314 123.985 441.801 127.168C444.636 133.239 446.087 139.838 448.284 146.162C451.432 155.206 456.095 163.633 460.744 172.009C464.326 178.478 467.996 185.063 473.508 190.009C477.134 193.258 481.398 195.666 485.662 197.987C496.149 203.716 508.514 209.228 519.625 204.833C520.263 194.926 517.775 183.881 514.178 174.591Z" fill="#FBBEBE"/>
<path d="M549.939 486.786C549.047 496.251 543.303 504.823 541.962 513.932C533.114 512.546 524.404 510.762 515.977 508.732C514.94 508.485 513.91 508.231 512.873 508.007C517.645 494.952 513.489 480.332 514.751 466.429C514.874 465.095 515.048 463.76 515.281 462.441C526.21 458.713 536.08 453.738 547.539 455.188C547.763 457.509 547.996 459.837 548.22 462.158C548.68 466.794 549.134 471.426 549.584 476.053C550.044 479.611 550.163 483.205 549.939 486.786Z" fill="#FBBEBE"/>
<path d="M625.522 510.458C621.229 511.763 616.819 512.902 612.214 513.837C611.446 513.997 610.67 514.149 609.894 514.294C605.18 515.179 600.408 515.824 595.585 516.267C595.092 506.186 588.333 496.918 587.346 486.569C587.144 483.997 587.171 481.412 587.426 478.845C587.513 477.83 587.615 476.815 587.709 475.799L589.754 454.934C591.382 454.73 593.024 454.65 594.664 454.695C604.092 454.92 612.671 459.003 622.012 462.187C622.708 466.589 622.951 471.05 622.737 475.502C622.382 486.83 620.562 498.296 624.768 508.688C625.007 509.276 625.268 509.863 625.522 510.458Z" fill="#FBBEBE"/>
<path d="M503.104 351.387C504.373 361.279 499.318 370.75 497.128 380.476C495.678 386.908 495.482 393.53 495.286 400.129L494.14 439.661C494.024 443.614 493.923 447.639 495.127 451.432C497.549 459.032 505.011 464.167 512.779 465.994C520.546 467.822 528.668 466.894 536.58 465.849C540.46 465.334 544.507 464.732 547.72 462.491C552.137 459.409 554.066 453.919 555.734 448.799L560.44 434.345C565.858 446.544 563.566 459.881 566.815 472.826C567.024 474.023 567.522 475.151 568.266 476.111C569.636 477.634 571.892 477.873 573.944 478.019C588.159 479.019 602.569 480.013 616.551 477.293C620.395 476.568 624.405 475.393 627.06 472.507C630.149 469.149 630.686 464.21 630.65 459.649C630.454 443.976 624.79 428.855 623.528 413.234C622.984 406.54 623.252 399.81 623.013 393.095C622.825 388.044 622.353 383.008 621.599 378.01C621.359 375.72 620.731 373.489 619.742 371.41C617.566 367.349 613.048 365.144 608.77 363.433C575.525 349.929 538.959 350.06 503.104 351.387Z" fill="#563F3F"/>
<path d="M564.654 156.787C581.877 156.787 595.839 142.825 595.839 125.602C595.839 108.379 581.877 94.4172 564.654 94.4172C547.431 94.4172 533.469 108.379 533.469 125.602C533.469 142.825 547.431 156.787 564.654 156.787Z" fill="#FBBEBE"/>
<path d="M591.835 180.531C589.522 185.607 585.881 190.684 580.464 191.975C575.482 193.171 570.202 190.771 566.532 187.195C562.863 183.62 560.462 178.979 557.917 174.533C556.06 171.284 553.993 168.006 550.853 165.961C546.56 163.176 541.019 163.248 535.957 164.068C530.895 164.887 525.869 166.352 520.727 166.019C514.323 165.591 507.796 162.393 501.755 164.525C503.713 173.286 503.01 182.917 502.785 191.895C502.823 193.281 502.627 194.664 502.205 195.985C501.677 197.217 500.966 198.361 500.094 199.379L494.293 206.856C500.515 211.512 505.896 217.59 508.072 225.052C509.297 229.302 508.92 233.813 508.877 238.237C508.739 251.226 511.56 264.164 510.668 277.124C509.624 292.303 503.561 306.647 500.435 321.536C497.758 334.318 497.253 347.459 498.941 360.409C531.446 371.657 564.937 377.415 599.298 379.301C605.368 379.634 611.924 379.685 616.907 376.197C621.048 373.296 623.368 368.328 624.159 363.324C624.949 358.32 624.405 353.229 623.854 348.196C622.36 334.586 620.869 320.976 619.38 307.365C618.531 299.62 617.683 291.831 618.234 284.064C618.647 278.262 619.836 272.569 621.019 266.891L628.271 232.036C629.308 227.083 630.352 222.093 632.405 217.474C634.087 213.702 636.415 210.221 638.272 206.552C640.485 202.152 642.011 197.439 642.797 192.577C643.112 191.165 643.092 189.7 642.739 188.298C641.963 185.919 639.592 184.49 637.38 183.323C623.892 176.234 609.436 171.164 594.475 168.274C593.46 172.546 593.656 176.549 591.835 180.531Z" fill="#E3E8F4"/>
<path d="M588.826 159.644C592.452 152.696 599.233 147.823 603.171 141.035C605.347 137.186 606.564 132.87 606.718 128.452C606.872 124.033 605.959 119.642 604.056 115.652C602.67 112.823 600.792 110.227 599.704 107.268C598.493 103.903 598.377 100.197 596.977 96.9047C595.055 92.3938 590.893 89.1448 586.36 87.2737C581.827 85.4026 576.932 84.7282 572.051 84.0755L555.574 81.8563C553.188 81.5372 550.715 81.2181 548.394 81.8563C546.074 82.4945 543.912 84.3873 543.724 86.7951C543.499 89.6452 546.001 92.2995 545.421 95.0989C545.211 96.0852 544.63 97.086 544.964 98.0433C545.261 98.6828 545.775 99.1966 546.414 99.4938C550.323 101.669 554.994 101.865 559.229 103.287C563.465 104.708 567.714 108.276 567.287 112.715C567.054 115.101 565.517 117.581 566.561 119.72C567.562 121.7 570.187 122.063 572.283 122.679C579.064 124.645 583.822 131.998 582.835 138.997C582.531 141.173 581.748 143.254 581.588 145.437C581.059 153.081 582.262 155.264 588.507 159.709L588.826 159.644Z" fill="#3F3D56"/>
<path d="M631.186 192.7C631.22 194.147 630.956 195.587 630.41 196.928C628.148 201.751 621.222 201.446 616.631 204.18C610.916 207.589 609.654 215.196 609.132 221.825C608.538 229.331 608.131 236.946 609.669 244.307C611.206 251.668 614.905 258.848 621.084 263.163C628.605 268.392 638.83 268.573 647.417 265.389C656.004 262.206 663.176 256.048 669.399 249.318C675.302 242.936 680.589 235.822 683.758 227.721C684.316 226.271 684.81 224.733 684.36 223.283C683.686 221.107 681.314 220.121 679.385 218.931C674.881 216.212 671.879 211.469 670.32 206.457C668.76 201.446 668.499 196.116 668.449 190.858C668.39 185.397 668.376 179.428 664.895 175.215C661.414 171.001 655.38 169.819 649.883 169.862C645.386 169.862 632.941 170.29 629.874 174.214C627.357 177.477 631.368 188.029 631.186 192.7Z" fill="#BE6F72"/>
<path opacity="0.1" d="M631.186 192.7C631.22 194.147 630.956 195.587 630.41 196.928C628.148 201.751 621.222 201.446 616.631 204.18C610.916 207.589 609.654 215.196 609.132 221.825C608.538 229.331 608.131 236.946 609.669 244.307C611.206 251.668 614.905 258.848 621.084 263.163C628.605 268.392 638.83 268.573 647.417 265.389C656.004 262.206 663.176 256.048 669.399 249.318C675.302 242.936 680.589 235.822 683.758 227.721C684.316 226.271 684.81 224.733 684.36 223.283C683.686 221.107 681.314 220.121 679.385 218.931C674.881 216.212 671.879 211.469 670.32 206.457C668.76 201.446 668.499 196.116 668.449 190.858C668.39 185.397 668.376 179.428 664.895 175.215C661.414 171.001 655.38 169.819 649.883 169.862C645.386 169.862 632.941 170.29 629.874 174.214C627.357 177.477 631.368 188.029 631.186 192.7Z" fill="black"/>
<path d="M592.517 387.191C592.742 388.296 593.263 389.319 594.026 390.15C594.742 390.716 595.578 391.11 596.47 391.303C620.272 398.287 645.698 395.502 670.341 392.652C666.969 382.383 663.575 371.998 662.639 361.228C661.863 352.344 662.734 343.097 659.586 334.765C658.658 332.299 604.556 343.649 599.218 344.57C596.484 345.041 593.337 344.881 591.4 347.05C589.065 349.675 588.869 355.927 588.623 359.197C587.927 368.647 589.877 378.162 592.517 387.191Z" fill="#BE6F72"/>
<path d="M646.713 502.314C642.362 504.33 637.873 506.208 633.224 507.891C630.71 508.804 628.143 509.66 625.522 510.458C621.229 511.763 616.82 512.902 612.214 513.837C609.589 507.18 606.961 500.52 604.331 493.857C602.395 488.955 600.458 484.031 598.841 479.019C597.716 475.597 596.791 472.113 596.071 468.583C593.697 456.587 594.314 444.19 597.869 432.489C607.921 434.382 617.748 435.615 627.647 437.05C632.934 437.776 638.236 438.631 643.602 439.64C644.023 443.135 644.405 446.631 644.748 450.126C645.27 455.522 645.698 460.918 646.032 466.313C646.771 478.304 646.999 490.304 646.713 502.314Z" fill="#BE6F72"/>
<path opacity="0.1" d="M646.713 502.314C642.362 504.33 637.873 506.208 633.224 507.891C630.71 508.804 628.143 509.66 625.522 510.458C621.229 511.763 616.82 512.902 612.214 513.837C609.589 507.18 606.961 500.52 604.331 493.857C602.395 488.955 600.458 484.031 598.841 479.019C597.716 475.597 596.791 472.113 596.071 468.583C593.697 456.587 594.314 444.19 597.869 432.489C607.921 434.382 617.748 435.615 627.647 437.05C632.934 437.776 638.236 438.631 643.602 439.64C644.023 443.135 644.405 446.631 644.748 450.126C645.27 455.522 645.698 460.918 646.032 466.313C646.771 478.304 646.999 490.304 646.713 502.314Z" fill="black"/>
<path d="M702.483 470.889C702.541 475.067 701.352 479.331 700.25 483.429C700.17 483.719 700.097 484.002 700.025 484.292C697.402 483.475 695.14 481.779 693.621 479.491C692.836 478.25 692.256 476.891 691.902 475.466C688.619 477.699 685.308 479.911 681.967 482.102C671.038 489.281 659.485 496.41 646.713 502.314C642.362 504.33 637.873 506.208 633.224 507.891C632.257 504.506 631.339 501.1 630.468 497.672C629.517 494.143 628.771 490.562 628.235 486.946C627.172 478.734 627.996 470.388 630.642 462.542L630.969 461.599C632.201 458.11 633.793 454.758 635.719 451.598C637.525 448.698 641.1 449.183 644.748 450.148C646.402 450.576 648.077 451.091 649.6 451.41C659.079 453.397 668.92 451.345 678.609 451.889C683.226 452.119 687.751 453.271 691.917 455.275C696.58 457.618 700.337 461.2 701.809 466.154C702.018 466.867 702.178 467.594 702.288 468.329C702.41 469.178 702.475 470.033 702.483 470.889Z" fill="#BE6F72"/>
<path d="M528.008 136.886C513.032 122.382 496.011 110.089 478.599 98.5945C474.068 95.753 469.709 92.646 465.544 89.2899C461.193 85.6638 457.4 81.4067 452.78 78.1432C448.161 74.8796 442.446 72.6387 436.898 73.712C431.35 74.7854 426.419 80.094 427.231 85.6493C427.956 90.5373 432.351 93.8878 436.412 96.6945C444.1 102.01 451.823 107.341 460.185 111.511C463.09 112.828 465.907 114.329 468.619 116.007C473.827 119.517 477.619 124.71 481.557 129.591C496.421 148.053 514.627 163.553 535.224 175.28C535.471 175.425 544.05 156.91 543.688 154.509C542.89 148.991 531.953 140.716 528.008 136.886Z" fill="#BE6F72"/>
<path d="M656.098 371.251C644.538 371.976 633.449 375.878 622.143 378.365C610.837 380.853 598.551 381.817 588.057 376.915L594.439 420.493C594.795 422.916 595.164 425.396 594.635 427.782C594.149 430.059 592.887 432.206 592.996 434.534C593.163 438.218 596.622 440.807 599.878 442.511C609.338 447.506 619.936 449.948 630.628 449.597C629.837 452.788 628.851 455.943 628.053 459.134C633.384 464.856 642.101 465.24 649.709 467.053C655.51 468.424 660.95 470.802 666.635 472.478C673.511 474.507 680.651 475.502 687.819 475.429C692.657 475.379 697.784 474.704 701.541 471.687C706.16 467.967 707.596 461.643 708.597 455.797C709.155 452.534 709.67 449.227 709.322 445.934C708.945 442.149 707.48 438.566 706.03 435.056L696.094 410.942C694.288 406.591 692.468 402.174 690.292 397.975C683.185 384.392 671.393 370.301 656.098 371.251Z" fill="#3F3D56"/>
<path d="M664.946 220.679C665.804 218.423 667.389 216.516 669.451 215.26C671.512 214.003 673.933 213.468 676.332 213.739C679.233 214.145 681.822 215.733 684.309 217.285L698.161 225.93C700.456 227.296 702.659 228.812 704.753 230.47C714.305 238.389 717.989 251.407 719.04 263.772C720.092 276.137 719.04 288.713 721.499 300.875C715.654 305.719 709.17 309.817 703.325 314.654C700.264 317.185 697.167 319.731 694.847 322.987C693.005 325.547 691.692 328.477 689.77 330.964C686.623 334.896 682.057 337.433 677.057 338.028C680.226 339.87 682.003 343.445 682.859 347.006C683.715 350.567 683.947 354.259 684.897 357.82C686.202 362.657 688.907 367.073 689.799 372.005C690.423 375.406 690.147 378.895 690.372 382.347C691.503 400.209 705.522 415.823 704.616 433.693C697.999 431.288 691.739 427.997 686.006 423.909C683.424 422.06 680.93 420.058 678.486 418.064L660.014 403.088C651.029 395.836 641.956 388.424 634.813 379.315C630.331 373.6 626.675 367.276 622.179 361.576C617.683 355.876 612.149 350.698 605.281 348.305C604.273 349.82 602.482 350.872 601.474 352.388C601.296 352.627 601.154 352.89 601.053 353.171C600.931 353.847 601.014 354.544 601.293 355.172C602.103 358.106 602.589 361.119 602.743 364.158L603.2 369.612C603.37 371.057 603.37 372.518 603.2 373.963C602.511 378.626 598.189 382.245 593.525 382.97C592.851 383.116 592.151 383.094 591.487 382.905C590.189 382.47 589.471 381.099 589.08 379.794C587.245 373.6 590.059 367.066 590.284 360.619C590.315 358.983 590.259 357.346 590.117 355.716L589.682 349.284C585.468 348.406 583.046 343.881 581.929 339.725C578.912 328.506 575.873 316.895 577.621 305.407C578.085 302.332 578.898 299.214 578.346 296.139C577.621 292.027 574.662 288.691 573.103 284.818C568.026 272.192 578.811 258.485 577.81 244.931C577.389 239.238 573.777 234.292 571.602 229.012C570.476 225.935 569.017 222.99 567.25 220.23C565.031 217.06 562.036 214.522 559.128 211.969C550.146 204.089 541.628 195.696 533.614 186.833C529.499 186.406 525.638 184.637 522.627 181.8C520.713 179.987 519.139 177.593 519.088 174.961C519.037 172.328 520.981 169.565 523.614 169.427C525.151 169.348 526.587 170.109 528.088 170.443C532.788 171.473 537.516 168.013 539.612 163.669C541.708 159.325 541.708 154.328 541.672 149.513C543.968 149.105 546.331 149.296 548.533 150.067C550.734 150.838 552.7 152.163 554.24 153.915C557.482 157.439 559.592 161.834 562.145 165.881C563.184 167.679 564.517 169.29 566.09 170.646C569.578 173.416 574.604 173.938 577.65 177.173C579.195 178.826 580.051 181.017 581.465 182.786C585.439 187.768 592.713 188.378 598.145 191.656C603.577 194.934 607.355 200.924 613.375 202.868C615.551 203.593 617.922 203.687 620.076 204.492C625.051 206.341 628.09 211.628 628.779 216.886C629.468 222.144 628.293 227.46 627.103 232.638L624.311 244.757C623.695 247.44 623.223 250.667 625.203 252.582C626.139 253.356 627.237 253.909 628.416 254.199C633.493 255.853 639.149 257.477 643.921 255.135C646.177 254.018 647.946 252.132 649.564 250.203C656.642 241.863 661.349 230.941 664.946 220.679Z" fill="#F17A78"/>
<path d="M722.188 467.292C721.187 473.928 717.532 480.455 711.549 483.494C707.961 485.263 703.822 485.549 700.025 484.292C697.402 483.475 695.14 481.779 693.621 479.491C692.836 478.25 692.256 476.891 691.902 475.466C691.902 475.393 691.866 475.313 691.851 475.241C691.306 472.675 691.08 470.051 691.177 467.43C691.175 463.36 691.417 459.294 691.902 455.254C692.307 451.851 692.976 448.486 693.904 445.187C695.253 440.481 697.196 435.948 698.98 431.408C699.909 429.015 700.801 426.614 701.533 424.156C701.976 422.705 702.353 421.211 702.657 419.703L702.766 419.159C702.824 418.854 702.875 418.55 702.926 418.245C703.651 414.111 703.861 409.833 705.725 406.098C710.076 397.33 718.547 399.571 719.838 407.657C719.936 408.283 719.991 408.916 720.005 409.55C720.201 419.783 716.139 429.784 717.996 440.053C718.519 442.557 719.178 445.031 719.968 447.465C720.621 449.706 721.209 451.976 721.658 454.274C722.569 458.553 722.748 462.954 722.188 467.292Z" fill="#BE6F72"/>
<path d="M726.176 353.504C726.372 357.696 726.177 361.939 727.018 366.051C728.983 375.769 736.446 384.37 735.619 394.248C735.416 396.655 734.524 399.244 732.421 400.434C730.318 401.623 726.836 401.529 726.147 403.922C725.952 404.589 726.053 405.315 725.836 405.974C725.379 407.381 723.66 407.983 722.21 407.947C720.759 407.911 719.309 407.432 717.807 407.556C712.549 407.998 710.62 415.033 705.935 417.448C702.781 419.072 698.683 418.173 696.08 415.772C693.476 413.372 692.337 409.63 692.54 406.083C692.693 403.407 693.541 400.825 693.991 398.186C694.81 393.479 694.383 388.656 693.955 383.899C693.324 376.929 692.671 369.873 690.379 363.266C689.299 360.147 687.863 357.167 686.927 354.005C685.593 349.53 685.288 344.823 685.15 340.16C684.868 330.348 685.542 319.854 691.402 311.963C695.804 306.046 702.113 301.237 707.096 295.762C710.214 292.332 711.114 291.258 714.558 294.166C717.394 296.552 720.36 299.845 720.679 303.079C721.55 311.369 720.679 319.52 722.231 327.962C723.783 336.404 725.77 344.838 726.176 353.504Z" fill="#F17A78"/>
<path d="M650.956 193.773C671.383 193.773 687.943 177.214 687.943 156.787C687.943 136.359 671.383 119.8 650.956 119.8C630.529 119.8 613.969 136.359 613.969 156.787C613.969 177.214 630.529 193.773 650.956 193.773Z" fill="#BE6F72"/>
<path d="M684.824 227.54C685.636 226.401 686.601 225.176 687.979 224.936C689.019 224.858 690.061 225.077 690.981 225.567L700.721 229.636C703.353 225.289 704.905 220.375 705.247 215.305C705.45 212.194 705.203 209.039 705.798 205.979C706.682 201.439 709.373 197.37 709.997 192.787C710.49 189.088 709.598 185.368 709.061 181.677C707.408 170.276 709.185 158.643 708.234 147.163C707.284 135.683 702.679 123.383 692.439 118.11C689.538 116.66 686.412 115.79 683.395 114.644C676.673 112.084 670.646 107.986 664.003 105.216C657.36 102.446 649.556 101.176 643.116 104.36C636.676 107.544 632.927 116.5 637.112 122.346C638.489 124.268 640.506 125.631 642.435 127.016C646.358 129.823 650.361 133.289 651.268 138.032C652.892 146.568 644.016 153.262 641.514 161.609C640.59 164.869 640.508 168.31 641.274 171.61C642.355 176.556 644.995 181.227 644.9 186.289C644.828 191.837 641.506 196.863 640.883 202.382C640.658 204.405 640.796 206.457 640.542 208.474C640.095 211.133 639.308 213.724 638.199 216.183C632.398 230.687 626.516 245.344 617.893 258.384C627.125 258.54 636.252 256.408 644.458 252.176C643.279 257.766 641.02 263.072 637.808 267.797C645.186 266.943 652.284 264.466 658.593 260.545C657.062 266.026 654.845 271.292 651.993 276.217C652.24 275.796 656.801 274.767 657.643 274.288C659.372 273.305 660.763 271.82 661.631 270.031C664.097 265.621 665.635 260.306 667.919 255.722C672.803 245.898 678.456 236.474 684.824 227.54Z" fill="#3F3D56"/>
<path d="M404.321 5.58431C402.564 5.76127 400.797 5.80249 399.034 5.70759C398.734 5.67476 398.432 5.76125 398.195 5.94843C397.957 6.13561 397.803 6.40852 397.765 6.7084L394.393 32.0043C394.133 33.8405 393.381 35.5723 392.217 37.0156C391.257 38.1642 390.543 39.4979 390.12 40.9339C389.697 42.3698 389.574 43.8774 389.758 45.363V88.3326C389.758 88.3326 389.541 94.0619 393.943 94.0619C399.212 94.7239 404.542 94.7239 409.811 94.0619C409.811 94.0619 413.335 93.3947 413.335 88.1078V45.7981C413.604 44.322 413.549 42.805 413.173 41.3524C412.798 39.8997 412.111 38.5462 411.16 37.3855C410.034 35.9369 409.307 34.2194 409.049 32.4032L405.547 6.57786C405.507 6.28751 405.358 6.0232 405.13 5.83865C404.903 5.6541 404.613 5.56316 404.321 5.58431Z" fill="#3F3D56"/>
<path d="M404.343 46.1316H398.998C394.572 46.1316 390.984 49.7195 390.984 54.1453V74.2559C390.984 78.6817 394.572 82.2696 398.998 82.2696H404.343C408.769 82.2696 412.357 78.6817 412.357 74.2559V54.1453C412.357 49.7195 408.769 46.1316 404.343 46.1316Z" fill="#EE4744"/>
<path d="M454.362 42.5709C452.605 42.7478 450.838 42.7891 449.075 42.6942C448.774 42.6613 448.473 42.7478 448.235 42.935C447.998 43.1222 447.844 43.3951 447.806 43.695L444.433 68.9909C444.174 70.8271 443.422 72.5589 442.258 74.0022C441.298 75.1508 440.584 76.4845 440.161 77.9205C439.738 79.3564 439.615 80.864 439.799 82.3496V125.319C439.799 125.319 439.582 131.049 443.984 131.049C449.252 131.711 454.583 131.711 459.852 131.049C459.852 131.049 463.376 130.381 463.376 125.094V82.7847C463.645 81.3086 463.59 79.7916 463.214 78.339C462.838 76.8863 462.151 75.5328 461.2 74.3721C460.075 72.9235 459.348 71.206 459.09 69.3898L455.587 43.5644C455.547 43.2741 455.399 43.0098 455.171 42.8252C454.943 42.6407 454.654 42.5497 454.362 42.5709Z" fill="#3F3D56"/>
<path d="M454.383 83.1182H449.039C444.613 83.1182 441.025 86.706 441.025 91.1319V111.242C441.025 115.668 444.613 119.256 449.039 119.256H454.383C458.809 119.256 462.397 115.668 462.397 111.242V91.1319C462.397 86.706 458.809 83.1182 454.383 83.1182Z" fill="#EE4744"/>
<g opacity="0.2">
<path opacity="0.2" d="M398.113 475.915C398.09 476.697 398 477.476 397.845 478.243C392.797 477.441 387.721 476.715 382.615 476.067C382.615 475.864 382.615 475.654 382.615 475.444C382.662 473.269 383.288 471.146 384.428 469.294C385.922 466.93 388.192 465.45 390.694 465.53C393.196 465.61 395.364 467.227 396.706 469.671C397.721 471.591 398.207 473.746 398.113 475.915Z" fill="#3F3D56"/>
<path opacity="0.2" d="M398.52 463.531C398.697 457.922 395.368 453.266 391.085 453.131C386.801 452.995 383.185 457.432 383.008 463.041C382.831 468.649 386.16 473.306 390.443 473.441C394.727 473.577 398.343 469.14 398.52 463.531Z" fill="#3F3D56"/>
<path opacity="0.2" d="M398.916 451.115C399.093 445.506 395.764 440.85 391.481 440.714C387.197 440.579 383.581 445.016 383.404 450.625C383.226 456.233 386.555 460.89 390.839 461.025C395.122 461.16 398.738 456.723 398.916 451.115Z" fill="#3F3D56"/>
<path opacity="0.2" d="M399.304 438.699C399.481 433.09 396.153 428.434 391.869 428.298C387.585 428.163 383.969 432.6 383.792 438.208C383.615 443.817 386.944 448.474 391.227 448.609C395.511 448.744 399.127 444.307 399.304 438.699Z" fill="#3F3D56"/>
<path opacity="0.2" d="M399.7 426.282C399.877 420.674 396.548 416.017 392.265 415.882C387.981 415.747 384.365 420.184 384.188 425.792C384.011 431.401 387.339 436.057 391.623 436.193C395.906 436.328 399.523 431.891 399.7 426.282Z" fill="#3F3D56"/>
<path opacity="0.2" d="M365.551 340.124C364.53 338.741 363.609 337.287 362.795 335.772L383.29 333.067L361.228 332.538C359.26 327.868 358.264 322.846 358.303 317.778C358.342 312.71 359.414 307.704 361.453 303.065L390.549 319.346L363.897 298.431C366.586 294.082 370.142 290.334 374.344 287.422C378.546 284.51 383.304 282.495 388.319 281.504C393.335 280.513 398.501 280.566 403.495 281.661C408.489 282.757 413.204 284.87 417.344 287.869C421.485 290.868 424.963 294.688 427.56 299.092C430.158 303.495 431.82 308.387 432.442 313.462C433.065 318.536 432.634 323.685 431.177 328.585C429.72 333.486 427.268 338.034 423.975 341.944C425.564 344.095 426.913 346.413 428 348.856L401.101 361.765L429.625 353.185C431.421 359.112 431.71 365.393 430.467 371.46C429.223 377.527 426.486 383.188 422.503 387.931C426.644 393.549 429.12 400.22 429.649 407.18C430.177 414.139 428.737 421.107 425.491 427.287C422.246 433.466 417.327 438.608 411.298 442.123C405.268 445.639 398.37 447.387 391.394 447.167C384.418 446.947 377.644 444.768 371.848 440.879C366.051 436.991 361.466 431.55 358.617 425.178C355.767 418.807 354.768 411.762 355.734 404.849C356.7 397.937 359.592 391.435 364.079 386.089C359.131 379.374 356.584 371.191 356.847 362.855C357.111 354.519 360.168 346.513 365.529 340.124H365.551Z" fill="#EE4744"/>
<path opacity="0.1" d="M431.205 365.202C430.951 373.543 427.884 381.553 422.502 387.931C426.644 393.549 429.12 400.22 429.648 407.18C430.177 414.139 428.736 421.107 425.491 427.287C422.246 433.466 417.327 438.608 411.297 442.123C405.267 445.639 398.37 447.386 391.394 447.167C384.417 446.947 377.644 444.768 371.847 440.879C366.051 436.991 361.466 431.55 358.616 425.178C355.767 418.807 354.768 411.762 355.734 404.849C356.7 397.936 359.591 391.435 364.078 386.089C359.313 379.612 431.336 361.032 431.205 365.202Z" fill="black"/>
</g>
<path d="M716.603 512.284L715.851 511.871C716.554 510.717 714.666 505.805 713.108 503.331C712.026 501.615 711.348 500.055 711.034 498.561C710.533 496.183 711.009 494.121 712.446 492.433C715.429 488.931 715.403 482.245 715.402 482.178L716.271 482.17C716.274 482.456 716.302 489.217 713.122 492.951C711.009 495.433 711.255 498.783 713.854 502.908C715.078 504.851 717.695 510.494 716.603 512.284Z" fill="#D4D5E0"/>
<path d="M725.892 475.016C726.08 468.153 721.651 462.46 716 462.299C710.348 462.138 705.614 467.571 705.426 474.433C705.244 481.096 709.414 486.657 714.829 487.122C714.732 487.816 714.441 488.468 713.99 488.998C713.169 489.852 716.572 489.071 716.572 489.071C716.348 488.448 716.224 487.792 716.205 487.128C721.457 486.732 725.714 481.516 725.892 475.016Z" fill="#EE4744"/>
<path opacity="0.2" d="M708.071 479.496C707.214 476.999 708.004 474.491 709.836 473.739C709.751 473.757 709.667 473.779 709.583 473.805C707.578 474.427 706.679 477.045 707.573 479.65C708.442 482.181 710.683 483.769 712.647 483.29C712.687 483.488 708.938 482.022 708.071 479.496Z" fill="white"/>
<path d="M721.08 521.886L721.891 521.92C721.947 520.587 726.033 517.401 728.57 516.107C730.33 515.208 731.689 514.236 732.727 513.135C734.378 511.382 735.094 509.399 734.852 507.241C734.352 502.763 737.907 497.131 737.943 497.074L737.262 496.625C737.108 496.865 733.512 502.56 734.045 507.334C734.4 510.507 732.435 513.21 728.205 515.369C726.212 516.386 721.165 519.818 721.08 521.886Z" fill="#D4D5E0"/>
<path d="M733.328 485.012C736.801 479.239 743.569 476.905 748.446 479.8C753.323 482.695 754.462 489.722 750.989 495.495C747.618 501.101 741.139 503.463 736.302 500.946C736.016 501.572 735.918 502.267 736.02 502.946C736.264 504.093 733.792 501.624 733.792 501.624C734.312 501.229 734.764 500.753 735.131 500.214C730.888 497.073 730.039 490.481 733.328 485.012Z" fill="#EE4744"/>
<path opacity="0.2" d="M745.627 498.374C747.714 496.645 748.446 494.035 747.349 492.409C747.409 492.47 747.467 492.533 747.521 492.6C748.833 494.204 748.13 496.967 745.953 498.772C743.839 500.524 741.111 500.727 739.754 499.27C739.611 499.422 743.517 500.123 745.627 498.374Z" fill="white"/>
<path d="M572.92 555.011L572.109 555.045C572.053 553.712 567.967 550.526 565.43 549.232C563.67 548.333 562.311 547.361 561.273 546.26C559.622 544.507 558.906 542.524 559.148 540.366C559.648 535.888 556.093 530.256 556.057 530.199L556.738 529.75C556.892 529.99 560.488 535.685 559.955 540.459C559.6 543.632 561.565 546.335 565.795 548.494C567.788 549.511 572.835 552.943 572.92 555.011Z" fill="#D4D5E0"/>
<path d="M560.672 518.739C557.199 512.966 550.431 510.632 545.554 513.527C540.677 516.422 539.538 523.449 543.011 529.222C546.382 534.828 552.861 537.19 557.698 534.673C557.984 535.299 558.082 535.994 557.98 536.674C557.736 537.82 560.208 535.351 560.208 535.351C559.688 534.956 559.236 534.48 558.869 533.942C563.112 530.8 563.961 524.208 560.672 518.739Z" fill="#EE4744"/>
<path opacity="0.2" d="M548.373 532.101C546.286 530.372 545.554 527.763 546.651 526.136C546.591 526.197 546.533 526.261 546.479 526.328C545.167 527.932 545.87 530.695 548.047 532.499C550.161 534.251 552.889 534.455 554.246 532.997C554.389 533.149 550.483 533.85 548.373 532.101Z" fill="white"/>
<path d="M600.625 468.283L599.784 468.318C599.727 466.985 595.495 463.799 592.868 462.504C591.045 461.606 589.636 460.634 588.562 459.533C586.851 457.78 586.111 455.797 586.36 453.638C586.878 449.161 583.196 443.528 583.159 443.472L583.865 443.023C584.024 443.263 587.749 448.958 587.196 453.732C586.829 456.905 588.864 459.608 593.245 461.767C595.31 462.784 600.536 466.216 600.625 468.283Z" fill="#D4D5E0"/>
<path d="M588.376 432.012C584.904 426.239 578.135 423.905 573.258 426.8C568.381 429.695 567.243 436.722 570.715 442.495C574.087 448.101 580.565 450.463 585.403 447.946C585.689 448.572 585.786 449.267 585.684 449.946C585.441 451.093 587.913 448.624 587.913 448.624C587.393 448.229 586.941 447.753 586.574 447.214C590.817 444.073 591.665 437.481 588.376 432.012Z" fill="#EE4744"/>
<path opacity="0.2" d="M575.475 444.771C573.388 443.042 572.657 440.433 573.753 438.807C573.693 438.868 573.636 438.931 573.581 438.998C572.27 440.602 572.972 443.365 575.149 445.169C577.264 446.921 579.991 447.125 581.348 445.667C581.491 445.819 577.586 446.52 575.475 444.771Z" fill="white"/>
<path d="M590.989 505.022L590.148 505.057C590.091 503.724 585.859 500.538 583.231 499.243C581.408 498.345 580 497.373 578.926 496.272C577.215 494.519 576.474 492.535 576.724 490.377C577.242 485.9 573.56 480.267 573.523 480.211L574.229 479.761C574.387 480.001 578.112 485.697 577.56 490.47C577.193 493.643 579.228 496.347 583.609 498.505C585.673 499.523 590.9 502.955 590.989 505.022Z" fill="#D4D5E0"/>
<path d="M578.74 468.751C575.267 462.977 568.499 460.644 563.622 463.538C558.745 466.433 557.606 473.46 561.079 479.234C564.45 484.839 570.929 487.202 575.767 484.685C576.052 485.311 576.15 486.005 576.048 486.685C575.804 487.831 578.276 485.362 578.276 485.362C577.757 484.967 577.304 484.491 576.937 483.953C581.18 480.812 582.029 474.219 578.74 468.751Z" fill="#EE4744"/>
<path opacity="0.2" d="M566.441 481.51C564.354 479.781 563.622 477.172 564.719 475.545C564.659 475.606 564.601 475.67 564.547 475.737C563.235 477.341 563.938 480.104 566.115 481.908C568.23 483.66 570.957 483.864 572.314 482.406C572.457 482.558 568.552 483.259 566.441 481.51Z" fill="white"/>
<path d="M705.372 553.841L704.818 553.196C705.909 552.341 705.961 547.053 705.415 544.186C705.037 542.197 704.979 540.491 705.239 538.971C705.653 536.551 706.867 534.759 708.847 533.645C712.954 531.334 715.417 524.996 715.441 524.932L716.261 525.218C716.158 525.49 713.669 531.9 709.29 534.364C706.379 536.001 705.364 539.256 706.274 544.037C706.703 546.29 707.064 552.514 705.372 553.841Z" fill="#D4D5E0"/>
<path d="M727.246 521.974C729.788 515.771 727.605 509.024 722.37 506.903C717.135 504.782 710.83 508.091 708.288 514.293C705.82 520.315 707.807 526.851 712.716 529.167C712.386 529.768 711.889 530.261 711.284 530.588C710.22 531.081 713.676 531.557 713.676 531.557C713.681 530.909 713.791 530.267 714.002 529.654C719.055 531.126 724.838 527.849 727.246 521.974Z" fill="#EE4744"/>
<path opacity="0.2" d="M709.552 519.675C709.67 516.966 711.3 514.815 713.25 514.719C713.166 514.708 713.081 514.699 712.995 514.696C710.933 514.606 709.163 516.825 709.041 519.653C708.922 522.398 710.401 524.707 712.374 524.921C712.339 525.126 709.434 522.416 709.552 519.675Z" fill="white"/>
<path opacity="0.1" d="M638.568 561.67C681.81 561.67 716.864 559.109 716.864 555.949C716.864 552.789 681.81 550.227 638.568 550.227C595.327 550.227 560.273 552.789 560.273 555.949C560.273 559.109 595.327 561.67 638.568 561.67Z" fill="#EE4744"/>
<path d="M631.943 404.922V414.114H632.545V404.477L631.943 404.922Z" fill="#53425A"/>
<path d="M651.216 407.804V415.92H653.023L652.621 406.886L651.216 407.804Z" fill="#53425A"/>
<path d="M613.875 409.295L612.67 410.235V418.33H613.875V409.295Z" fill="#53425A"/>
<path d="M617.489 433.386H611.466V417.125H616.099C616.051 417.25 616.015 417.379 615.992 417.511C615.812 418.445 615.867 420.207 616.036 422.226C616.439 427.066 617.489 433.386 617.489 433.386Z" fill="#EE4744"/>
<path d="M637.364 433.122L630.136 433.989V412.909H634.709C634.678 413.147 634.658 413.418 634.647 413.719C634.634 415.31 634.729 416.899 634.932 418.477C635.087 419.85 635.291 421.325 635.514 422.792C635.687 423.929 635.873 425.059 636.056 426.135C636.72 429.997 637.364 433.122 637.364 433.122Z" fill="#EE4744"/>
<path d="M656.636 431.002L650.011 431.58V414.716H654.566C654.405 415.075 654.334 415.68 654.332 416.45C654.361 417.841 654.48 419.229 654.688 420.603C655.334 425.327 656.636 431.002 656.636 431.002Z" fill="#EE4744"/>
<path d="M615.025 392.432C615.025 392.432 615.486 394.2 610.643 399.063C605.8 403.926 607.722 413.725 612.873 413.43C612.873 413.43 617.688 414.191 619.42 411.05C619.78 410.372 619.942 409.613 619.888 408.854C619.833 408.094 619.566 407.364 619.112 406.739C617.521 404.492 614.451 399.771 615.025 397.516V392.432Z" fill="#FFC13D"/>
<path opacity="0.5" d="M613.963 399.057C613.963 399.057 614.239 400.168 611.334 403.225C608.428 406.281 609.581 412.441 612.671 412.256C612.671 412.256 615.625 412.745 616.633 410.693C616.832 410.271 616.916 409.804 616.877 409.339C616.838 408.874 616.678 408.428 616.412 408.045C615.509 406.71 613.821 403.995 613.925 402.504C613.941 402.271 613.963 402.038 613.963 401.804V399.057Z" fill="white"/>
<path d="M653.212 390.625C653.212 390.625 653.65 392.343 649.049 397.067C644.448 401.79 646.274 411.31 651.167 411.023C651.167 411.023 655.741 411.763 657.387 408.711C657.729 408.052 657.883 407.315 657.831 406.578C657.78 405.84 657.525 405.13 657.095 404.523C655.583 402.341 652.666 397.755 653.212 395.564V390.625Z" fill="#FFC13D"/>
<path opacity="0.5" d="M652.637 400.864C652.637 400.864 652.844 401.672 650.665 403.895C648.486 406.118 649.35 410.598 651.668 410.463C651.668 410.463 653.835 410.811 654.614 409.375C654.776 409.065 654.849 408.718 654.825 408.371C654.801 408.024 654.68 407.69 654.476 407.404C653.76 406.377 652.378 404.219 652.637 403.188V400.864Z" fill="white"/>
<path d="M633.567 384C633.567 384 634.097 386.122 628.528 391.957C622.958 397.793 625.168 409.552 631.091 409.198C631.091 409.198 636.629 410.112 638.621 406.342C639.035 405.528 639.221 404.617 639.159 403.706C639.096 402.795 638.788 401.918 638.267 401.169C636.437 398.473 632.907 392.808 633.567 390.101V384Z" fill="#FFC13D"/>
<path opacity="0.5" d="M632.992 394.841C632.992 394.841 633.292 396.003 630.144 399.199C626.996 402.394 628.245 408.834 631.593 408.64C631.593 408.64 634.722 409.14 635.848 407.076C636.083 406.63 636.188 406.131 636.152 405.632C636.117 405.134 635.943 404.653 635.649 404.243C634.614 402.767 632.619 399.664 632.992 398.182V394.841Z" fill="white"/>
<path opacity="0.5" d="M616.284 421.853C614.792 423.258 612.731 425.771 611.466 427.364V421.602C612.86 420.1 614.858 418.315 616.238 417.125C616.047 418.062 616.106 419.829 616.284 421.853Z" fill="white"/>
<path opacity="0.5" d="M634.955 418.59C633.258 420.002 631.649 421.525 630.136 423.148V417.318C631.505 415.876 633.025 414.599 634.668 413.511C634.654 415.209 634.75 416.905 634.955 418.59Z" fill="white"/>
<path d="M636.159 426.446C634.352 427.95 631.865 430.088 630.136 431.58V427.724C631.941 426.147 634.149 424.331 635.608 423.148C635.783 424.269 635.972 425.384 636.159 426.446Z" fill="#EE4744"/>
<path opacity="0.5" d="M654.83 420.791C653.185 422.226 651.278 424.199 650.011 425.557V419.969C651.357 418.573 653.142 417.34 654.463 416.523C654.493 417.952 654.615 419.378 654.83 420.791Z" fill="white"/>
<path d="M671.091 437.602H599.42V470.125H671.091V437.602Z" fill="#C99398"/>
<path opacity="0.1" d="M671.091 437.602V442.316C669.72 442.57 667.924 442.178 666.419 441.698C665.531 441.411 664.586 441.32 663.656 441.432C662.725 441.544 661.834 441.856 661.047 442.344C656.918 444.921 653.694 444.376 651.445 443.094C650.332 442.445 649.073 442.057 647.772 441.961C646.471 441.865 645.165 442.065 643.961 442.543C642.909 442.956 641.779 443.154 640.642 443.124C639.313 443.107 638.007 443.451 636.875 444.116C633.484 446.076 630.104 444.942 627.981 443.757C626.589 442.991 624.943 442.765 623.382 443.124C622.714 443.278 622.024 443.331 621.339 443.283C619.771 443.143 618.196 443.467 616.828 444.212C611.23 447.334 609.381 443.543 608.278 442.985C607.033 442.356 606.888 444.522 606.521 444.522C606.154 444.522 604.911 441.658 604.617 442.635C604.481 443.094 603.328 443.646 602.142 444.103C601.279 444.435 600.336 444.528 599.42 444.371V437.602H671.091Z" fill="black"/>
<path d="M601.979 430.684C601.979 430.684 590.141 435.869 596.458 442.348C597.142 443.038 598.02 443.512 598.979 443.709C599.939 443.905 600.937 443.816 601.844 443.452C603.039 442.98 604.201 442.408 604.339 441.933C604.634 440.919 605.889 443.888 606.258 443.888C606.627 443.888 606.774 441.643 608.028 442.295C609.14 442.872 611.003 446.802 616.645 443.565C618.025 442.794 619.613 442.458 621.193 442.603C621.884 442.654 622.578 442.598 623.25 442.438C624.824 442.066 626.484 442.301 627.886 443.093C630.027 444.321 633.434 445.496 636.851 443.467C637.991 442.777 639.308 442.42 640.648 442.438C641.793 442.47 642.933 442.264 643.991 441.835C645.206 441.341 646.523 441.135 647.834 441.234C649.145 441.333 650.413 441.735 651.536 442.407C653.803 443.736 657.053 444.3 661.213 441.631C662.005 441.124 662.904 440.801 663.842 440.685C664.779 440.569 665.731 440.663 666.627 440.96C669.653 441.955 673.857 442.589 673.476 438.239C672.886 431.505 664.769 429.549 661.375 429.477C657.981 429.404 652.373 428.825 646.028 429.477C639.682 430.129 626.77 430.056 626.77 430.056C626.77 430.056 605.088 429.211 601.979 430.684Z" fill="#F8F8FA"/>
<path d="M687.352 470.125H584.364V510.477H687.352V470.125Z" fill="#C99398"/>
<path opacity="0.1" d="M671.091 463.5V470.125H631.235C631.167 470.117 631.099 470.11 631.031 470.106C630.694 470.081 630.355 470.088 630.019 470.125H599.42V464.218C602.754 464.611 606.117 465.11 609.431 465.097C613.83 465.078 618.177 464.195 622.584 464.432C637.996 465.261 653.688 465.507 669.037 463.742C669.72 463.664 670.406 463.581 671.091 463.5Z" fill="black"/>
<path opacity="0.1" d="M687.352 470.125V473.609C686.233 473.474 685.155 473.047 684.073 472.709C683.098 472.405 682.042 472.168 681.051 472.42C680.529 472.553 680.053 472.815 679.538 472.967C677.383 473.609 675.135 472.272 672.876 472.263C670.637 472.255 668.635 473.544 666.449 474.013C663.071 474.738 659.617 473.466 656.38 472.287C655.071 471.811 653.553 471.357 652.33 472.008C651.792 472.293 651.387 472.762 650.863 473.07C649.329 473.975 647.323 473.269 645.794 472.356C644.827 471.779 643.657 471.101 642.637 471.587C642.11 471.836 641.781 472.341 641.345 472.715C639.964 473.897 637.792 473.58 636.099 472.861C634.409 472.143 632.803 471.082 630.957 470.951C628.356 470.763 626.077 472.439 623.807 473.666C621.537 474.894 618.389 475.621 616.537 473.863C615.924 473.282 615.47 472.441 614.632 472.24C613.245 471.91 612.203 473.55 610.804 473.837C609.081 474.192 607.678 472.441 605.95 472.096C604.163 471.739 602.499 472.927 600.921 473.804C599.344 474.68 597.052 475.175 595.908 473.816C595.543 473.383 595.344 472.8 594.844 472.513C594.463 472.334 594.034 472.269 593.614 472.325C592.117 472.404 590.648 472.739 589.275 473.315C587.7 473.979 586.176 474.974 584.457 474.942C584.426 474.942 584.395 474.94 584.364 474.938V470.125H687.352Z" fill="black"/>
<path d="M609.296 465.646C601.434 465.679 593.315 462.749 585.903 465.355C583.214 466.301 580.487 468.538 580.77 471.36C580.895 472.317 581.355 473.201 582.069 473.856C582.783 474.511 583.705 474.895 584.676 474.942C586.387 474.975 587.904 473.943 589.471 473.257C590.837 472.659 592.299 472.311 593.789 472.229C594.208 472.173 594.634 472.241 595.014 472.426C595.51 472.722 595.709 473.327 596.072 473.776C597.211 475.183 599.49 474.671 601.06 473.762C602.63 472.854 604.287 471.623 606.065 471.993C607.783 472.35 609.179 474.165 610.895 473.797C612.285 473.499 613.322 471.802 614.703 472.144C615.539 472.35 615.989 473.221 616.6 473.825C618.441 475.644 621.574 474.892 623.833 473.62C626.092 472.348 628.359 470.613 630.948 470.806C632.785 470.944 634.382 472.043 636.066 472.786C637.75 473.53 639.912 473.858 641.285 472.636C641.72 472.248 642.048 471.724 642.571 471.465C643.585 470.963 644.751 471.666 645.712 472.263C647.233 473.208 649.231 473.94 650.757 473.002C651.277 472.683 651.681 472.197 652.215 471.902C653.433 471.227 654.945 471.698 656.247 472.192C659.467 473.412 662.905 474.73 666.267 473.979C668.441 473.493 670.435 472.159 672.662 472.167C674.909 472.175 677.146 473.561 679.291 472.896C679.804 472.738 680.277 472.467 680.796 472.329C681.784 472.068 682.832 472.313 683.804 472.629C685.094 473.048 686.378 473.6 687.734 473.604C689.091 473.608 690.575 472.871 690.899 471.562C691.148 470.559 690.664 469.52 690.06 468.68C687.867 465.63 684.064 464.061 680.316 463.643C676.568 463.226 672.792 463.808 669.047 464.251C653.66 466.068 637.929 465.815 622.482 464.961C618.063 464.717 613.706 465.628 609.296 465.646Z" fill="#F8F8FA"/>
<path d="M690.966 506.864H577.739V553.239H690.966V506.864Z" fill="#C99398"/>
<path opacity="0.1" d="M691.568 505.418C685.897 506.679 680.153 507.558 674.372 508.051C672.431 507.702 670.436 507.859 668.57 508.507C668.534 508.519 668.499 508.53 668.464 508.543C664.891 509.846 661.816 512.936 658.027 512.886C655.003 512.845 652.388 510.786 649.483 509.924C648.652 509.677 647.796 509.533 646.932 509.495C646.345 509.464 645.757 509.48 645.172 509.545C641.659 509.64 638.146 509.678 634.632 509.604C629.478 509.497 624.335 509.145 619.191 508.795C613.693 508.421 608.195 508.046 602.697 507.672C597.525 507.32 592.353 506.968 587.179 506.616C585.91 506.53 584.64 506.443 583.368 506.355C582 506.262 580.985 506.566 580.432 505.307C579.776 503.799 580.355 502.299 581.159 500.987C581.851 501.001 582.545 501.051 583.234 501.101C593.71 501.861 604.184 502.648 614.656 503.461L613.046 503.754C623.983 501.979 635.059 501.273 646.126 501.645C651.291 501.82 656.485 502.229 661.613 501.55C665.217 501.073 668.748 500.066 672.369 499.75C677.343 499.316 682.328 500.202 687.249 501.085C688.284 501.253 689.311 501.477 690.324 501.757C690.586 503.055 690.879 504.351 691.568 505.418Z" fill="black"/>
<path opacity="0.1" d="M690.966 506.864V511.226C689.554 511.018 688.17 510.812 687.312 511.81C686.909 512.281 686.753 512.92 686.362 513.402C685.554 514.393 683.977 514.391 682.824 513.828C681.674 513.266 680.796 512.281 679.804 511.471C678.225 510.209 676.351 509.365 674.356 509.017C672.361 508.669 670.31 508.829 668.393 509.481C664.825 510.738 661.754 513.717 657.971 513.669C654.95 513.629 652.339 511.644 649.438 510.812C647.796 510.354 646.072 510.263 644.39 510.547C642.709 510.832 641.112 511.483 639.714 512.456C637.66 513.907 635.719 516.16 633.218 515.873C631.907 515.722 630.805 514.873 629.692 514.166C627.452 512.748 624.935 511.82 622.307 511.443C621.161 511.281 619.945 511.233 618.889 511.705C617.558 512.303 616.698 513.623 615.461 514.398C612.59 516.195 608.868 514.573 605.91 512.924C602.949 511.276 599.286 509.589 596.354 511.283C595.663 511.681 595.071 512.25 594.341 512.57C590.216 514.371 586.166 507.431 581.934 508.965C580.979 509.311 580.218 510.057 579.279 510.442C578.791 510.639 578.262 510.713 577.739 510.657V506.864H690.966Z" fill="black"/>
<path d="M614.782 503.94C604.315 503.154 593.845 502.393 583.374 501.656C581.556 501.529 579.692 501.406 577.944 501.924C576.197 502.442 574.564 503.743 574.191 505.523C573.626 508.213 576.826 510.867 579.374 509.821C580.315 509.435 581.076 508.685 582.032 508.338C586.267 506.801 590.321 513.764 594.448 511.956C595.179 511.635 595.771 511.066 596.462 510.666C599.398 508.965 603.064 510.66 606.026 512.314C608.988 513.967 612.713 515.593 615.587 513.79C616.825 513.014 617.684 511.689 619.017 511.09C620.074 510.615 621.29 510.663 622.438 510.827C625.068 511.204 627.588 512.136 629.83 513.559C630.944 514.267 632.047 515.119 633.359 515.27C635.862 515.559 637.805 513.298 639.86 511.842C641.259 510.867 642.857 510.213 644.54 509.927C646.223 509.642 647.948 509.732 649.592 510.192C652.495 511.027 655.109 513.02 658.131 513.059C661.918 513.108 664.992 510.119 668.562 508.857C670.481 508.203 672.534 508.043 674.53 508.392C676.527 508.741 678.403 509.588 679.984 510.854C680.977 511.667 681.854 512.654 683.007 513.219C684.16 513.784 685.738 513.787 686.547 512.791C686.939 512.309 687.094 511.666 687.498 511.195C689.151 509.267 692.751 511.815 694.755 510.253C695.219 509.865 695.542 509.336 695.672 508.746C696.175 506.749 694.917 504.643 693.194 503.508C691.471 502.374 689.372 501.995 687.338 501.642C682.422 500.787 677.439 499.929 672.467 500.349C668.847 500.654 665.318 501.631 661.716 502.092C656.591 502.748 651.4 502.353 646.236 502.184C635.175 501.823 624.104 502.506 613.171 504.223" fill="#F8F8FA"/>
<path opacity="0.1" d="M690.966 540.474V551.375C686.632 551.596 682.298 551.815 677.963 552.033C670.963 552.388 663.956 552.742 656.95 552.607C651.028 552.491 645.119 552.027 639.2 551.843C626.753 551.458 614.271 552.322 601.86 551.331C597.887 551.014 593.927 550.508 589.948 550.283C585.879 550.059 581.799 550.117 577.739 550.458V540.187C578.113 540.157 578.488 540.148 578.863 540.161C580.826 540.225 582.756 540.689 584.532 541.525C585.92 542.179 587.235 543.067 588.749 543.328C592.686 544.004 596.107 540.303 600.093 540.008C603.303 539.772 606.187 541.752 608.941 543.409C609.471 543.726 610.061 544.046 610.67 543.956C611.18 543.881 611.601 543.534 612.016 543.229C615.945 540.345 621.931 540.695 625.49 544.019C625.877 544.378 626.262 544.783 626.773 544.917C627.783 545.184 628.689 544.313 629.49 543.643C633.828 540.004 640.513 541.098 645.491 543.811C646.413 544.313 647.434 544.884 648.452 544.621C649.134 544.446 649.66 543.925 650.205 543.481C654.444 540.021 660.82 540.664 665.78 542.991C666.26 543.216 666.766 543.459 667.291 543.4C667.923 543.326 668.407 542.842 668.893 542.437C670.081 541.478 671.517 540.87 673.035 540.682C674.554 540.495 676.095 540.736 677.483 541.378C678.266 541.752 678.992 542.258 679.824 542.512C682.193 543.232 684.6 541.767 686.964 541.026C688.258 540.623 689.611 540.437 690.966 540.474Z" fill="black"/>
<path d="M703.011 551.373C694.68 551.795 686.348 552.216 678.015 552.636C670.998 552.99 663.974 553.345 656.95 553.209C651.014 553.093 645.091 552.629 639.156 552.445C626.679 552.06 614.166 552.925 601.724 551.933C597.742 551.616 593.772 551.11 589.783 550.885C585.294 550.641 580.792 550.735 576.318 551.167C575.361 551.257 573.888 551.732 572.961 551.546C571.962 551.345 572.344 551.231 572.67 550.292C572.768 550.013 572.85 549.728 572.917 549.441C573.191 548.292 573.241 547.132 573.354 545.939C573.499 544.416 573.724 542.74 574.995 541.704C575.994 540.888 577.376 540.722 578.671 540.763C580.639 540.828 582.573 541.292 584.354 542.127C585.745 542.781 587.064 543.67 588.581 543.93C592.528 544.606 595.958 540.906 599.954 540.61C603.171 540.374 606.062 542.354 608.823 544.011C609.354 544.328 609.945 544.648 610.556 544.558C611.068 544.484 611.489 544.136 611.906 543.832C615.845 540.947 621.845 541.297 625.413 544.622C625.801 544.981 626.187 545.385 626.699 545.519C627.711 545.786 628.62 544.915 629.422 544.245C633.771 540.606 640.473 541.7 645.463 544.414C646.387 544.915 647.41 545.486 648.431 545.223C649.115 545.048 649.642 544.528 650.189 544.083C654.439 540.623 660.829 541.267 665.802 543.593C666.283 543.818 666.79 544.061 667.317 544.002C667.95 543.928 668.435 543.444 668.923 543.039C670.114 542.08 671.553 541.472 673.075 541.285C674.598 541.097 676.143 541.338 677.534 541.98C678.319 542.354 679.047 542.86 679.881 543.114C682.256 543.834 684.668 542.37 687.039 541.628C690.136 540.657 693.494 540.932 696.389 542.393C699.284 543.854 701.485 546.385 702.52 549.441C702.738 550.07 702.903 550.716 703.011 551.373Z" fill="#F8F8FA"/>
<path opacity="0.1" d="M703.011 551.464C694.68 551.865 686.348 552.266 678.015 552.665C670.998 553.002 663.974 553.34 656.95 553.21C651.014 553.1 645.091 552.659 639.156 552.484C626.679 552.117 614.166 552.94 601.724 551.997C597.742 551.695 593.772 551.214 589.783 550.999C585.294 550.767 580.792 550.857 576.318 551.268C575.361 551.353 573.888 551.805 572.961 551.628C571.962 551.436 572.344 551.328 572.67 550.435C572.768 550.169 572.85 549.899 572.917 549.625H702.52C702.738 550.224 702.903 550.839 703.011 551.464Z" fill="black"/>
<path d="M569.497 549.625H704.628C705.796 549.625 706.917 550.075 707.743 550.875C708.57 551.675 709.034 552.761 709.034 553.893V554.443H565.091V553.893C565.091 552.761 565.555 551.675 566.382 550.875C567.208 550.075 568.329 549.625 569.497 549.625Z" fill="#D4D5E0"/>
<path d="M602.966 434.5L602.878 434.473C602.688 434.416 602.488 434.523 602.432 434.712L601.995 436.161C601.938 436.35 602.045 436.549 602.235 436.606L602.323 436.632C602.513 436.689 602.713 436.582 602.77 436.393L603.207 434.944C603.264 434.755 603.156 434.556 602.966 434.5Z" fill="#EE4744"/>
<path d="M591.2 466.769L591.112 466.742C590.922 466.686 590.722 466.793 590.665 466.982L590.228 468.431C590.172 468.619 590.279 468.818 590.469 468.875L590.557 468.902C590.747 468.958 590.947 468.851 591.004 468.662L591.44 467.213C591.497 467.025 591.39 466.826 591.2 466.769Z" fill="#EE4744"/>
<path d="M578.599 504.134L578.51 504.108C578.321 504.051 578.121 504.158 578.064 504.347L577.627 505.796C577.57 505.985 577.678 506.184 577.867 506.24L577.956 506.267C578.145 506.324 578.345 506.217 578.402 506.028L578.839 504.579C578.896 504.39 578.788 504.191 578.599 504.134Z" fill="#EE4744"/>
<path d="M610.108 506.616L610.019 506.59C609.829 506.533 609.63 506.64 609.573 506.829L609.136 508.278C609.079 508.467 609.186 508.666 609.376 508.722L609.465 508.749C609.654 508.806 609.854 508.698 609.911 508.51L610.348 507.061C610.405 506.872 610.297 506.673 610.108 506.616Z" fill="#EE4744"/>
<path d="M628.816 505.218L628.727 505.191C628.537 505.134 628.338 505.242 628.281 505.43L627.844 506.879C627.787 507.068 627.894 507.267 628.084 507.324L628.173 507.35C628.362 507.407 628.562 507.3 628.619 507.111L629.056 505.662C629.113 505.473 629.005 505.274 628.816 505.218Z" fill="#EE4744"/>
<path d="M655.187 508.052L655.099 508.026C654.909 507.969 654.709 508.076 654.653 508.265L654.216 509.714C654.159 509.903 654.266 510.102 654.456 510.159L654.545 510.185C654.734 510.242 654.934 510.135 654.991 509.946L655.428 508.497C655.485 508.308 655.377 508.109 655.187 508.052Z" fill="#EE4744"/>
<path d="M673.224 503.91L673.135 503.883C672.945 503.827 672.746 503.934 672.689 504.123L672.252 505.572C672.195 505.76 672.302 505.959 672.492 506.016L672.581 506.043C672.77 506.099 672.97 505.992 673.027 505.803L673.464 504.354C673.521 504.166 673.413 503.967 673.224 503.91Z" fill="#EE4744"/>
<path d="M594.009 505.678L593.92 505.651C593.731 505.595 593.531 505.702 593.474 505.891L593.037 507.34C592.98 507.528 593.088 507.727 593.277 507.784L593.366 507.811C593.556 507.867 593.755 507.76 593.812 507.571L594.249 506.123C594.306 505.934 594.199 505.735 594.009 505.678Z" fill="#EE4744"/>
<path d="M632.249 509.442L632.16 509.416C631.971 509.359 631.771 509.466 631.714 509.655L631.277 511.104C631.22 511.293 631.328 511.492 631.517 511.548L631.606 511.575C631.795 511.632 631.995 511.525 632.052 511.336L632.489 509.887C632.546 509.698 632.438 509.499 632.249 509.442Z" fill="#EE4744"/>
<path d="M648.028 505.218L647.94 505.191C647.75 505.134 647.55 505.242 647.493 505.43L647.056 506.879C646.999 507.068 647.107 507.267 647.297 507.324L647.385 507.35C647.575 507.407 647.775 507.3 647.831 507.111L648.268 505.662C648.325 505.473 648.218 505.274 648.028 505.218Z" fill="#EE4744"/>
<path d="M681.353 503.91L681.265 503.883C681.075 503.827 680.875 503.934 680.818 504.123L680.382 505.572C680.325 505.76 680.432 505.959 680.622 506.016L680.71 506.043C680.9 506.099 681.1 505.992 681.157 505.803L681.594 504.354C681.65 504.166 681.543 503.967 681.353 503.91Z" fill="#EE4744"/>
<path d="M643.093 434.412L643.038 434.486C642.921 434.645 642.955 434.868 643.115 434.985L644.339 435.881C644.498 435.998 644.722 435.964 644.84 435.805L644.895 435.731C645.012 435.572 644.978 435.349 644.818 435.232L643.594 434.336C643.435 434.219 643.211 434.253 643.093 434.412Z" fill="#EE4744"/>
<path d="M633.267 433.681L633.212 433.755C633.095 433.914 633.129 434.137 633.289 434.254L634.513 435.15C634.672 435.267 634.896 435.233 635.014 435.074L635.068 435C635.186 434.841 635.152 434.617 634.992 434.501L633.768 433.604C633.609 433.488 633.384 433.522 633.267 433.681Z" fill="#EE4744"/>
<path d="M617.313 433.681L617.258 433.755C617.141 433.914 617.175 434.137 617.334 434.254L618.558 435.15C618.718 435.267 618.942 435.233 619.059 435.074L619.114 435C619.231 434.841 619.197 434.617 619.037 434.501L617.814 433.604C617.654 433.488 617.43 433.522 617.313 433.681Z" fill="#EE4744"/>
<path d="M596.059 466.042L596.004 466.116C595.887 466.275 595.921 466.498 596.081 466.615L597.304 467.511C597.464 467.628 597.688 467.594 597.805 467.435L597.86 467.361C597.977 467.202 597.943 466.979 597.784 466.862L596.56 465.966C596.401 465.849 596.176 465.883 596.059 466.042Z" fill="#EE4744"/>
<path d="M597.271 469.311L597.216 469.385C597.098 469.544 597.133 469.768 597.292 469.885L598.516 470.781C598.675 470.897 598.9 470.863 599.017 470.705L599.072 470.63C599.189 470.472 599.155 470.248 598.995 470.131L597.772 469.235C597.612 469.118 597.388 469.152 597.271 469.311Z" fill="#EE4744"/>
<path d="M623.498 466.302L623.443 466.376C623.326 466.535 623.36 466.758 623.52 466.875L624.744 467.771C624.903 467.888 625.127 467.854 625.245 467.695L625.299 467.621C625.417 467.462 625.382 467.238 625.223 467.122L623.999 466.225C623.84 466.109 623.615 466.143 623.498 466.302Z" fill="#EE4744"/>
<path d="M613.095 508.849L613.04 508.923C612.923 509.082 612.957 509.306 613.117 509.422L614.34 510.319C614.5 510.435 614.724 510.401 614.841 510.242L614.896 510.168C615.013 510.009 614.979 509.786 614.82 509.669L613.596 508.773C613.436 508.656 613.212 508.69 613.095 508.849Z" fill="#EE4744"/>
<path d="M651.905 467.987L651.85 468.061C651.733 468.22 651.767 468.444 651.926 468.56L653.15 469.456C653.309 469.573 653.534 469.539 653.651 469.38L653.706 469.306C653.823 469.147 653.789 468.924 653.629 468.807L652.406 467.911C652.246 467.794 652.022 467.828 651.905 467.987Z" fill="#EE4744"/>
<path d="M663.587 469.531L663.533 469.605C663.415 469.764 663.45 469.987 663.609 470.104L664.833 471C664.992 471.117 665.217 471.083 665.334 470.924L665.389 470.85C665.506 470.691 665.472 470.468 665.312 470.351L664.088 469.455C663.929 469.338 663.705 469.372 663.587 469.531Z" fill="#EE4744"/>
<path d="M660.052 504.266L659.998 504.341C659.88 504.499 659.914 504.723 660.074 504.84L661.298 505.736C661.457 505.853 661.681 505.818 661.799 505.66L661.854 505.585C661.971 505.427 661.937 505.203 661.777 505.086L660.553 504.19C660.394 504.073 660.17 504.108 660.052 504.266Z" fill="#EE4744"/>
<path d="M684.13 508.401L684.075 508.475C683.957 508.634 683.992 508.857 684.151 508.974L685.375 509.87C685.534 509.987 685.759 509.953 685.876 509.794L685.931 509.72C686.048 509.561 686.014 509.338 685.854 509.221L684.631 508.325C684.471 508.208 684.247 508.242 684.13 508.401Z" fill="#EE4744"/>
<path d="M602.468 506.034L602.413 506.109C602.296 506.267 602.33 506.491 602.49 506.608L603.714 507.504C603.873 507.621 604.097 507.587 604.215 507.428L604.269 507.353C604.387 507.195 604.352 506.971 604.193 506.854L602.969 505.958C602.81 505.842 602.585 505.876 602.468 506.034Z" fill="#EE4744"/>
<path d="M584.937 504.491L584.882 504.565C584.765 504.724 584.799 504.947 584.958 505.064L586.182 505.96C586.341 506.077 586.566 506.043 586.683 505.884L586.738 505.81C586.855 505.651 586.821 505.427 586.661 505.311L585.438 504.414C585.278 504.298 585.054 504.332 584.937 504.491Z" fill="#EE4744"/>
<path d="M619.727 507.192L619.672 507.267C619.555 507.425 619.589 507.649 619.749 507.766L620.972 508.662C621.132 508.779 621.356 508.745 621.473 508.586L621.528 508.511C621.645 508.353 621.611 508.129 621.452 508.012L620.228 507.116C620.069 506.999 619.844 507.034 619.727 507.192Z" fill="#EE4744"/>
<path d="M638.499 506.034L638.444 506.109C638.327 506.267 638.361 506.491 638.52 506.608L639.744 507.504C639.903 507.621 640.128 507.587 640.245 507.428L640.3 507.353C640.417 507.195 640.383 506.971 640.223 506.854L639 505.958C638.84 505.842 638.616 505.876 638.499 506.034Z" fill="#EE4744"/>
<path d="M663.98 435.493L663.927 435.418C663.812 435.257 663.588 435.219 663.427 435.333L662.188 436.208C662.026 436.322 661.988 436.545 662.102 436.706L662.156 436.781C662.27 436.942 662.494 436.98 662.656 436.866L663.895 435.991C664.056 435.877 664.095 435.654 663.98 435.493Z" fill="#EE4744"/>
<path d="M643.276 438.527L643.222 438.452C643.108 438.291 642.884 438.253 642.723 438.367L641.483 439.242C641.322 439.356 641.284 439.579 641.398 439.739L641.452 439.815C641.566 439.975 641.79 440.013 641.951 439.899L643.191 439.025C643.352 438.911 643.39 438.688 643.276 438.527Z" fill="#EE4744"/>
<path d="M609.035 468.388L608.982 468.313C608.868 468.152 608.644 468.114 608.482 468.228L607.243 469.102C607.082 469.216 607.043 469.439 607.158 469.6L607.211 469.675C607.326 469.836 607.549 469.874 607.711 469.76L608.95 468.885C609.112 468.771 609.15 468.549 609.035 468.388Z" fill="#EE4744"/>
<path d="M619.388 469.402L619.335 469.327C619.22 469.166 618.997 469.128 618.835 469.242L617.596 470.116C617.434 470.23 617.396 470.453 617.511 470.614L617.564 470.689C617.679 470.85 617.902 470.888 618.064 470.774L619.303 469.899C619.465 469.785 619.503 469.563 619.388 469.402Z" fill="#EE4744"/>
<path d="M639.401 469.402L639.347 469.327C639.233 469.166 639.009 469.128 638.848 469.242L637.608 470.116C637.447 470.23 637.409 470.453 637.523 470.614L637.577 470.689C637.691 470.85 637.915 470.888 638.076 470.774L639.316 469.899C639.477 469.785 639.515 469.563 639.401 469.402Z" fill="#EE4744"/>
<path d="M645.657 467.287L645.604 467.212C645.489 467.051 645.265 467.013 645.104 467.127L643.865 468.002C643.703 468.116 643.665 468.339 643.779 468.5L643.833 468.575C643.947 468.736 644.171 468.774 644.333 468.66L645.572 467.785C645.733 467.671 645.772 467.448 645.657 467.287Z" fill="#EE4744"/>
<path d="M660.465 468.078L660.412 468.002C660.297 467.842 660.074 467.804 659.912 467.918L658.673 468.792C658.511 468.906 658.473 469.129 658.588 469.29L658.641 469.365C658.756 469.526 658.979 469.564 659.141 469.45L660.38 468.575C660.542 468.461 660.58 468.238 660.465 468.078Z" fill="#EE4744"/>
<path d="M671.27 466.392L671.217 466.317C671.103 466.156 670.879 466.118 670.717 466.232L669.478 467.107C669.317 467.221 669.278 467.443 669.393 467.604L669.446 467.679C669.561 467.84 669.784 467.878 669.946 467.764L671.185 466.89C671.347 466.776 671.385 466.553 671.27 466.392Z" fill="#EE4744"/>
<path d="M685.941 467.287L685.888 467.212C685.774 467.051 685.55 467.013 685.388 467.127L684.149 468.002C683.987 468.116 683.949 468.339 684.064 468.5L684.117 468.575C684.232 468.736 684.455 468.774 684.617 468.66L685.856 467.785C686.018 467.671 686.056 467.448 685.941 467.287Z" fill="#EE4744"/>
<path d="M640.348 432.864L640.259 432.837C640.069 432.78 639.87 432.888 639.813 433.076L639.376 434.525C639.319 434.714 639.426 434.913 639.616 434.97L639.705 434.996C639.894 435.053 640.094 434.946 640.151 434.757L640.588 433.308C640.645 433.119 640.537 432.92 640.348 432.864Z" fill="#EE4744"/>
<path d="M652.481 432.327L652.393 432.301C652.203 432.244 652.003 432.351 651.946 432.54L651.51 433.989C651.453 434.178 651.56 434.377 651.75 434.433L651.838 434.46C652.028 434.517 652.228 434.41 652.285 434.221L652.722 432.772C652.778 432.583 652.671 432.384 652.481 432.327Z" fill="#EE4744"/>
<path d="M635.823 437.213L635.735 437.187C635.545 437.13 635.345 437.237 635.288 437.426L634.851 438.875C634.794 439.064 634.902 439.263 635.092 439.32L635.18 439.346C635.37 439.403 635.57 439.296 635.626 439.107L636.063 437.658C636.12 437.469 636.013 437.27 635.823 437.213Z" fill="#EE4744"/>
<path d="M612.09 438.08L612.001 438.054C611.812 437.997 611.612 438.104 611.555 438.293L611.118 439.742C611.061 439.931 611.169 440.13 611.358 440.186L611.447 440.213C611.637 440.27 611.836 440.162 611.893 439.974L612.33 438.525C612.387 438.336 612.28 438.137 612.09 438.08Z" fill="#EE4744"/>
<path d="M654.343 436.13L654.254 436.104C654.065 436.047 653.865 436.154 653.808 436.343L653.371 437.792C653.314 437.98 653.422 438.179 653.611 438.236L653.7 438.263C653.889 438.319 654.089 438.212 654.146 438.023L654.583 436.575C654.64 436.386 654.532 436.187 654.343 436.13Z" fill="#EE4744"/>
<path d="M610.108 432.864L610.019 432.837C609.829 432.78 609.63 432.888 609.573 433.076L609.136 434.525C609.079 434.714 609.186 434.913 609.376 434.97L609.465 434.996C609.654 435.053 609.854 434.946 609.911 434.757L610.348 433.308C610.405 433.119 610.297 432.92 610.108 432.864Z" fill="#EE4744"/>
<path d="M622.574 435.047L622.485 435.02C622.296 434.963 622.096 435.071 622.039 435.259L621.602 436.708C621.545 436.897 621.653 437.096 621.842 437.153L621.931 437.179C622.121 437.236 622.32 437.129 622.377 436.94L622.814 435.491C622.871 435.302 622.764 435.103 622.574 435.047Z" fill="#EE4744"/>
<path d="M614.959 466.769L614.871 466.742C614.681 466.686 614.481 466.793 614.424 466.982L613.988 468.431C613.931 468.619 614.038 468.818 614.228 468.875L614.316 468.902C614.506 468.958 614.706 468.851 614.763 468.662L615.199 467.213C615.256 467.025 615.149 466.826 614.959 466.769Z" fill="#EE4744"/>
<path d="M633.585 466.769L633.496 466.742C633.306 466.685 633.107 466.793 633.05 466.981L632.613 468.43C632.556 468.619 632.663 468.818 632.853 468.875L632.942 468.901C633.131 468.958 633.331 468.851 633.388 468.662L633.825 467.213C633.882 467.024 633.774 466.825 633.585 466.769Z" fill="#EE4744"/>
<path d="M676.828 467.631L676.739 467.604C676.55 467.547 676.35 467.655 676.293 467.843L675.856 469.292C675.799 469.481 675.907 469.68 676.096 469.737L676.185 469.763C676.375 469.82 676.574 469.713 676.631 469.524L677.068 468.075C677.125 467.886 677.018 467.687 676.828 467.631Z" fill="#EE4744"/>
<path d="M681.355 467.63L681.266 467.604C681.077 467.547 680.877 467.654 680.82 467.843L680.383 469.292C680.326 469.481 680.434 469.68 680.623 469.737L680.712 469.763C680.901 469.82 681.101 469.713 681.158 469.524L681.595 468.075C681.652 467.886 681.544 467.687 681.355 467.63Z" fill="#EE4744"/>
<path d="M627.551 438.08L627.463 438.054C627.273 437.997 627.073 438.104 627.016 438.293L626.579 439.742C626.522 439.931 626.63 440.13 626.82 440.186L626.908 440.213C627.098 440.27 627.298 440.162 627.354 439.974L627.791 438.525C627.848 438.336 627.741 438.137 627.551 438.08Z" fill="#EE4744"/>
<path opacity="0.1" d="M580.833 511.08C580.833 511.08 579.173 513.526 579.623 513.488C580.072 513.451 581.352 512.058 581.352 512.058L580.833 511.08Z" fill="black"/>
<path opacity="0.1" d="M581.352 513.489C581.352 513.489 579.475 515.366 579.548 515.844C579.62 516.321 581.352 513.489 581.352 513.489Z" fill="black"/>
<path opacity="0.1" d="M581.955 514.091C581.955 514.091 580.178 516.541 580.94 517.051C581.701 517.561 581.955 514.091 581.955 514.091Z" fill="black"/>
<path opacity="0.1" d="M580.149 508.67C580.149 508.67 579.024 510.315 579.846 510.427C580.668 510.54 580.75 510.427 580.75 510.427L580.149 508.67Z" fill="black"/>
<path opacity="0.1" d="M580.148 503.25C579.936 504.076 579.646 504.882 579.281 505.659C579.145 505.263 579.032 504.859 578.943 504.451C579.302 504.014 579.705 503.612 580.148 503.25Z" fill="black"/>
<path opacity="0.1" d="M606.648 514.091C606.648 514.091 603.186 515.796 602.515 515.886C601.844 515.976 605.447 515.52 605.447 515.52L606.648 514.091Z" fill="black"/>
<path opacity="0.1" d="M609.659 515.295C609.659 515.295 605.054 516.565 603.034 516.334C603.034 516.334 608.065 517.113 609.659 515.295Z" fill="black"/>
<g opacity="0.1">
<path opacity="0.1" d="M596.302 490.529C596.255 490.367 596.202 490.207 596.146 490.047C596.193 490.209 596.246 490.37 596.302 490.529Z" fill="black"/>
</g>
<path d="M649.934 505.057L649.409 504.412C650.443 503.557 650.491 498.269 649.975 495.402C649.616 493.412 649.561 491.706 649.808 490.187C650.2 487.767 651.35 485.975 653.226 484.861C657.117 482.55 659.45 476.211 659.473 476.148L660.25 476.434C660.152 476.705 657.794 483.116 653.645 485.58C650.888 487.217 649.927 490.472 650.788 495.253C651.195 497.506 651.537 503.73 649.934 505.057Z" fill="#D4D5E0"/>
<path d="M671.807 473.19C674.421 466.987 672.176 460.24 666.791 458.119C661.406 455.998 654.922 459.307 652.307 465.509C649.768 471.531 651.812 478.067 656.861 480.383C656.522 480.984 656.01 481.477 655.388 481.804C654.295 482.297 657.848 482.773 657.848 482.773C657.854 482.125 657.967 481.483 658.184 480.87C663.381 482.342 669.33 479.065 671.807 473.19Z" fill="#EE4744"/>
<path opacity="0.2" d="M653.541 471.493C653.658 468.784 655.289 466.633 657.239 466.537C657.154 466.526 657.069 466.518 656.983 466.514C654.922 466.424 653.152 468.644 653.029 471.471C652.911 474.216 654.389 476.525 656.362 476.739C656.327 476.944 653.423 474.234 653.541 471.493Z" fill="white"/>
<path d="M681.854 547.216L681.33 546.571C682.363 545.716 682.412 540.428 681.895 537.561C681.536 535.572 681.482 533.866 681.728 532.346C682.12 529.926 683.27 528.134 685.146 527.02C689.037 524.709 691.37 518.371 691.393 518.307L692.17 518.593C692.072 518.865 689.714 525.275 685.566 527.739C682.808 529.376 681.847 532.631 682.709 537.412C683.115 539.665 683.457 545.889 681.854 547.216Z" fill="#D4D5E0"/>
<path d="M703.155 515.349C705.697 509.146 703.514 502.399 698.279 500.278C693.044 498.157 686.739 501.466 684.197 507.668C681.729 513.69 683.716 520.226 688.625 522.542C688.295 523.143 687.798 523.636 687.193 523.963C686.129 524.456 689.585 524.932 689.585 524.932C689.59 524.284 689.7 523.642 689.911 523.029C694.964 524.501 700.747 521.224 703.155 515.349Z" fill="#EE4744"/>
<path opacity="0.2" d="M685.462 513.652C685.579 510.943 687.209 508.792 689.159 508.696C689.075 508.685 688.99 508.677 688.904 508.673C686.842 508.583 685.072 510.803 684.95 513.63C684.831 516.375 686.31 518.684 688.283 518.898C688.248 519.103 685.343 516.393 685.462 513.652Z" fill="white"/>
<path d="M633.07 465.909L632.545 465.264C633.579 464.409 633.628 459.121 633.111 456.254C632.752 454.265 632.698 452.559 632.944 451.039C633.336 448.619 634.486 446.827 636.362 445.713C640.253 443.402 642.586 437.064 642.609 437L643.386 437.286C643.288 437.558 640.93 443.968 636.782 446.432C634.024 448.069 633.063 451.324 633.925 456.105C634.331 458.358 634.673 464.582 633.07 465.909Z" fill="#D4D5E0"/>
<path d="M654.973 434.042C657.515 427.84 655.332 421.092 650.097 418.971C644.862 416.85 638.557 420.159 636.015 426.362C633.547 432.384 635.534 438.919 640.443 441.235C640.113 441.836 639.616 442.329 639.011 442.656C637.948 443.15 641.403 443.625 641.403 443.625C641.408 442.977 641.518 442.335 641.729 441.722C646.782 443.195 652.565 439.917 654.973 434.042Z" fill="#EE4744"/>
<path opacity="0.2" d="M636.677 431.743C636.795 429.034 638.425 426.883 640.375 426.787C640.291 426.776 640.206 426.768 640.12 426.764C638.058 426.674 636.288 428.894 636.166 431.721C636.047 434.466 637.526 436.775 639.499 436.989C639.464 437.194 636.559 434.484 636.677 431.743Z" fill="white"/>
</svg>
