<svg width="68" height="48" viewBox="0 0 68 48" fill="none" xmlns="http://www.w3.org/2000/svg">
<path d="M65.7253 31.8346C65.6544 31.8346 65.5835 31.8346 65.5835 31.8346C64.52 31.9055 63.5982 32.1891 62.7474 32.6854C62.322 32.3309 61.8257 32.1182 61.2585 32.1182H61.0458C64.5909 30.9129 67.1433 27.5096 67.1433 23.5391C67.1433 20.774 65.8671 18.1507 63.74 16.449V10.9897C63.74 10.9188 63.74 10.8479 63.74 10.8479V4.96307C63.74 3.33235 62.3929 1.98523 60.7622 1.98523H59.3442C59.2733 0.850813 58.3516 0 57.2171 0H57.0753C55.9409 0 55.0192 0.850813 54.9483 1.98523H46.582C46.5111 0.850813 45.5894 0 44.455 0H44.3132C43.1787 0 42.257 0.850813 42.1861 1.98523H40.7681C39.1374 1.98523 37.7903 3.33235 37.7903 4.96307V10.777C37.7903 10.8479 37.7903 10.9188 37.7903 10.9188V26.2334C37.7903 27.8641 39.1374 29.2112 40.7681 29.2112H50.9779C52.325 30.8419 54.1684 31.9764 56.2954 32.4018C56.1536 32.4727 56.0118 32.6145 55.87 32.7563C55.5864 33.0399 55.3737 33.3944 55.3028 33.8198C54.1684 32.8272 52.2541 31.8346 49.2053 31.8346C47.2201 31.8346 45.4476 32.26 44.1005 33.1108C43.675 32.5436 43.0369 32.1891 42.257 32.1891H38.4284C37.4357 32.1891 36.5849 32.8272 36.3013 33.7489C36.1595 34.4579 35.9468 35.1669 35.7341 35.8759C35.5214 35.1669 35.3087 34.4579 35.0251 33.678C34.7415 32.7563 33.8907 32.1182 32.8981 32.1182H30.842C31.9055 30.9129 32.6854 29.1403 33.5362 27.0133L37.223 17.6544C37.5067 17.0162 37.3648 16.3072 37.0103 15.74C36.5849 15.1728 35.9468 14.8183 35.2378 14.8183H31.1965C30.2747 14.8183 29.4239 15.3855 29.2112 16.3072C28.9985 16.9453 28.7858 17.6544 28.5731 18.3634C28.3604 17.7253 28.1477 17.0162 27.8641 16.2363C27.5805 15.3855 26.7297 14.8183 25.8789 14.8183H21.483C20.9158 14.8183 20.4195 15.031 20.065 15.3855C19.1433 14.8183 18.0798 14.5347 16.8035 14.5347C15.4564 14.5347 14.1802 14.8892 13.1876 15.5982C12.2659 14.8892 11.1315 14.5347 9.71344 14.5347C8.50813 14.5347 7.58641 14.8183 6.8774 15.1728C6.5938 14.9601 6.16839 14.8183 5.74298 14.8183H1.98523C1.41802 14.8183 0.921714 15.031 0.567208 15.3855C0.212703 15.74 0 16.3072 0 16.8744C0 17.5835 0 18.2925 0 19.0015V19.7105V28.0059C0 29.1403 0.921714 30.062 1.98523 30.062H5.81389C6.5938 30.062 7.30281 29.5657 7.58641 28.9276C7.94092 29.6366 8.57903 30.062 9.35894 30.062H13.1876C13.9675 30.062 14.6765 29.5657 14.9601 28.9276C15.3146 29.6366 15.9527 30.062 16.7326 30.062H20.5613C20.7031 30.062 20.774 30.062 20.9158 30.062V32.1891C20.9158 32.5436 20.9867 32.8981 21.1994 33.2526C20.1359 32.26 18.5761 31.6928 16.7326 31.6928C15.5273 31.6928 14.3929 31.9055 13.4712 32.4018C13.1167 32.1891 12.7622 32.0473 12.2659 32.0473H8.08272C7.51551 32.0473 7.0192 32.26 6.6647 32.6854C6.31019 33.1108 6.09749 33.6071 6.09749 34.1743C6.09749 34.9542 6.09749 36.0177 6.09749 36.8685V45.3767C6.09749 46.5111 7.0192 47.4328 8.15362 47.4328H12.4077C13.4712 47.4328 14.322 46.6529 14.3929 45.5894H14.8183C14.9601 46.582 15.8109 47.4328 16.8035 47.4328H21.1285C21.4121 47.4328 21.6957 47.3619 21.9084 47.291C22.2629 47.5746 22.7592 47.7164 23.1846 47.7164H26.8006C28.0768 47.7164 29.1403 46.6529 29.1403 45.3767V42.0443L30.7711 46.2984C31.1256 47.1492 31.9055 47.7164 32.8272 47.7164H37.9321C38.8538 47.7164 39.6337 47.1492 39.9882 46.2984L41.0517 43.6041C42.1861 46.0857 44.6677 48 49.1344 48C51.7578 48 53.743 47.4328 55.2319 46.2275C55.5155 47.0783 56.3663 47.7164 57.288 47.7164H61.2585C62.4638 47.7164 63.4564 46.7238 63.4564 45.5185V42.1152C63.4564 41.4062 63.5273 40.5554 63.9527 40.2009C64.2364 39.9173 64.8036 39.7755 65.6544 39.7755C66.8597 39.7755 67.7814 38.7829 67.7814 37.5775V34.3161C67.9232 32.8272 66.9306 31.8346 65.7253 31.8346Z" fill="white"/>
<path d="M16.8032 16.3072C15.0307 16.3072 13.9672 17.0162 13.3291 17.6543C13.1873 17.8671 12.9037 17.7962 12.7619 17.5834C12.2656 16.8744 11.3439 16.2363 9.64223 16.2363C8.36601 16.2363 7.37339 16.6617 6.73529 17.2289C6.52258 17.4416 6.16808 17.2289 6.09718 16.9453C6.09718 16.7326 5.88447 16.5908 5.67177 16.5908H1.98492C1.77221 16.5908 1.55951 16.8035 1.55951 17.0162C1.55951 17.938 1.55951 18.9306 1.55951 19.8523V28.1477C1.55951 28.3604 1.70131 28.5731 1.98492 28.5731H5.81357C6.02628 28.5731 6.23898 28.3604 6.23898 28.1477V21.8375C6.23898 20.3486 6.73529 19.5687 7.7279 19.5687C8.86232 19.5687 9.07502 20.5613 9.07502 21.4121V28.1477C9.07502 28.3604 9.21682 28.5731 9.50043 28.5731H13.3291C13.5418 28.5731 13.7545 28.3604 13.7545 28.1477V21.8375C13.7545 20.2777 14.3217 19.6396 15.2434 19.6396C16.3069 19.6396 16.5905 20.6322 16.5905 21.5539V28.1477C16.5905 28.3604 16.7323 28.5731 17.0159 28.5731H20.8446C21.0573 28.5731 21.27 28.3604 21.27 28.1477V21.2703C21.0573 17.8671 19.3557 16.3072 16.8032 16.3072Z" fill="#EE4744"/>
<path d="M35.2375 16.5908H31.1962C30.9835 16.5908 30.7708 16.7326 30.6999 16.9453C29.7073 20.2777 28.9982 23.3264 28.7146 24.5317H28.5728C28.431 23.7518 27.7929 21.1285 26.304 16.9453C26.2331 16.7326 26.0204 16.5908 25.8077 16.5908H21.4118C21.0573 16.5908 20.7737 16.9453 20.9155 17.2998L25.8077 28.2186C25.8786 28.3604 25.8786 28.5731 25.7368 28.7149C25.3823 29.2821 24.8151 29.7075 23.6098 29.7075C23.3971 29.7075 23.2553 29.7075 23.0426 29.7075C22.759 29.7075 22.5463 29.9202 22.5463 30.2038V32.3309C22.5463 32.6145 22.759 32.8272 23.0426 32.8272C23.5389 32.8981 24.2479 32.8981 24.886 32.8981C29.2109 32.8981 30.2036 31.2673 32.047 26.6588L35.7338 17.2998C35.8756 16.9453 35.592 16.5908 35.2375 16.5908Z" fill="#EE4744"/>
<path d="M62.18 5.17583C62.18 4.39592 61.5419 3.75781 60.762 3.75781H40.7679C39.988 3.75781 39.3499 4.39592 39.3499 5.17583V11.0606H62.18V5.17583ZM55.9407 7.58647C55.9407 8.01187 55.5862 8.29548 55.2317 8.29548H46.2273C45.8019 8.29548 45.5182 7.94097 45.5182 7.58647V7.37376C45.5182 6.94836 45.8728 6.66475 46.2273 6.66475H55.2317C55.6571 6.66475 55.9407 7.01926 55.9407 7.37376V7.58647Z" fill="#EE4744"/>
<path d="M58.0677 16.3074C53.9554 16.3074 50.623 19.6397 50.623 23.752C50.623 27.8642 53.9554 31.2675 58.0677 31.2675C62.1799 31.2675 65.5123 27.9351 65.5123 23.8229C65.5123 19.7106 62.1799 16.3074 58.0677 16.3074ZM61.0455 28.6442C61.0455 28.8569 60.9037 28.9987 60.691 28.9987H55.7279C55.5152 28.9987 55.3734 28.8569 55.3734 28.6442V27.2261C55.3734 27.0134 55.5152 26.8716 55.7279 26.8716H56.7914V24.7446H55.7279C55.5152 24.7446 55.3734 24.6028 55.3734 24.3901V22.9721C55.3734 22.7594 55.5152 22.6176 55.7279 22.6176C56.2951 22.6176 56.7914 22.1213 56.7914 21.554C56.7914 21.3413 56.9332 21.1995 57.1459 21.1995H57.855V20.9159C57.4295 20.7741 57.1459 20.3487 57.1459 19.9233C57.1459 19.7106 57.2168 19.5688 57.2877 19.3561L57.9259 18.2926C57.9968 18.1508 58.1386 18.0799 58.2095 18.0799C58.3513 18.0799 58.4222 18.1508 58.4931 18.2926L59.1312 19.3561C59.2021 19.4979 59.273 19.7106 59.273 19.9233C59.273 20.4196 58.9894 20.7741 58.564 20.9159V21.1995H59.273C59.4857 21.1995 59.6275 21.3413 59.6275 21.554V26.8716H60.691C60.9037 26.8716 61.0455 27.0134 61.0455 27.2261V28.6442Z" fill="#EE4744"/>
<path d="M58.9184 27.226V21.9084H57.4295C57.2877 22.6175 56.7205 23.1847 56.0115 23.3265V24.1064H57.075C57.2877 24.1064 57.4295 24.2482 57.4295 24.4609V27.2969C57.4295 27.5096 57.2877 27.6514 57.075 27.6514H56.0115V28.3604H60.2655V27.6514H59.202C59.0602 27.5805 58.9184 27.3678 58.9184 27.226Z" fill="#EE4744"/>
<path d="M26.9422 33.9617H23.3263C22.9009 33.9617 22.6172 34.3162 22.6172 34.6707V45.2349C22.6172 45.6603 22.9718 45.9439 23.3263 45.9439H26.9422C27.3676 45.9439 27.6512 45.5894 27.6512 45.2349V34.6707C27.6512 34.3162 27.2967 33.9617 26.9422 33.9617Z" fill="#45C1C8"/>
<path d="M42.2568 33.9617H38.4282C38.1445 33.9617 37.9318 34.1035 37.8609 34.3871C36.7974 37.9321 36.1593 40.4137 35.7339 42.1153H35.663C35.2376 40.201 34.6704 38.2157 33.4651 34.3871C33.3942 34.1035 33.1815 33.9617 32.8979 33.9617H28.7856C28.3602 33.9617 28.0766 34.3871 28.2184 34.8125L32.4016 45.6603C32.4725 45.873 32.6852 46.0148 32.9688 46.0148H38.0736C38.3573 46.0148 38.57 45.873 38.6409 45.6603L42.824 34.8125C43.0367 34.3871 42.6822 33.9617 42.2568 33.9617Z" fill="#45C1C8"/>
<path d="M49.2052 33.6072C44.2421 33.6072 42.0442 36.585 42.0442 39.9174C42.0442 43.037 43.7458 46.2985 49.2761 46.2985C53.1756 46.2985 54.9482 44.8095 55.799 43.1079C56.0117 42.6825 55.7281 42.2571 55.2318 42.2571H51.474C51.2613 42.2571 51.1195 42.328 50.9777 42.4698C50.6232 42.8952 50.1978 43.1788 49.2052 43.1788C48.1417 43.1788 47.5036 42.6825 47.22 41.9026C47.0782 41.5481 47.3618 41.1227 47.7872 41.1227H55.6572C56.0117 41.1227 56.2244 40.8391 56.2244 40.5555C56.2244 40.3428 56.2244 40.201 56.2244 40.0592C56.2953 36.8686 54.3101 33.6072 49.2052 33.6072ZM50.6232 38.4993H47.929C47.5036 38.4993 47.22 38.0739 47.3618 37.6485C47.6454 37.0104 48.2126 36.585 49.347 36.585C50.4814 36.585 50.9777 37.0813 51.1904 37.6485C51.3322 38.0739 51.0486 38.4993 50.6232 38.4993Z" fill="#45C1C8"/>
<path d="M65.7251 33.678C64.378 33.7489 63.5271 34.2452 62.889 34.8833C62.5345 35.2378 61.9673 35.0251 61.8964 34.5288C61.8964 34.2452 61.6128 33.9616 61.3292 33.9616H57.5006C57.146 33.9616 56.9333 34.2452 56.9333 34.5288C56.9333 35.4505 56.9333 36.4431 56.9333 37.4357V45.4475C56.9333 45.8021 57.217 46.0148 57.5006 46.0148H61.471C61.8255 46.0148 62.0382 45.7312 62.0382 45.4475V42.0443C62.0382 38.9956 63.3853 38.1447 65.796 38.0738C66.1505 38.0738 66.3632 37.7902 66.3632 37.5066V34.2452C66.3632 33.8907 66.0796 33.678 65.7251 33.678Z" fill="#45C1C8"/>
<path d="M16.8744 33.3945C15.2437 33.3945 14.2511 33.8908 13.5421 34.3871C13.2585 34.5998 12.9039 34.458 12.833 34.1035C12.833 33.8908 12.6203 33.749 12.4076 33.749H8.22448C8.01177 33.749 7.79907 33.9617 7.79907 34.1744C7.79907 34.9544 7.79907 36.0179 7.79907 36.8687V45.3768C7.79907 45.5895 8.01177 45.8022 8.22448 45.8022H12.4785C12.6912 45.8022 12.9039 45.5895 12.9039 45.3768V39.492C12.9039 37.6486 13.5421 36.8687 14.7474 36.8687C15.9527 36.8687 16.3781 37.7904 16.3781 38.8539V45.3768C16.3781 45.5895 16.5908 45.8022 16.8035 45.8022H21.1285C21.3412 45.8022 21.5539 45.5895 21.5539 45.3768V38.3576C21.5539 35.238 19.9232 33.3945 16.8744 33.3945Z" fill="#45C1C8"/>
<path d="M54.0974 17.5127L54.0265 17.5836C54.0265 17.5127 54.0265 17.5127 54.0974 17.5127Z" fill="#F38282"/>
<path d="M44.4549 1.84351H44.3131C44.0295 1.84351 43.8168 2.05621 43.8168 2.33981V5.31766C43.8168 5.60126 44.0295 5.81396 44.3131 5.81396H44.4549C44.7385 5.81396 44.9512 5.60126 44.9512 5.31766V2.33981C44.9512 2.05621 44.7385 1.84351 44.4549 1.84351Z" fill="#EE4744"/>
<path d="M57.2171 1.84351H57.0753C56.7917 1.84351 56.579 2.05621 56.579 2.33981V5.31766C56.579 5.60126 56.7917 5.81396 57.0753 5.81396H57.2171C57.5007 5.81396 57.7134 5.60126 57.7134 5.31766V2.33981C57.7134 2.05621 57.5007 1.84351 57.2171 1.84351Z" fill="#EE4744"/>
<path d="M39.3499 11.2026V26.5173C39.3499 27.2972 39.988 27.9353 40.7679 27.9353H51.8284C51.7575 27.7935 51.6157 27.6517 51.5448 27.5099C51.4739 27.439 51.4739 27.3681 51.4739 27.2972C51.4739 27.2972 51.4739 27.2263 51.403 27.2263C51.3321 27.0136 51.1903 26.8009 51.1194 26.5882C51.1194 26.5173 51.1194 26.5173 51.0485 26.4464C51.0485 26.3755 50.9776 26.3046 50.9776 26.3046C50.9776 26.2337 50.9776 26.2337 50.9067 26.1628C50.9067 26.0919 50.9067 26.0919 50.8358 26.021C50.8358 25.9501 50.7649 25.8083 50.7649 25.7374C50.7649 25.6664 50.7649 25.6664 50.7649 25.5955C50.7649 25.5246 50.7649 25.4537 50.694 25.3828C50.694 25.3119 50.694 25.3119 50.694 25.241C50.694 25.1701 50.694 25.0992 50.6231 25.0283V24.9574C50.6231 24.8156 50.6231 24.7447 50.5522 24.6029V24.532C50.5522 24.4611 50.5522 24.3902 50.5522 24.2484V24.1775C50.5522 24.0357 50.5522 23.9648 50.5522 23.823C50.5522 23.6812 50.5522 23.6103 50.5522 23.4685V23.3976C50.5522 23.3267 50.5522 23.2558 50.5522 23.114V23.0431C50.5522 22.9013 50.5522 22.8304 50.6231 22.6886V22.6177C50.6231 22.5468 50.6231 22.4759 50.694 22.405C50.694 22.3341 50.694 22.3341 50.694 22.2632C50.694 22.1923 50.694 22.1214 50.7649 22.0505C50.7649 21.9796 50.8358 21.9087 50.8358 21.8378C50.8358 21.7669 50.8358 21.696 50.9067 21.696C50.9067 21.6251 50.9776 21.5542 50.9776 21.4833C50.9776 21.4124 50.9776 21.4124 51.0485 21.3415C51.0485 21.2706 51.1194 21.1997 51.1194 21.1288C51.1903 20.987 51.2612 20.8452 51.3321 20.7034C51.3321 20.6325 51.403 20.5616 51.4739 20.4907C51.6157 20.278 51.6866 20.0653 51.8284 19.8526V18.6472C51.8284 18.2218 52.1829 17.8673 52.6083 17.8673H53.6719C53.7428 17.7964 53.8137 17.7964 53.8137 17.7255L53.8846 17.6546C53.9555 17.5837 54.0264 17.5837 54.0264 17.5128C54.0973 17.5128 54.0973 17.4419 54.1682 17.4419C54.2391 17.4419 54.31 17.371 54.31 17.371C54.3809 17.371 54.3809 17.3001 54.4518 17.3001C54.5227 17.3001 54.5936 17.2292 54.5936 17.2292C54.6645 17.2292 54.6645 17.1583 54.7354 17.1583C54.8063 17.0874 54.9481 17.0874 55.019 17.0165C55.0899 17.0165 55.0899 16.9456 55.1608 16.9456C55.2317 16.9456 55.2317 16.8747 55.3026 16.8747C55.3735 16.8747 55.3735 16.8038 55.4444 16.8038C55.5153 16.8038 55.5153 16.7329 55.5862 16.7329C55.6571 16.7329 55.728 16.662 55.728 16.662C55.7989 16.662 55.7989 16.662 55.8698 16.5911C55.9407 16.5911 56.0116 16.5202 56.0825 16.5202C56.1534 16.5202 56.1534 16.5202 56.2243 16.5202C56.3661 16.5202 56.437 16.4493 56.5788 16.4493C56.6497 16.4493 56.6497 16.4493 56.7206 16.4493C56.7915 16.4493 56.8624 16.4493 56.9333 16.3784C57.0042 16.3784 57.0042 16.3784 57.0751 16.3784C57.146 16.3784 57.2169 16.3784 57.2878 16.3784C57.3587 16.3784 57.3587 16.3784 57.4296 16.3784C57.5005 16.3784 57.5714 16.3784 57.6423 16.3784C57.7132 16.3784 57.7132 16.3784 57.7841 16.3784C57.9259 16.3784 57.9968 16.3784 58.1386 16.3784C58.2804 16.3784 58.3513 16.3784 58.4931 16.3784H58.564C58.6349 16.3784 58.7058 16.3784 58.8476 16.3784H58.9185C59.0603 16.3784 59.1312 16.3784 59.273 16.4493H59.3439C59.4148 16.4493 59.4857 16.4493 59.5566 16.5202C59.6275 16.5202 59.6276 16.5202 59.6985 16.5202C59.7694 16.5202 59.8403 16.5202 59.9112 16.5911C59.9821 16.5911 59.9821 16.5911 60.053 16.5911C60.1239 16.5911 60.2657 16.662 60.3366 16.662C60.4075 16.662 60.4784 16.7329 60.4784 16.7329C60.5493 16.7329 60.5493 16.7329 60.6202 16.8038C60.6911 16.8038 60.762 16.8747 60.8329 16.8747C60.8329 16.8747 60.9038 16.8747 60.9038 16.9456C61.0456 17.0165 61.1874 17.0874 61.3292 17.0874C61.4001 17.0874 61.471 17.1583 61.5419 17.1583C61.5419 17.1583 61.5419 17.1583 61.6128 17.1583C61.8255 17.3001 62.0382 17.371 62.2509 17.5128V11.2026H39.3499ZM44.5965 25.3119C44.5965 25.7373 44.242 26.0919 43.8166 26.0919H42.2568C41.8314 26.0919 41.4769 25.7373 41.4769 25.3119V23.7521C41.4769 23.3267 41.8314 22.9722 42.2568 22.9722H43.8875C44.3129 22.9722 44.6674 23.3267 44.6674 23.7521V25.3119H44.5965ZM44.7383 20.1362C44.7383 20.5616 44.3838 20.9161 43.9584 20.9161H42.4695C42.0441 20.9161 41.6896 20.5616 41.6896 20.1362V18.5763C41.6896 18.1509 42.0441 17.7964 42.4695 17.7964H44.0293C44.4547 17.7964 44.8092 18.1509 44.8092 18.5763V20.1362H44.7383ZM49.7723 25.3119C49.7723 25.7373 49.4178 26.0919 48.9924 26.0919H47.4326C47.0072 26.0919 46.6527 25.7373 46.6527 25.3119V23.7521C46.6527 23.3267 47.0072 22.9722 47.4326 22.9722H48.9924C49.4178 22.9722 49.7723 23.3267 49.7723 23.7521V25.3119ZM49.7723 20.1362C49.7723 20.5616 49.4178 20.9161 48.9924 20.9161H47.4326C47.0072 20.9161 46.6527 20.5616 46.6527 20.1362V18.5763C46.6527 18.1509 47.0072 17.7964 47.4326 17.7964H48.9924C49.4178 17.7964 49.7723 18.1509 49.7723 18.5763V20.1362ZM49.7723 14.8895C49.7723 15.3149 49.4178 15.6694 48.9924 15.6694H47.4326C47.0072 15.6694 46.6527 15.3149 46.6527 14.8895V13.3297C46.6527 12.9043 47.0072 12.5498 47.4326 12.5498H48.9924C49.4178 12.5498 49.7723 12.9043 49.7723 13.3297V14.8895ZM54.8063 14.8895C54.8063 15.3149 54.4518 15.6694 54.0264 15.6694H52.4665C52.0411 15.6694 51.6866 15.3149 51.6866 14.8895V13.3297C51.6866 12.9043 52.0411 12.5498 52.4665 12.5498H54.0264C54.4518 12.5498 54.8063 12.9043 54.8063 13.3297V14.8895ZM59.9112 14.8895C59.9112 15.3149 59.5566 15.6694 59.1312 15.6694H57.5714C57.146 15.6694 56.7915 15.3149 56.7915 14.8895V13.3297C56.7915 12.9043 57.146 12.5498 57.5714 12.5498H59.1312C59.5566 12.5498 59.9112 12.9043 59.9112 13.3297V14.8895Z" fill="#45C1C8"/>
</svg>
