<svg width="68" height="48" viewBox="0 0 68 48" fill="none" xmlns="http://www.w3.org/2000/svg"><path d="M65.725 31.835h-.141a6.316 6.316 0 0 0-2.837.85c-.425-.354-.921-.567-1.489-.567h-.212c3.545-1.205 6.097-4.608 6.097-8.579a9.117 9.117 0 0 0-3.403-7.09V4.963a2.996 2.996 0 0 0-2.978-2.978h-1.418A2.106 2.106 0 0 0 57.217 0h-.142c-1.134 0-2.056.85-2.127 1.985h-8.366A2.106 2.106 0 0 0 44.455 0h-.142c-1.134 0-2.056.85-2.127 1.985h-1.418a2.996 2.996 0 0 0-2.978 2.978v21.27a2.996 2.996 0 0 0 2.978 2.978h10.21a9.203 9.203 0 0 0 5.317 3.19c-.141.072-.283.213-.425.355a1.95 1.95 0 0 0-.567 1.064c-1.135-.993-3.049-1.985-6.098-1.985-1.985 0-3.757.425-5.105 1.276a2.25 2.25 0 0 0-1.843-.922h-3.829c-.992 0-1.843.638-2.127 1.56-.142.709-.354 1.418-.567 2.127a38.87 38.87 0 0 0-.709-2.198 2.213 2.213 0 0 0-2.127-1.56h-2.056c1.064-1.205 1.843-2.978 2.694-5.105l3.687-9.359c.284-.638.142-1.347-.213-1.914-.425-.567-1.063-.922-1.772-.922h-4.041c-.922 0-1.773.568-1.986 1.49-.212.637-.425 1.346-.638 2.055-.213-.638-.425-1.347-.709-2.127-.284-.85-1.134-1.418-1.985-1.418h-4.396a1.98 1.98 0 0 0-1.418.568c-.922-.568-1.985-.851-3.262-.851-1.347 0-2.623.354-3.615 1.063-.922-.709-2.056-1.063-3.475-1.063-1.205 0-2.127.283-2.836.638-.283-.213-.709-.355-1.134-.355H1.985a1.98 1.98 0 0 0-1.418.568c-.354.354-.567.92-.567 1.487v11.132c0 1.134.922 2.056 1.985 2.056h3.829c.78 0 1.489-.496 1.772-1.134.355.709.993 1.134 1.773 1.134h3.829c.78 0 1.489-.496 1.772-1.134.355.709.993 1.134 1.773 1.134h4.183v2.127a2 2 0 0 0 .283 1.064c-1.063-.993-2.623-1.56-4.466-1.56-1.206 0-2.34.212-3.262.709-.354-.213-.709-.355-1.205-.355H8.083c-.567 0-1.064.213-1.418.638-.355.426-.568.922-.568 1.49v11.202c0 1.134.922 2.056 2.057 2.056h4.254c1.063 0 1.914-.78 1.985-1.844h.425c.142.993.993 1.844 1.986 1.844h4.325c.283 0 .567-.071.78-.142.354.284.85.425 1.276.425H26.8a2.36 2.36 0 0 0 2.34-2.34v-3.332l1.63 4.254c.355.851 1.134 1.418 2.056 1.418h5.105c.922 0 1.702-.567 2.056-1.418l1.064-2.694C42.186 46.086 44.668 48 49.134 48c2.624 0 4.609-.567 6.098-1.773.284.851 1.134 1.49 2.056 1.49h3.97a2.209 2.209 0 0 0 2.198-2.198v-3.404c0-.709.071-1.56.497-1.914.283-.284.85-.425 1.701-.425 1.206 0 2.127-.993 2.127-2.199v-3.26c.142-1.49-.85-2.482-2.056-2.482z" fill="#fff"/><path d="M16.803 16.307c-1.772 0-2.836.71-3.474 1.347-.142.213-.425.142-.567-.07-.496-.71-1.418-1.348-3.12-1.348-1.276 0-2.269.426-2.907.993-.212.213-.567 0-.638-.284 0-.212-.213-.354-.425-.354H1.985a.457.457 0 0 0-.425.425v11.132c0 .212.141.425.425.425h3.829a.457.457 0 0 0 .425-.425v-6.31c0-1.49.496-2.27 1.489-2.27 1.134 0 1.347.993 1.347 1.844v6.736c0 .212.142.425.425.425h3.83a.457.457 0 0 0 .425-.425v-6.31c0-1.56.567-2.198 1.488-2.198 1.064 0 1.347.992 1.347 1.914v6.594c0 .212.142.425.426.425h3.829a.457.457 0 0 0 .425-.425V21.27c-.213-3.403-1.914-4.963-4.467-4.963z" fill="#EE4744"/><path d="M35.237 16.59h-4.04a.533.533 0 0 0-.497.355c-.993 3.333-1.702 6.381-1.985 7.587h-.142c-.142-.78-.78-3.404-2.269-7.587a.533.533 0 0 0-.496-.354h-4.396c-.355 0-.638.354-.496.709l4.892 10.919a.44.44 0 0 1-.071.496c-.355.567-.922.992-2.127.992h-.567a.485.485 0 0 0-.497.497v2.127c0 .283.213.496.497.496.496.071 1.205.071 1.843.071 4.325 0 5.318-1.63 7.161-6.24l3.687-9.358c.142-.355-.142-.71-.497-.71zM62.18 5.176c0-.78-.638-1.418-1.418-1.418H40.768c-.78 0-1.418.638-1.418 1.418v5.885h22.83V5.176zm-6.24 2.41a.71.71 0 0 1-.708.71h-9.005a.71.71 0 0 1-.709-.71v-.212a.71.71 0 0 1 .71-.71h9.004a.71.71 0 0 1 .709.71v.212zm2.128 8.721a7.444 7.444 0 0 0-7.445 7.445c0 4.112 3.332 7.515 7.445 7.515a7.444 7.444 0 0 0 7.444-7.444c0-4.112-3.332-7.516-7.444-7.516zm2.977 12.337c0 .213-.141.355-.354.355h-4.963c-.213 0-.355-.142-.355-.355v-1.418c0-.213.142-.354.355-.354h1.063v-2.127h-1.063c-.213 0-.355-.142-.355-.355v-1.418c0-.213.142-.354.355-.354a1.09 1.09 0 0 0 1.063-1.064c0-.213.142-.354.355-.354h.709v-.284a1.066 1.066 0 0 1-.71-.993c0-.212.072-.354.143-.567l.638-1.063c.07-.142.213-.213.283-.213.142 0 .213.07.284.213l.638 1.063c.071.142.142.355.142.567 0 .497-.284.851-.709.993v.284h.709c.213 0 .354.141.354.354v5.318h1.064c.213 0 .354.141.354.354v1.418z" fill="#EE4744"/><path d="M58.918 27.226v-5.318H57.43a1.822 1.822 0 0 1-1.418 1.418v.78h1.064c.213 0 .354.142.354.355v2.836c0 .213-.141.354-.354.354h-1.064v.71h4.255v-.71h-1.064c-.142-.07-.284-.283-.284-.425z" fill="#EE4744"/><path d="M26.942 33.962h-3.616a.71.71 0 0 0-.709.709v10.564a.71.71 0 0 0 .71.709h3.615a.71.71 0 0 0 .71-.71V34.672c0-.355-.355-.71-.71-.71zm15.315 0h-3.829c-.283 0-.496.141-.567.425a164.278 164.278 0 0 0-2.127 7.728h-.071c-.425-1.914-.993-3.9-2.198-7.728-.07-.284-.284-.425-.567-.425h-4.112c-.426 0-.71.425-.568.85l4.184 10.848c.07.213.283.355.567.355h5.105c.283 0 .496-.142.567-.355l4.183-10.847c.213-.426-.142-.851-.567-.851zm6.948-.355c-4.963 0-7.16 2.978-7.16 6.31 0 3.12 1.7 6.381 7.231 6.381 3.9 0 5.672-1.489 6.523-3.19.213-.425-.07-.85-.567-.85h-3.758a.644.644 0 0 0-.496.212c-.355.425-.78.709-1.773.709-1.063 0-1.701-.497-1.985-1.276-.142-.355.142-.78.567-.78h7.87a.56.56 0 0 0 .567-.567v-.497c.071-3.19-1.914-6.452-7.019-6.452zm1.418 4.892H47.93c-.425 0-.709-.425-.567-.85.283-.639.85-1.064 1.985-1.064 1.134 0 1.63.496 1.843 1.063.142.426-.141.851-.567.851zm15.102-4.821c-1.347.07-2.198.567-2.836 1.205-.355.355-.922.142-.993-.354 0-.284-.283-.567-.567-.567h-3.828a.56.56 0 0 0-.568.567v10.918a.56.56 0 0 0 .568.568h3.97a.56.56 0 0 0 .567-.568v-3.403c0-3.048 1.347-3.9 3.758-3.97a.56.56 0 0 0 .567-.567v-3.262c0-.354-.283-.567-.638-.567zm-48.851-.283c-1.63 0-2.623.496-3.332.992-.284.213-.638.071-.709-.284 0-.212-.213-.354-.425-.354H8.224a.457.457 0 0 0-.425.425v11.203c0 .212.213.425.425.425h4.255a.457.457 0 0 0 .425-.425v-5.885c0-1.843.638-2.623 1.843-2.623 1.206 0 1.631.921 1.631 1.985v6.523c0 .212.213.425.425.425h4.325a.457.457 0 0 0 .426-.425v-7.02c0-3.119-1.63-4.962-4.68-4.962z" fill="#45C1C8"/><path d="M54.097 17.513l-.07.07c0-.07 0-.07.07-.07z" fill="#F38282"/><path d="M44.455 1.844h-.142a.485.485 0 0 0-.496.496v2.978c0 .283.212.496.496.496h.142a.485.485 0 0 0 .496-.496V2.34a.485.485 0 0 0-.496-.496zm12.762 0h-.142a.485.485 0 0 0-.496.496v2.978c0 .283.213.496.496.496h.142a.485.485 0 0 0 .496-.496V2.34a.485.485 0 0 0-.496-.496z" fill="#EE4744"/><path d="M39.35 11.203v15.314c0 .78.638 1.418 1.418 1.418h11.06c-.07-.141-.212-.283-.283-.425-.071-.071-.071-.142-.071-.213 0 0 0-.07-.071-.07-.07-.213-.213-.426-.284-.639 0-.07 0-.07-.07-.142 0-.07-.071-.141-.071-.141 0-.071 0-.071-.071-.142 0-.071 0-.071-.071-.142 0-.07-.071-.213-.071-.284v-.141c0-.071 0-.142-.071-.213v-.142c0-.07 0-.142-.07-.213v-.07c0-.142 0-.213-.072-.355v-1.559c0-.143 0-.214.071-.355v-.071c0-.071 0-.142.071-.213v-.142c0-.07 0-.142.07-.213 0-.07.072-.141.072-.212 0-.071 0-.142.07-.142 0-.07.072-.142.072-.213 0-.07 0-.07.07-.142 0-.07.071-.141.071-.212l.213-.426c0-.07.071-.141.142-.212.142-.213.213-.426.354-.638v-1.206c0-.425.355-.78.78-.78h1.064c.07-.07.142-.07.142-.142l.07-.07c.072-.071.142-.071.142-.142.071 0 .071-.071.142-.071s.142-.071.142-.071c.07 0 .07-.07.142-.07.07 0 .142-.072.142-.072.07 0 .07-.07.141-.07.071-.072.213-.072.284-.142.07 0 .07-.071.142-.071.07 0 .07-.071.142-.071.07 0 .07-.071.141-.071.071 0 .071-.071.142-.071s.142-.071.142-.071c.07 0 .07 0 .142-.07.07 0 .142-.072.213-.072h.141c.142 0 .213-.07.355-.07h.142c.07 0 .141 0 .212-.072h1.985c.142 0 .213 0 .355.071h.07c.072 0 .143 0 .214.071h.142c.07 0 .141 0 .212.071h.142c.07 0 .213.071.284.071.07 0 .141.07.141.07.071 0 .071 0 .142.072.071 0 .142.07.213.07 0 0 .07 0 .07.072.143.07.284.141.426.141.071 0 .142.071.213.071h.07c.213.142.426.213.639.355v-6.31H39.35zm5.246 14.109c0 .425-.354.78-.78.78h-1.56a.787.787 0 0 1-.78-.78v-1.56c0-.425.355-.78.78-.78h1.632c.425 0 .78.355.78.78v1.56h-.072zm.142-5.176c0 .426-.354.78-.78.78H42.47a.787.787 0 0 1-.78-.78v-1.56c0-.425.355-.78.78-.78h1.56c.426 0 .78.355.78.78v1.56h-.07zm5.034 5.176c0 .425-.354.78-.78.78h-1.56a.787.787 0 0 1-.78-.78v-1.56c0-.425.355-.78.78-.78h1.56c.426 0 .78.355.78.78v1.56zm0-5.176c0 .426-.354.78-.78.78h-1.56a.787.787 0 0 1-.78-.78v-1.56c0-.425.355-.78.78-.78h1.56c.426 0 .78.355.78.78v1.56zm0-5.246c0 .425-.354.78-.78.78h-1.56a.787.787 0 0 1-.78-.78v-1.56c0-.426.355-.78.78-.78h1.56c.426 0 .78.354.78.78v1.56zm5.034 0c0 .425-.354.78-.78.78h-1.56a.787.787 0 0 1-.78-.78v-1.56c0-.426.355-.78.78-.78h1.56c.426 0 .78.354.78.78v1.56zm5.105 0c0 .425-.354.78-.78.78h-1.56a.787.787 0 0 1-.78-.78v-1.56c0-.426.355-.78.78-.78h1.56c.426 0 .78.354.78.78v1.56z" fill="#45C1C8"/></svg>