<svg width="142" height="142" viewBox="0 0 142 142" fill="none" xmlns="http://www.w3.org/2000/svg"><path opacity=".06" d="M102.491 113.111c-4.276 2.753-9.028 4.344-13.727 5.651a142.794 142.794 0 0 1-12.433 2.873c-1.154.213-2.306.41-3.457.591l-.797.123a89.66 89.66 0 0 1-2.127.304l-.086.011c-.694.095-1.387.184-2.079.266-2.265.27-4.578.475-6.784.352a18.576 18.576 0 0 1-2.213-.245 14.25 14.25 0 0 1-1.154-.25 12.036 12.036 0 0 1-2.098-.748 10.87 10.87 0 0 1-1.647-.956c-1.89-1.326-3.335-3.2-4.448-5.303a25.188 25.188 0 0 1-1.432-3.287c-.05-.138-.098-.277-.153-.411-1.326-3.884-2.038-8.061-3.441-11.906a31.737 31.737 0 0 0-1.693-3.84 30.266 30.266 0 0 0-3.761-5.623c-1.365-1.63-2.963-3.127-4.895-4.049A9.847 9.847 0 0 0 32.22 86a14.88 14.88 0 0 0-3.193-.361 38.36 38.36 0 0 0-.663-.01c-.696-.005-1.396.002-2.09-.006-1.272.008-2.47-.11-3.58-.352a9.565 9.565 0 0 1-1.684-.571c-1.398-.618-2.622-1.538-3.705-2.607a21.552 21.552 0 0 1-1.473-1.631l-.016-.016c-.157-.194-.312-.39-.462-.593a23.683 23.683 0 0 1-1.884-2.89c-1.917-3.473-3.007-7.49-2.832-11.769.237-5.809 2.975-12.07 7.745-16.28 3.435-3.034 7.632-4.839 11.706-6.64 7.582-3.36 15.158-6.974 22.11-11.825 5.642-3.938 10.974-8.74 17.216-11.1a22.843 22.843 0 0 1 6.072-1.393 21.194 21.194 0 0 1 4.275.046c1.517.175 2.935.496 4.245.96 1.136.4 2.197.896 3.177 1.486a15.713 15.713 0 0 1 2.626 1.972l.052.052c.213.2.418.406.616.62a21.785 21.785 0 0 1 3.648 5.316 38.05 38.05 0 0 1 1.656 3.83 59.032 59.032 0 0 1 1.061 3.088c1.779 5.716 2.36 11.724 3.74 17.562.007.03.013.06.022.087.294 1.188.676 2.31 1.144 3.365.339.78.72 1.542 1.135 2.29a42.83 42.83 0 0 0 2.075 3.36l.163.242c1.084 1.605 2.246 3.158 3.337 4.703.387.55.767 1.097 1.128 1.65.233.348.46.696.68 1.044.157.252.316.503.471.758.156.254.32.523.478.787.103.17.205.342.304.517a51.961 51.961 0 0 1 1.741 3.213c.329.667.643 1.343.937 2.028.213.496.415.996.607 1.501.143.373.279.75.406 1.13 1.045 3.078 1.642 6.336 1.509 9.789-.337 8.956-6.052 18.496-14.229 23.759z" fill="#EE4744"/><path d="M54.736 99L54 97.8c1.45-1.593 1.518-11.44.793-16.779-.503-3.704-.58-6.88-.234-9.71.55-4.507 2.163-7.844 4.793-9.918 5.457-4.303 8.728-16.106 8.76-16.225l1.09.533c-.137.506-3.444 12.443-9.261 17.03-3.867 3.05-5.215 9.11-4.007 18.013.57 4.195 1.05 15.785-1.198 18.256z" fill="#D4D5E0"/><path d="M86.576 40.979c3.658-8.676.517-18.115-7.016-21.081-7.532-2.967-16.603 1.661-20.26 10.337-3.551 8.424-.693 17.566 6.37 20.806a5.063 5.063 0 0 1-2.06 1.987c-1.53.69 3.441 1.356 3.441 1.356a8.155 8.155 0 0 1 .47-2.662c7.27 2.06 15.59-2.525 19.055-10.743z" fill="#EE706E"/><path opacity=".2" d="M61.025 38.606c.164-3.79 2.445-6.799 5.173-6.933a3.835 3.835 0 0 0-.358-.032c-2.883-.126-5.36 2.979-5.53 6.934-.166 3.84 1.902 7.07 4.662 7.369-.05.287-4.112-3.505-3.947-7.338z" fill="#fff"/><path d="M55.645 121.86l-1.022-.969c.988-1.914-1.494-11.442-3.576-16.412-1.445-3.448-2.34-6.497-2.74-9.32-.635-4.495.06-8.135 2.063-10.82 4.158-5.568 4.263-17.816 4.263-17.939l1.19.232c-.002.525-.106 12.911-4.538 18.848-2.946 3.946-2.68 10.149.792 18.435 1.636 3.905 5.1 14.977 3.568 17.945z" fill="#D4D5E0"/><path d="M71.383 57.575c1.288-9.327-4.19-17.631-12.233-18.547-8.043-.917-15.607 5.902-16.895 15.229-1.25 9.056 3.878 17.147 11.54 18.448a5.063 5.063 0 0 1-1.477 2.453c-1.299 1.063 3.675.418 3.675.418a8.153 8.153 0 0 1-.235-2.692c7.555.108 14.406-6.475 15.625-15.31z" fill="#FF7E7B"/><path opacity=".2" d="M46.089 61.895c-.823-3.703.602-7.199 3.202-8.034a3.856 3.856 0 0 0-.354.06c-2.818.626-4.406 4.265-3.548 8.13.834 3.752 3.668 6.336 6.41 5.911.028.29-4.878-2.32-5.71-6.067z" fill="#fff"/><path d="M51.709 106.192l-.383-1.355c1.828-1.139 4.568-10.596 5.32-15.932.523-3.702 1.312-6.78 2.413-9.41 1.754-4.187 4.212-6.96 7.307-8.242 6.42-2.659 12.775-13.13 12.838-13.235l.904.808c-.27.45-6.695 11.04-13.54 13.875-4.55 1.884-7.493 7.35-8.748 16.247-.59 4.192-3.277 15.477-6.111 17.244z" fill="#D4D5E0"/><path d="M98.111 59c5.877-7.356 5.417-17.292-1.026-22.194-6.443-4.9-16.43-2.91-22.307 4.446-5.706 7.143-5.438 16.718.48 21.754a5.064 5.064 0 0 1-2.523 1.353c-1.66.25 2.944 2.24 2.944 2.24.253-.87.65-1.692 1.175-2.434C83.291 68.12 92.545 65.969 98.111 59z" fill="#E6615F"/><path opacity=".2" d="M74.165 49.777c1.187-3.603 4.2-5.879 6.861-5.267a3.881 3.881 0 0 0-.335-.128c-2.74-.904-5.967 1.41-7.206 5.17-1.203 3.651-.09 7.321 2.485 8.359-.125.263-3.005-4.49-1.805-8.134z" fill="#fff"/></svg>