<svg width="230" height="556" viewBox="0 0 230 556" fill="none" xmlns="http://www.w3.org/2000/svg"><path opacity=".04" d="M74.974 442.526c-16.727 10.769-35.319 16.993-53.701 22.108a557.673 557.673 0 0 1-48.644 11.237 511.46 511.46 0 0 1-13.525 2.313l-3.118.481c-2.77.432-5.543.828-8.322 1.19l-.336.045c-2.716.372-5.427.717-8.133 1.038-8.863 1.059-17.912 1.86-26.542 1.38-2.944-.16-5.84-.465-8.658-.962a57.248 57.248 0 0 1-4.515-.975c-2.429-.63-4.784-1.417-7.067-2.414a35.352 35.352 0 0 1-1.14-.512 42.885 42.885 0 0 1-6.445-3.743c-7.391-5.188-13.044-12.517-17.398-20.745-2.176-4.113-4.026-8.452-5.604-12.861-.196-.54-.385-1.083-.597-1.608-5.191-15.196-7.975-31.538-13.464-46.581a124.279 124.279 0 0 0-6.622-15.023 137.172 137.172 0 0 0-3.89-6.936 118.39 118.39 0 0 0-10.826-15.061c-5.34-6.379-11.591-12.234-19.151-15.839a38.434 38.434 0 0 0-3.091-1.316 36.77 36.77 0 0 0-4.131-1.284c-3.88-.896-8.057-1.368-12.493-1.414a148.82 148.82 0 0 0-2.594-.04c-2.723-.019-5.458.01-8.174-.022-4.978.033-9.662-.427-14.007-1.375a37.387 37.387 0 0 1-6.589-2.235c-5.469-2.419-10.258-6.017-14.496-10.199-2.024-2.037-3.966-4.161-5.763-6.381l-.061-.062a69.06 69.06 0 0 1-1.806-2.321 92.631 92.631 0 0 1-7.372-11.304c-7.499-13.589-11.766-29.307-11.079-46.045.925-22.726 11.638-47.224 30.298-63.696 13.44-11.869 29.86-18.928 45.797-25.979 29.666-13.138 59.305-27.282 86.502-46.259 22.075-15.406 42.932-34.19 67.357-43.424 7.82-2.954 15.838-4.762 23.753-5.455 5.898-.499 11.492-.438 16.727.183 5.933.686 11.482 1.941 16.605 3.756 4.447 1.565 8.597 3.506 12.43 5.813a61.442 61.442 0 0 1 6.008 4.1 56.21 56.21 0 0 1 4.265 3.615l.203.204a45.828 45.828 0 0 1 2.412 2.427c5.686 6.076 10.458 13.028 14.271 20.794 2.433 4.814 4.568 9.863 6.481 14.982a231.233 231.233 0 0 1 3.243 9.236c.31.947.615 1.899.907 2.848 6.958 22.364 9.23 45.867 14.63 68.71.027.117.051.232.088.34 1.151 4.645 2.645 9.04 4.475 13.165a105.765 105.765 0 0 0 4.44 8.961c2.47 4.499 5.226 8.864 8.119 13.144l.638.944c4.242 6.282 8.787 12.356 13.055 18.402 1.514 2.147 3.002 4.289 4.414 6.455a178.66 178.66 0 0 1 2.659 4.086c.616.982 1.235 1.967 1.843 2.962.609.995 1.254 2.046 1.87 3.08.404.668.801 1.339 1.189 2.022 2.4 4.096 4.691 8.285 6.81 12.573a161.89 161.89 0 0 1 3.669 7.932c.833 1.94 1.624 3.897 2.372 5.872a105.478 105.478 0 0 1 1.589 4.419c4.088 12.042 6.426 24.791 5.903 38.3-1.316 35.038-23.677 72.361-55.668 92.954z" fill="#EE4744"/></svg>