<svg width="383" height="783" viewBox="0 0 383 783" fill="none" xmlns="http://www.w3.org/2000/svg"><path opacity=".04" d="M164.049 622.876c-23.653 15.292-49.903 24.189-75.85 31.522a791.394 791.394 0 0 1-68.648 16.164A731.485 731.485 0 0 1 .47 673.913l-4.398.699a475.24 475.24 0 0 1-11.74 1.732l-.473.066c-3.83.542-7.655 1.047-11.471 1.517-12.502 1.552-25.264 2.741-37.426 2.123-4.149-.207-8.23-.617-12.198-1.298a80.43 80.43 0 0 1-6.358-1.344c-3.42-.872-6.735-1.966-9.947-3.356a47.454 47.454 0 0 1-1.604-.715 59.704 59.704 0 0 1-9.06-5.232c-10.385-7.265-18.305-17.557-24.388-29.127-3.04-5.783-5.618-11.888-7.814-18.092-.273-.76-.536-1.524-.831-2.262-7.215-21.386-11.032-44.403-18.669-65.571a173.318 173.318 0 0 0-9.234-21.133 191.05 191.05 0 0 0-5.438-9.75 164.628 164.628 0 0 0-15.161-21.159c-7.485-8.956-16.257-17.167-26.891-22.199a53.847 53.847 0 0 0-4.348-1.834 51.82 51.82 0 0 0-5.816-1.783c-5.463-1.236-11.348-1.874-17.601-1.909a201.873 201.873 0 0 0-3.656-.039c-3.839-.009-7.695.05-11.524.024-7.017.078-13.617-.538-19.735-1.845-3.287-.779-6.384-1.817-9.275-3.107-7.693-3.373-14.42-8.413-20.366-14.281-2.84-2.856-5.562-5.837-8.081-8.956l-.086-.087a96.14 96.14 0 0 1-2.531-3.258 128.977 128.977 0 0 1-10.316-15.886c-10.481-19.105-16.392-41.232-15.311-64.832 1.456-32.041 16.721-66.644 43.136-89.987 19.026-16.821 42.22-26.881 64.732-36.926 41.909-18.718 83.784-38.853 122.251-65.785 31.22-21.863 60.748-48.482 95.24-61.66 11.044-4.217 22.36-6.819 33.522-7.848 8.317-.743 16.203-.694 23.579.146 8.358.927 16.173 2.66 23.382 5.184 6.259 2.176 12.096 4.885 17.483 8.111a85.523 85.523 0 0 1 8.442 5.739 78.02 78.02 0 0 1 5.989 5.068l.285.286a63.934 63.934 0 0 1 3.384 3.405c7.975 8.526 14.655 18.295 19.979 29.216 3.397 6.77 6.373 13.873 9.036 21.076a321.61 321.61 0 0 1 4.509 12.998c.431 1.332.855 2.672 1.261 4.008 9.659 31.478 12.705 64.593 20.166 96.756.036.165.07.327.121.479 1.592 6.54 3.668 12.725 6.219 18.528 1.851 4.288 3.935 8.481 6.2 12.601 3.452 6.326 7.308 12.46 11.357 18.474l.894 1.327c5.938 8.827 12.305 17.358 18.281 25.852 2.119 3.017 4.203 6.026 6.18 9.07a258.832 258.832 0 0 1 3.721 5.741c.861 1.381 1.727 2.765 2.578 4.163.851 1.399 1.753 2.877 2.615 4.329a122.2 122.2 0 0 1 1.663 2.843c3.355 5.758 6.557 11.647 9.516 17.677 1.8 3.667 3.515 7.389 5.119 11.157a204.54 204.54 0 0 1 3.305 8.262 146.88 146.88 0 0 1 2.21 6.219c5.683 16.947 8.893 34.902 8.066 53.948-2.088 49.398-33.86 102.158-79.094 131.4z" fill="#EE4744"/><path d="M88.954 650L86 645.184c5.815-6.392 6.09-45.899 3.182-67.324-2.018-14.864-2.325-27.609-.939-38.966 2.207-18.081 8.678-31.47 19.232-39.792 21.895-17.265 35.023-64.626 35.153-65.102l4.372 2.137c-.553 2.03-13.82 49.928-37.163 68.335-15.517 12.235-20.925 36.551-16.076 72.274 2.286 16.833 4.211 63.341-4.807 73.254z" fill="#D4D5E0"/><path d="M216.712 417.19c14.675-34.813 2.072-72.684-28.152-84.589-30.223-11.904-66.62 6.668-81.296 41.48-14.249 33.802-2.779 70.484 25.563 83.484-1.905 3.372-4.776 6.141-8.269 7.974-6.138 2.77 13.81 5.439 13.81 5.439a32.704 32.704 0 0 1 1.884-10.68c29.171 8.264 62.559-10.133 76.46-43.108z" fill="#EE706E"/><path opacity=".2" d="M114.19 407.668c.657-15.207 9.809-27.278 20.753-27.816-.472-.065-.95-.11-1.433-.131-11.57-.504-21.506 11.953-22.192 27.822-.666 15.408 7.633 28.367 18.707 29.569-.197 1.153-16.5-14.062-15.835-29.444z" fill="#fff"/><path d="M-6.191 648L-9 644.321c5.529-4.883 5.791-35.062 3.025-51.428-1.918-11.354-2.21-21.091-.892-29.766 2.098-13.812 8.25-24.039 18.286-30.396 20.818-13.189 33.3-49.367 33.424-49.731L49 484.633c-.526 1.55-13.14 38.139-35.335 52.2-14.754 9.346-19.896 27.921-15.286 55.209C.553 604.901 2.383 640.428-6.19 648z" fill="#D4D5E0"/><path d="M96.371 470.288c10.698-25.378 1.51-52.985-20.521-61.663-22.032-8.677-48.565 4.86-59.263 30.238-10.387 24.64-2.026 51.381 18.635 60.857a14.81 14.81 0 0 1-6.028 5.813c-4.475 2.02 10.067 3.965 10.067 3.965.02-2.65.484-5.279 1.373-7.786 21.265 6.025 45.604-7.386 55.737-31.424z" fill="#EE706E"/><path opacity=".2" d="M21.635 463.347c.48-11.086 7.151-19.885 15.13-20.277a10.946 10.946 0 0 0-1.045-.096c-8.435-.367-15.678 8.713-16.178 20.282-.486 11.232 5.564 20.679 13.637 21.554-.144.841-12.028-10.25-11.544-21.463z" fill="#fff"/></svg>