<svg width="779" height="562" viewBox="0 0 779 562" fill="none" xmlns="http://www.w3.org/2000/svg"><path opacity=".1" d="M818.084 356.137c-8.26 19.864-25.542 37.806-44.093 54.798-16.308 14.94-33.752 29.377-52.333 43.311a716.637 716.637 0 0 1-15.694 11.458l-3.691 2.604a494.15 494.15 0 0 1-9.986 6.882l-.407.276a702.86 702.86 0 0 1-9.935 6.636c-10.929 7.179-22.482 14.308-35.253 20.212a168.697 168.697 0 0 1-13.49 5.577 153.73 153.73 0 0 1-7.702 2.567 144.689 144.689 0 0 1-15.628 3.836 153.36 153.36 0 0 1-14.309 1.973c-17.674 1.617-35.928.435-53.63-2.335-8.848-1.385-17.558-3.169-25.985-5.2-1.037-.247-2.067-.5-3.104-.725-28.697-7.18-55.64-16.927-84.54-23.78a413.549 413.549 0 0 0-30.459-6.02 491.117 491.117 0 0 0-15.23-2.176 445.722 445.722 0 0 0-36.406-3.002c-16.478-.725-33.491-.413-49.171 2.466-2.088.382-4.15.812-6.186 1.291a109.15 109.15 0 0 0-7.6 2.067 135.269 135.269 0 0 0-19.502 8.028c-1.24.609-2.465 1.226-3.691 1.849-3.844 1.958-7.637 3.96-11.488 5.904a145.004 145.004 0 0 1-21.568 9.152 114.34 114.34 0 0 1-12.387 3.162c-11.074 2.219-22.859 3.097-34.695 3.155-5.707 0-11.422-.124-17.071-.421h-.174c-1.93-.102-3.866-.218-5.802-.363a342.105 342.105 0 0 1-26.268-2.799c-29.669-4.351-57.808-12.575-80.442-25.122C19.422 464.37-.102 438.98 2.828 413.611c2.104-18.275 15.165-35.246 27.559-51.861 23.055-30.938 44.652-62.579 56.016-95.933 9.218-27.072 11.967-55.697 33.18-80.028 6.795-7.789 15.483-14.897 25.6-21.126a163.413 163.413 0 0 1 23.7-11.981 204.994 204.994 0 0 1 28.567-9.319 227.28 227.28 0 0 1 25.615-4.816c4.685-.609 9.428-1.08 14.2-1.399 3.675-.257 7.366-.419 11.074-.486h.573c2.268-.044 4.535-.044 6.803 0a316.933 316.933 0 0 1 49.315 4.634c10.197 1.704 20.307 3.793 30.206 6.092a719.648 719.648 0 0 1 17.565 4.3c1.769.457 3.539.922 5.287 1.393 41.28 11.06 77.599 26.333 117.37 38.865.203.065.399.13.602.181a245.187 245.187 0 0 0 24.832 6.237c6.157 1.233 12.452 2.299 18.856 3.235 9.805 1.45 19.82 2.596 29.908 3.582l2.227.218c14.802 1.45 29.734 2.531 44.239 3.793 5.149.449 10.254.913 15.287 1.45 3.191.319 6.353.658 9.486 1.015 2.249.262 4.504.523 6.759.798 2.256.276 4.642.566 6.963.863 1.508.189 3.009.385 4.518.595 9.138 1.211 18.254 2.567 27.268 4.119a550.996 550.996 0 0 1 16.325 3.053c3.902.793 7.77 1.63 11.604 2.51 2.843.643 5.661 1.32 8.456 2.03 22.707 5.708 43.956 13.192 62.268 23.295 47.553 26.173 68.831 69.23 53.028 107.217zM180.574 65.56c8.664 0 15.687-7.023 15.687-15.686 0-8.664-7.023-15.687-15.687-15.687-8.663 0-15.686 7.023-15.686 15.687 0 8.663 7.023 15.687 15.686 15.687zm320.63-34.187c8.663 0 15.687-7.023 15.687-15.686C516.891 7.023 509.867 0 501.204 0c-8.664 0-15.687 7.023-15.687 15.687 0 8.663 7.023 15.686 15.687 15.686zm190.118 35.13c8.664 0 15.687-7.023 15.687-15.687 0-8.663-7.023-15.686-15.687-15.686-8.663 0-15.687 7.023-15.687 15.686 0 8.664 7.024 15.687 15.687 15.687zM26.29 114.114c14.519 0 26.289-11.77 26.289-26.29 0-14.518-11.77-26.289-26.29-26.289C11.77 61.535 0 73.305 0 87.825c0 14.519 11.77 26.289 26.29 26.289zM51.491 243.93c14.52 0 26.29-11.77 26.29-26.289 0-14.52-11.77-26.29-26.29-26.29s-26.29 11.77-26.29 26.29c0 14.519 11.77 26.289 26.29 26.289zm705.587-47.785c14.52 0 26.29-11.77 26.29-26.29 0-14.519-11.77-26.289-26.29-26.289-14.519 0-26.289 11.77-26.289 26.289 0 14.52 11.77 26.29 26.289 26.29z" fill="#EE4744"/><path d="M256.984 173.583c.13 2.207.001 4.422-.384 6.6-1.451 6.737-7.586 11.364-13.526 14.874-5.939 3.51-12.466 6.832-15.998 12.757-4.257 7.158-2.901 16.781 2.096 23.468 4.996 6.687 12.916 10.668 21.067 12.329 14.868 3.068 31.149-1.24 42.296-11.538 11.146-10.299 16.738-26.391 14.004-41.338-6.049.848-11.437-4.489-13.395-10.277-1.958-5.787-1.552-12.06-2.314-18.13a6.208 6.208 0 0 0-.899-2.901c-.848-1.175-2.35-1.654-3.749-2.038-6.992-1.922-18.755-6.128-26-4.518-6.527 1.494-3.307 15.229-3.198 20.712z" fill="#BE6F72"/><path opacity=".1" d="M256.984 173.583c.13 2.207.001 4.422-.384 6.6-1.451 6.737-7.586 11.364-13.526 14.874-5.939 3.51-12.466 6.832-15.998 12.757-4.257 7.158-2.901 16.781 2.096 23.468 4.996 6.687 12.916 10.668 21.067 12.329 14.868 3.068 31.149-1.24 42.296-11.538 11.146-10.299 16.738-26.391 14.004-41.338-6.049.848-11.437-4.489-13.395-10.277-1.958-5.787-1.552-12.06-2.314-18.13a6.208 6.208 0 0 0-.899-2.901c-.848-1.175-2.35-1.654-3.749-2.038-6.992-1.922-18.755-6.128-26-4.518-6.527 1.494-3.307 15.229-3.198 20.712z" fill="#000"/><path d="M248.535 494.648a144.988 144.988 0 0 1-21.568 9.152 114.11 114.11 0 0 1-12.387 3.162 78.014 78.014 0 0 1 .906-16.68c.566-3.169 1.4-6.309 1.618-9.522a24.97 24.97 0 0 0-2.865-13.373c8.079-1.103 15.752-2.901 23.867-2.372l.515.036c.965.025 1.92.204 2.829.53a7.636 7.636 0 0 1 3.067 2.698c.418.57.803 1.163 1.153 1.777 2.292 3.959 3.162 8.528 3.344 13.235a88.089 88.089 0 0 1-.479 11.357zm42.288-17.855a109.15 109.15 0 0 0-7.6 2.067 135.269 135.269 0 0 0-19.502 8.028 28.767 28.767 0 0 1-.594-6.005 33.526 33.526 0 0 1 25.636-5.272c.59.071 1.15.296 1.625.652.172.153.319.332.435.53z" fill="#BE6F72"/><path d="M303.29 440.183c-.494 4.743-1.219 9.501-2.901 13.961-1.821 4.787-4.78 9.428-4.402 14.541.166 2.219.921 4.627 1.029 6.824-2.088.382-4.15.812-6.186 1.291a109.15 109.15 0 0 0-7.6 2.067 135.324 135.324 0 0 0-19.501 8.028 282.385 282.385 0 0 0-3.692 1.85 27.421 27.421 0 0 1-1.516-.24c-3.626-.66-7.44-2.284-9.493-5.185a8.343 8.343 0 0 1-1.095-2.176c-1.182-3.532.051-7.934-2.408-10.733l-.116.101-.087.058a24.32 24.32 0 0 1-4.409 3.177 29.55 29.55 0 0 1-23.933 2.306 26.269 26.269 0 0 1-4.489-2.016c-3.321-1.893-6.527-5.077-6.266-8.877.145-2.117 1.357-4.148 1.03-6.244-.239-1.501-1.225-2.749-1.965-4.076-4.852-8.702.935-19.893-2.111-29.35a17.45 17.45 0 0 0-.232-.667c-.224-.616-.478-1.211-.725-1.806-.624-1.385-1.32-2.748-1.871-4.17a24.244 24.244 0 0 1-1.088-3.677 46.046 46.046 0 0 1-.725-11.038c0-9.739 1.74-19.711 4.221-29.096.442-1.668.935-4.025 1.588-6.592a50.463 50.463 0 0 1 2.567-7.919c1.451-3.336 3.423-5.998 6.121-6.629 4.061-.95 10.269 1.059 14.389 1.552l16.281 1.944 32.555 3.894c5.621.675 11.524 1.451 16.159 4.613.304.21.601.427.899.659a18.39 18.39 0 0 1 3.263 3.322c.334.428.653.878.958 1.334a30.251 30.251 0 0 1 2.683 5.12c4.039 9.704 4.134 20.532 4.163 31.04 0 10.966.036 21.924-1.095 32.809z" fill="#3F3D56"/><path opacity=".1" d="M240.877 473.79c-.979-3.771-3.046-9.232-3.351-10.718a135.837 135.837 0 0 1-2.219-15.1c-.805-9.036-2.256-21.756.935-30.35 2.996 1.595 5.628 6.113 7.013 9.195 5.019 11.176-.631 24.898 4.083 36.204.353.677.572 1.416.646 2.175a5.26 5.26 0 0 1-1.001 2.669l-1.588 2.64-4.518 3.285z" fill="#000"/><path d="M345.324 128.771c5.337-8.703 12.648-17.26 12.191-27.435-.167-3.626-1.356-7.173-2.263-10.726a68.427 68.427 0 0 1-.5-31.395 35.456 35.456 0 0 1 25.644 5.743c2.371 1.64 4.619 3.677 5.664 6.368.964 2.48.805 5.243.631 7.898-.399 6.099-.943 12.604-4.7 17.405-1.167 1.501-2.603 2.77-3.742 4.286-1.661 2.176-2.633 4.83-3.583 7.419l-12.328 33.542c-6.223 16.905-12.967 34.586-26.674 46.284-.334.283-10.153-13.663-10.966-15.063-3.285-5.737-1.849-8.159 2.125-12.96 7.84-9.493 12.097-20.944 18.501-31.366z" fill="#BE6F72"/><path d="M204.035 414.663a55.741 55.741 0 0 1-.631 7.477c-.13.914-.283 1.82-.464 2.727-2.473 12.909-8.63 25.187-12.938 37.762-5.679 16.601-8.173 31.004-10.153 47.488-5.708 0-11.423-.123-17.072-.421h-.174a259.094 259.094 0 0 1-5.802-.362c1.748-15.375-1.45-31.504 1.675-46.893 1.262-6.194 3.416-12.206 4.714-18.37.401-1.815.703-3.65.907-5.498.181-1.755.275-3.575 1.066-5.156.072-.153.155-.3.247-.442a12.397 12.397 0 0 1 2.552-2.901 63.7 63.7 0 0 1 31.229-14.889 72.03 72.03 0 0 1 4.844-.522z" fill="#FBBEBE"/><path opacity=".1" d="M204.035 414.663a55.741 55.741 0 0 1-.631 7.477c-.13.914-.283 1.82-.464 2.727-2.473 12.909-8.63 25.187-12.938 37.762-5.679 16.601-8.173 31.004-10.153 47.488-5.708 0-11.423-.123-17.072-.421h-.174a259.094 259.094 0 0 1-5.802-.362c1.748-15.375-1.45-31.504 1.675-46.893 1.262-6.194 3.416-12.206 4.714-18.37.401-1.815.703-3.65.907-5.498.181-1.755.275-3.575 1.066-5.156.072-.153.155-.3.247-.442a12.397 12.397 0 0 1 2.552-2.901 63.7 63.7 0 0 1 31.229-14.889 72.03 72.03 0 0 1 4.844-.522z" fill="#000"/><path d="M167.266 447.711c-.117 4.03-.449 8.051-.993 12.046-1.937 16.325-2.299 33.361-3.627 49.932a259.006 259.006 0 0 1-5.801-.362 342.106 342.106 0 0 1-26.268-2.8c.667-3.732 1.339-7.465 2.016-11.197.827-4.577 1.654-9.196 1.414-13.838-.225-4.387-1.399-8.659-2.335-12.959-1.994-9.211-3.111-19.146-6.396-27.835a36.288 36.288 0 0 0-8.021-13.054c13.59-5.337 26.652-5.642 41.25-5.076a5.222 5.222 0 0 1 2.959.725 5.006 5.006 0 0 1 1.487 2.248 56.233 56.233 0 0 1 4.083 16.55c.175 1.868.252 3.744.232 5.62z" fill="#FBBEBE"/><path d="M276.739 169.841c15.621 0 28.284-12.663 28.284-28.284 0-15.621-12.663-28.284-28.284-28.284-15.621 0-28.284 12.663-28.284 28.284 0 15.621 12.663 28.284 28.284 28.284z" fill="#BE6F72"/><path d="M282.621 207.661c3.626-6.186 6.802-13.909 13.779-15.628 3.938-.979 8.036.355 11.872 1.668a5.803 5.803 0 0 1 2.901 1.682c.567.9.871 1.94.877 3.003a196.518 196.518 0 0 1-.123 38.437c-.921 9.043-2.473 18.043-2.749 27.13-.384 12.598 1.69 25.195 1.009 37.777-.515 9.537-2.604 18.907-4.678 28.226l-8.703 39.017a6.649 6.649 0 0 1-1.4 3.3 6.53 6.53 0 0 1-2.567 1.451 95.55 95.55 0 0 1-77.331-6.056c-3.14-1.726-6.273-3.72-8.318-6.665-2.901-4.177-3.169-9.703-2.227-14.707.943-5.004 2.981-9.726 4.352-14.635 2.117-7.615 2.618-15.564 3.097-23.454.638-10.386 1.276-20.836.166-31.185-.761-7.129-2.349-14.149-3.546-21.22a234.071 234.071 0 0 1-3.06-32.222c-.182-6.447.116-13.605 4.576-18.254 2.175-2.263 5.076-3.626 8.028-4.728 4.953-1.828 10.487-2.901 15.491-1.233 5.004 1.668 9.036 6.918 7.854 12.06-.544 2.386-2.089 4.475-2.466 6.897-.5 3.206 1.197 6.433 3.626 8.601 13.069 11.807 33.02-8.064 39.54-19.262z" fill="#E3E8F4"/><path d="M283.658 178.761a21.387 21.387 0 0 1 12.394-.725c2.618.623 5.446 1.726 7.861.558.878-.42 1.603-1.109 2.488-1.501 2.393-1.052 5.497.239 7.615-1.291 1.334-.965 1.769-2.72 2.219-4.315a38.691 38.691 0 0 1 12.786-19.378c-.762 5.562-1.313 11.894 2.364 16.143 1.675 1.93 4.025 3.141 6.404 4.083 3.415 1.357 7.165 2.256 10.769 1.516 3.605-.74 6.977-3.466 7.55-7.1-.123 5.461-5.323 9.276-6.781 14.548-.551 1.973-.5 4.069-.885 6.085-.979 5.149-4.656 9.283-7.868 13.431a95.55 95.55 0 0 0-19.001 45.849 22.165 22.165 0 0 1-1.233 5.802 36.447 36.447 0 0 1-2.408 4.148c-5.316 8.978-3.677 20.306-1.871 30.561 2.821 16.064 5.635 31.801 10.204 47.459.783 2.676 1.668 5.468 3.662 7.419-.631 6.331-7.02 9.218-12.764 11.952a62.631 62.631 0 0 0-15.52 10.508c-1.653 1.523-3.285 3.235-3.887 5.403-.566 2.038-.159 4.279-.885 6.259-.725 1.98-3.626 3.401-4.902 1.733-1.596-5.968 1.131-12.213 1.008-18.392-.087-4.17-1.451-8.224-1.646-12.394-.189-4.721 1.204-9.355 2.683-13.837 4.119-12.481 9.094-24.846 10.523-37.908 1.429-13.061-1.24-27.326-10.509-36.645-11.001-11.111-17.108-26.174-28.9-36.378-1.871-1.617-3.989-3.626-3.677-6.077a6.773 6.773 0 0 1 1.385-2.944c4.047-5.715 9.428-10.378 13.78-15.847 4.351-5.468 7.832-11.763 7.042-18.725zm-38.72 11.698c-.725.725-1.226 1.726-2.067 2.35a6.824 6.824 0 0 1-3.256 1.008 105.366 105.366 0 0 1-12.888 1.153c-3.626 0-7.39-.319-10.878.674-4.866 1.378-8.753 5.222-11.19 9.646-2.437 4.424-3.59 9.428-4.526 14.41a192.693 192.693 0 0 0-3.299 33.281 87.558 87.558 0 0 0 15.846-16.448c3.481-4.722 6.636-9.943 11.603-13.098 2.285-1.451 4.852-2.408 7.151-3.822 4.794-2.952 8.115-7.724 11.306-12.329 2.35-3.416 9.146-10.088 9.682-14.178.457-3.909-4.946-5.816-7.484-2.647zm25.267-68.266a22.984 22.984 0 0 1 2.567 1.792c4.924 3.437 11.517 2.799 17.471 2.016 1.827-.232 3.706-.493 5.272-1.451 2.517-1.552 3.699-4.742 3.452-7.694-.246-2.952-1.733-5.671-3.546-7.978a28.69 28.69 0 0 0-19.835-10.82 12.766 12.766 0 0 0-5.94.63c-2.342.965-4.104 2.953-6.266 4.28-6.374 3.916-16.194 2.175-20.306 8.427-3.01 4.612-.863 10.878-2.284 16.18-1.059 3.959-4.112 7.564-3.525 11.603.326 2.176 1.69 4.076 2.778 6.02a26.593 26.593 0 0 1 3.328 14.671c2.792 1.973 6.687-1.095 7.463-4.417.776-3.321-.116-6.86.544-10.211 1.167-5.881 6.36-10.196 8.703-15.592 1.682-3.866 4.423-10.393 10.124-7.456z" fill="#3F3D56"/><path d="M201.627 186.572c-.217 1.32-.355 2.777.378 3.894 1.45 2.176 4.772 1.393 7.382 1.719 4.069.5 7.071 4.351 7.862 8.398.79 4.047-.153 8.166-1.182 12.14a280.803 280.803 0 0 1-8.326 26.638c-8.659-1.023-17.775-4.351-22.373-11.741-4.177-6.723-3.75-15.288-6.404-22.744-1.864-5.25-5.207-9.819-8.514-14.301 5.316.667 9.116-5.41 9.428-10.762.312-5.353-1.371-10.785-.225-16.013.268-1.241 21.22 2.668 23.258 4.083 5.889 4.083-.355 13.017-1.284 18.689z" fill="#FBBEBE"/><path opacity=".1" d="M201.627 186.572c-.217 1.32-.355 2.777.378 3.894 1.45 2.176 4.772 1.393 7.382 1.719 4.069.5 7.071 4.351 7.862 8.398.79 4.047-.153 8.166-1.182 12.14a280.803 280.803 0 0 1-8.326 26.638c-8.659-1.023-17.775-4.351-22.373-11.741-4.177-6.723-3.75-15.288-6.404-22.744-1.864-5.25-5.207-9.819-8.514-14.301 5.316.667 9.116-5.41 9.428-10.762.312-5.353-1.371-10.785-.225-16.013.268-1.241 21.22 2.668 23.258 4.083 5.889 4.083-.355 13.017-1.284 18.689z" fill="#000"/><path d="M196.964 177.818c15.621 0 28.284-12.663 28.284-28.284 0-15.62-12.663-28.284-28.284-28.284-15.62 0-28.284 12.664-28.284 28.284 0 15.621 12.664 28.284 28.284 28.284z" fill="#FBBEBE"/><path d="M188.254 182.511c1.03-1.61-.725-3.859.08-5.592.479-1.044 1.69-1.494 2.625-2.176a9.753 9.753 0 0 0 2.734-3.546 41.219 41.219 0 0 0 3.772-27.522c-.668-3.133-1.262-7.296 1.602-8.703a5.204 5.204 0 0 1 2.531-.435c5.164.167 10.154 3.626 15.165 2.4a8.706 8.706 0 0 0 6.382-7.593c.326-4.685-3.184-8.703-6.636-11.857-6.215-5.715-15.687-6.984-24.128-7.122l-15.701-.261c-5.026-.087-10.661.072-14.157 3.677-5.033 5.185-2.502 13.67-3.227 20.857a21.76 21.76 0 0 1-7.978 14.614c-3.256 2.596-7.738 5.076-7.68 9.225 0 1.45.624 2.77 1.023 4.141 1.603 5.424.072 11.422-3.003 16.172s-7.571 8.405-12.234 11.604c-2.495 1.704-5.077 3.343-7.049 5.657a16.676 16.676 0 0 0-3.677 9.377 12.323 12.323 0 0 0 1.537 7.564c3.068 4.902 10.429 5.62 15.469 2.777 5.041-2.842 8.116-8.224 10.154-13.634 1.218-3.213 2.458-6.889 5.576-8.333 3.946-1.835 8.558 1.066 11.125 4.584 2.568 3.517 4.149 7.81 7.434 10.668 5.149 4.482 13.91 3.756 18.261-1.509 3.111-3.778 3.8-9.007 3.626-13.902a20.249 20.249 0 0 0-3.626-11.132z" fill="#3F3D56"/><path d="M198.407 219.374c-3.227.689-6.599-.834-9-3.111-2.4-2.278-4.017-5.215-5.7-8.058a141.95 141.95 0 0 0-14.613-20.263c-4.758-5.49-11.379-11.067-18.443-9.37a17.517 17.517 0 0 0-6.44 3.445 46.965 46.965 0 0 0-14.169 18.691 46.96 46.96 0 0 0-3.359 23.213c.551 4.62 1.805 9.138 2.328 13.779.351 3.826.453 7.671.304 11.51-.196 11.69-.595 24.055-6.897 33.904-9.769 15.23-14.997 33.418-22.17 50.04-3.873 8.986-6.193 18.552-8.47 28.067-1.35 5.647-2.696 11.292-4.04 16.934l-8.775 36.914c-.907 3.807-1.813 7.796-.856 11.603 1.45 5.686 6.795 9.66 12.43 11.278 5.635 1.617 11.604 1.341 17.457 1.392 11.197.109 22.482 1.501 32.99 5.389 3.003 1.109 5.998 2.436 9.196 2.697 3.198.262 6.382-.573 9.377-1.733 8.173-3.162 15.179-8.703 22.707-13.177a89.628 89.628 0 0 1 14.795-7.158c2.581-.965 5.352-1.879 7.129-3.989 1.341-1.588 1.943-3.662 2.386-5.693 2.451-11.43.805-23.272 0-34.934-.805-11.662-7.775-23.983-2.009-34.151 1.16-2.052 2.545-4.025 3.14-6.302.783-2.974.123-6.172.783-9.174.486-2.22 1.654-4.214 2.451-6.339 1.393-3.742 1.581-7.818 1.567-11.814a129.636 129.636 0 0 0-2.756-26.108c-2.284-10.878 5.272-21.633 9.602-31.91 1.552-3.677 3.749-7.151 4.395-11.089.58-3.553-.167-7.172-.725-10.733a93.85 93.85 0 0 1-1.016-16.68c.138-5.004.668-10.103-.529-14.969s-4.613-9.587-9.522-10.588a3.88 3.88 0 0 0-3.278.515 4.23 4.23 0 0 0-1.153 2.03c-1.596 4.888-1.284 10.154-2.176 15.23-.892 5.077-1.936 9.638-6.941 10.712z" fill="#F86D70"/><path d="M129.968 250.522c.297-2.009-.638-4.678-2.669-4.605-1.871.072-2.705 2.415-2.698 4.293.007 1.879.261 4.033-1.066 5.352-1.175 1.168-3.118 1.132-4.482 2.082a3.686 3.686 0 0 0-1.545 3.024c0 1.008.457 1.973.486 2.981.029 1.008-.645 2.175-1.646 2.11a4.55 4.55 0 0 0 .66 5.512c.522.508 1.204.943 1.378 1.653a3.988 3.988 0 0 1-.116 1.487c-.305 1.994 1.073 4.228 3.082 4.446-1.124.805-.899 2.69.131 3.626 1.029.935 2.509 1.117 3.894 1.117a23.68 23.68 0 0 0 9.145-1.893 5.452 5.452 0 0 0 2.524-1.741 2.177 2.177 0 0 0-.21-2.814c1.407.233 3.096.363 4.017-.725 1.284-1.523-.094-3.778-1.45-5.25a2.904 2.904 0 0 0 2.319-3.805 2.892 2.892 0 0 0-.97-1.359c-.464-.341-1.095-.638-1.16-1.211-.066-.573.42-.943.623-1.451.464-1.138-.594-2.299-1.617-2.988-2.422-1.61-5.99-1.581-8.144-3.205-2.154-1.625-.798-4.46-.486-6.636z" fill="#BE6F72"/><path d="M279.582 140.476a34.317 34.317 0 0 1-5.287.124 1.15 1.15 0 0 0-1.269 1l-3.372 25.296a10.28 10.28 0 0 1-2.176 5.012 10.917 10.917 0 0 0-2.459 8.347v42.97s-.217 5.729 4.185 5.729a63.64 63.64 0 0 0 15.868 0s3.525-.667 3.525-5.954v-42.31a10.36 10.36 0 0 0-2.176-8.412 10.536 10.536 0 0 1-2.111-4.983l-3.502-25.825a1.152 1.152 0 0 0-1.226-.994z" fill="#3F3D56"/><path opacity=".1" d="M279.582 140.476a34.317 34.317 0 0 1-5.287.124 1.15 1.15 0 0 0-1.269 1l-3.372 25.296a10.28 10.28 0 0 1-2.176 5.012 10.917 10.917 0 0 0-2.459 8.347v42.97s-.217 5.729 4.185 5.729a63.64 63.64 0 0 0 15.868 0s3.525-.667 3.525-5.954v-42.31a10.36 10.36 0 0 0-2.176-8.412 10.536 10.536 0 0 1-2.111-4.983l-3.502-25.825a1.152 1.152 0 0 0-1.226-.994z" fill="#000"/><path d="M279.604 181.024h-5.345a8.014 8.014 0 0 0-8.014 8.013v20.111a8.014 8.014 0 0 0 8.014 8.014h5.345a8.014 8.014 0 0 0 8.014-8.014v-20.111a8.014 8.014 0 0 0-8.014-8.013z" fill="#EE4744"/><path d="M351.43 31.17a33.427 33.427 0 0 1-4.83 2.176 1.16 1.16 0 0 0-.79 1.407l6.628 24.657a10.24 10.24 0 0 1-.058 5.454 10.878 10.878 0 0 0 .943 8.652l16.55 39.656s2.001 5.366 6.07 3.669a63.179 63.179 0 0 0 14.649-6.135s2.996-1.973.965-6.846l-16.296-39.047a10.386 10.386 0 0 0-5.243-6.933 10.555 10.555 0 0 1-3.866-3.778L352.975 31.62a1.163 1.163 0 0 0-1.545-.45z" fill="#3F3D56"/><path d="M367.078 68.59l-4.933 2.058a8.015 8.015 0 0 0-4.31 10.482l7.745 18.56a8.014 8.014 0 0 0 10.482 4.309l4.933-2.059a8.013 8.013 0 0 0 4.309-10.481l-7.744-18.56a8.014 8.014 0 0 0-10.482-4.31z" fill="#EE4744"/><path d="M147.91 183.257c-7.796 3.213-10.879 13.207-9.051 21.431 1.828 8.224 7.332 15.077 12.699 21.597l15.041 18.348c4.155 5.077 8.703 10.422 15.041 12.191 9.269 2.59 18.537-3.314 26.551-8.651a399.97 399.97 0 0 1 76.264-39.714c2.619-1.015 5.302-2.045 7.456-3.858 4.467-3.757 5.722-10.683 3.234-15.955-2.487-5.272-8.282-8.703-14.12-8.746-5.838-.044-11.516 3.046-15.027 7.716-1.675 2.227-2.9 4.772-4.518 7.035-4.09 5.686-10.472 9.203-16.716 12.379a426.851 426.851 0 0 1-46.415 20.307c-2.901 1.059-6.171 2.067-8.905.667-1.676-.863-2.807-2.495-3.822-4.09a101.554 101.554 0 0 1-10.951-23.338c-1.98-6.165-3.583-12.88-8.34-17.26-6.745-6.208-18.958-4.722-24.013 2.9 0 0-5.925 8.667-2.299 12.293 3.627 3.626 7.891-15.252 7.891-15.252zm406.736-30.009c1.059 2.821 1.088 5.91.936 8.92-.189 3.67-1.11 7.977-4.519 9.377-2.219.892-4.96.218-6.933 1.567-2.393 1.624-2.277 5.12-1.907 7.977 1.023 7.854 2.176 15.999 6.454 22.642 2.299 3.561 5.411 6.527 8.565 9.362 6.288 5.672 13.185 11.212 21.445 13.105a8.961 8.961 0 0 0 4.134.174 8.548 8.548 0 0 0 3.575-2.175c4.787-4.395 7.253-10.669 10.444-16.354 2.255-4.069 4.946-7.978 6.215-12.46a21.753 21.753 0 0 0-6.658-21.952c-1.414-1.211-2.98-2.227-4.351-3.481-3.583-3.249-5.671-7.913-6.527-12.67-.856-4.758-.725-9.653-.312-14.505-7.252-.558-14.454.32-21.532 1.734-3.147.631-7.578.921-10.429 2.422-3.205 1.704.523 3.887 1.4 6.317z" fill="#FBBEBE"/><path opacity=".1" d="M554.646 153.248c1.059 2.821 1.088 5.91.936 8.92-.189 3.67-1.11 7.977-4.519 9.377-2.219.892-4.96.218-6.933 1.567-2.393 1.624-2.277 5.12-1.907 7.977 1.023 7.854 2.176 15.999 6.454 22.642 2.299 3.561 5.411 6.527 8.565 9.362 6.288 5.672 13.185 11.212 21.445 13.105a8.961 8.961 0 0 0 4.134.174 8.548 8.548 0 0 0 3.575-2.175c4.787-4.395 7.253-10.669 10.444-16.354 2.255-4.069 4.946-7.978 6.215-12.46a21.753 21.753 0 0 0-6.658-21.952c-1.414-1.211-2.98-2.227-4.351-3.481-3.583-3.249-5.671-7.913-6.527-12.67-.856-4.758-.725-9.653-.312-14.505-7.252-.558-14.454.32-21.532 1.734-3.147.631-7.578.921-10.429 2.422-3.205 1.704.523 3.887 1.4 6.317z" fill="#000"/><path d="M514.178 174.591c-11.777-4.04-17.405-19.82-29.734-21.59-1.944-.283-3.938-.174-5.845-.624-7.1-1.682-10.154-9.892-12.206-16.89-6.919-23.331-15.955-46.16-28.791-66.844-5.418-8.703-13.983-15.854-17.892-25.383-.899-2.176-1.356-4.656-2.973-6.375-1.617-1.719-5.077-1.965-5.954.225a5.071 5.071 0 0 0-.16 2.4l.849 9.03-14.751-1.328a8.614 8.614 0 0 0-4.083.29 6.923 6.923 0 0 0-3.213 3.344c-4.99 9.377.326 21.662 9.13 27.594 10.284 6.926 24.97 7.978 31.802 18.312 4.061 6.15 4.141 14.063 6.817 20.93 1.276 3.286 3.14 6.303 4.627 9.486 2.835 6.071 4.286 12.67 6.483 18.994 3.148 9.044 7.811 17.471 12.46 25.847 3.582 6.469 7.252 13.054 12.764 18 3.626 3.249 7.89 5.657 12.154 7.978 10.487 5.729 22.852 11.241 33.963 6.846.638-9.907-1.85-20.952-5.447-30.242zm35.761 312.195c-.892 9.465-6.636 18.037-7.977 27.146-8.848-1.386-17.558-3.17-25.985-5.2-1.037-.247-2.067-.501-3.104-.725 4.772-13.055.616-27.675 1.878-41.578.123-1.334.297-2.669.53-3.988 10.929-3.728 20.799-8.703 32.258-7.253.224 2.321.457 4.649.681 6.97.46 4.636.914 9.268 1.364 13.895.46 3.558.579 7.152.355 10.733zm75.583 23.672a144.389 144.389 0 0 1-13.308 3.379c-.768.16-1.544.312-2.32.457-4.714.885-9.486 1.53-14.309 1.973-.493-10.081-7.252-19.349-8.239-29.698a43.604 43.604 0 0 1 .08-7.724c.087-1.015.189-2.03.283-3.046l2.045-20.865a32.359 32.359 0 0 1 4.91-.239c9.428.225 18.007 4.308 27.348 7.492.696 4.402.939 8.863.725 13.315-.355 11.328-2.175 22.794 2.031 33.186.239.588.5 1.175.754 1.77z" fill="#FBBEBE"/><path d="M503.104 351.387c1.269 9.892-3.786 19.363-5.976 29.089-1.45 6.432-1.646 13.054-1.842 19.653l-1.146 39.532c-.116 3.953-.217 7.978.987 11.771 2.422 7.6 9.884 12.735 17.652 14.562 7.767 1.828 15.889.9 23.801-.145 3.88-.515 7.927-1.117 11.14-3.358 4.417-3.082 6.346-8.572 8.014-13.692l4.706-14.454c5.418 12.199 3.126 25.536 6.375 38.481a7.456 7.456 0 0 0 1.451 3.285c1.37 1.523 3.626 1.762 5.678 1.908 14.215 1 28.625 1.994 42.607-.726 3.844-.725 7.854-1.9 10.509-4.786 3.089-3.358 3.626-8.297 3.59-12.858-.196-15.673-5.86-30.794-7.122-46.415-.544-6.694-.276-13.424-.515-20.139a134.71 134.71 0 0 0-1.414-15.085 20.283 20.283 0 0 0-1.857-6.6c-2.176-4.061-6.694-6.266-10.972-7.977-33.245-13.504-69.811-13.373-105.666-12.046z" fill="#563F3F"/><path d="M564.654 156.787c17.223 0 31.185-13.962 31.185-31.185s-13.962-31.185-31.185-31.185-31.185 13.962-31.185 31.185 13.962 31.185 31.185 31.185z" fill="#FBBEBE"/><path d="M591.835 180.531c-2.313 5.076-5.954 10.153-11.371 11.444-4.982 1.196-10.262-1.204-13.932-4.78-3.669-3.575-6.07-8.216-8.615-12.662-1.857-3.249-3.924-6.527-7.064-8.572-4.293-2.785-9.834-2.713-14.896-1.893-5.062.819-10.088 2.284-15.23 1.951-6.404-.428-12.931-3.626-18.972-1.494 1.958 8.761 1.255 18.392 1.03 27.37a12.331 12.331 0 0 1-.58 4.09 13.22 13.22 0 0 1-2.111 3.394l-5.801 7.477c6.222 4.656 11.603 10.734 13.779 18.196 1.225 4.25.848 8.761.805 13.185-.138 12.989 2.683 25.927 1.791 38.887-1.044 15.179-7.107 29.523-10.233 44.412a116.3 116.3 0 0 0-1.494 38.873c32.505 11.248 65.996 17.006 100.357 18.892 6.07.333 12.626.384 17.609-3.104 4.141-2.901 6.461-7.869 7.252-12.873.79-5.004.246-10.095-.305-15.128-1.494-13.61-2.985-27.22-4.474-40.831-.849-7.745-1.697-15.534-1.146-23.301.413-5.802 1.602-11.495 2.785-17.173l7.252-34.855c1.037-4.953 2.081-9.943 4.134-14.562 1.682-3.772 4.01-7.253 5.867-10.922a48.234 48.234 0 0 0 4.525-13.975 9.263 9.263 0 0 0-.058-4.279c-.776-2.379-3.147-3.808-5.359-4.975a155.694 155.694 0 0 0-42.905-15.049c-1.015 4.272-.819 8.275-2.64 12.257z" fill="#E3E8F4"/><path d="M588.826 159.644c3.626-6.948 10.407-11.821 14.345-18.609a27.516 27.516 0 0 0 .885-25.383c-1.386-2.829-3.264-5.425-4.352-8.384-1.211-3.365-1.327-7.071-2.727-10.363-1.922-4.511-6.084-7.76-10.617-9.631-4.533-1.871-9.428-2.546-14.309-3.198l-16.477-2.22c-2.386-.319-4.859-.638-7.18 0-2.32.639-4.482 2.531-4.67 4.94-.225 2.85 2.277 5.503 1.697 8.303-.21.986-.791 1.987-.457 2.944a2.98 2.98 0 0 0 1.45 1.45c3.909 2.176 8.58 2.372 12.815 3.794 4.236 1.421 8.485 4.989 8.058 9.428-.233 2.386-1.77 4.866-.726 7.005 1.001 1.98 3.626 2.343 5.722 2.959 6.781 1.966 11.539 9.319 10.552 16.318-.304 2.176-1.087 4.257-1.247 6.44-.529 7.644.674 9.827 6.919 14.272l.319-.065z" fill="#3F3D56"/><path d="M631.186 192.7a10.557 10.557 0 0 1-.776 4.228c-2.262 4.823-9.188 4.518-13.779 7.252-5.715 3.409-6.977 11.016-7.499 17.645-.594 7.506-1.001 15.121.537 22.482 1.537 7.361 5.236 14.541 11.415 18.856 7.521 5.229 17.746 5.41 26.333 2.226 8.587-3.183 15.759-9.341 21.982-16.071 5.903-6.382 11.19-13.496 14.359-21.597.558-1.45 1.052-2.988.602-4.438-.674-2.176-3.046-3.162-4.975-4.352-4.504-2.719-7.506-7.462-9.065-12.474-1.56-5.011-1.821-10.341-1.871-15.599-.059-5.461-.073-11.43-3.554-15.643-3.481-4.214-9.515-5.396-15.012-5.353-4.497 0-16.942.428-20.009 4.352-2.517 3.263 1.494 13.815 1.312 18.486z" fill="#BE6F72"/><path opacity=".1" d="M631.186 192.7a10.557 10.557 0 0 1-.776 4.228c-2.262 4.823-9.188 4.518-13.779 7.252-5.715 3.409-6.977 11.016-7.499 17.645-.594 7.506-1.001 15.121.537 22.482 1.537 7.361 5.236 14.541 11.415 18.856 7.521 5.229 17.746 5.41 26.333 2.226 8.587-3.183 15.759-9.341 21.982-16.071 5.903-6.382 11.19-13.496 14.359-21.597.558-1.45 1.052-2.988.602-4.438-.674-2.176-3.046-3.162-4.975-4.352-4.504-2.719-7.506-7.462-9.065-12.474-1.56-5.011-1.821-10.341-1.871-15.599-.059-5.461-.073-11.43-3.554-15.643-3.481-4.214-9.515-5.396-15.012-5.353-4.497 0-16.942.428-20.009 4.352-2.517 3.263 1.494 13.815 1.312 18.486z" fill="#000"/><path d="M592.517 387.191a6.204 6.204 0 0 0 1.509 2.959 5.98 5.98 0 0 0 2.444 1.153c23.802 6.984 49.228 4.199 73.871 1.349-3.372-10.269-6.766-20.654-7.702-31.424-.776-8.884.095-18.131-3.053-26.463-.928-2.466-55.03 8.884-60.368 9.805-2.734.471-5.881.311-7.818 2.48-2.335 2.625-2.531 8.877-2.777 12.147-.696 9.45 1.254 18.965 3.894 27.994zm54.196 115.123a168.522 168.522 0 0 1-13.489 5.577 153.73 153.73 0 0 1-7.702 2.567 144.307 144.307 0 0 1-13.308 3.379c-2.625-6.657-5.253-13.317-7.883-19.98-1.936-4.902-3.873-9.826-5.49-14.838a92.792 92.792 0 0 1-2.77-10.436 74.447 74.447 0 0 1 1.798-36.094c10.052 1.893 19.879 3.126 29.778 4.561a326.605 326.605 0 0 1 15.955 2.59c.421 3.495.803 6.991 1.146 10.486.522 5.396.95 10.792 1.284 16.187.739 11.991.967 23.991.681 36.001z" fill="#BE6F72"/><path opacity=".1" d="M646.713 502.314a168.522 168.522 0 0 1-13.489 5.577 153.73 153.73 0 0 1-7.702 2.567 144.307 144.307 0 0 1-13.308 3.379c-2.625-6.657-5.253-13.317-7.883-19.98-1.936-4.902-3.873-9.826-5.49-14.838a92.792 92.792 0 0 1-2.77-10.436 74.447 74.447 0 0 1 1.798-36.094c10.052 1.893 19.879 3.126 29.778 4.561a326.605 326.605 0 0 1 15.955 2.59c.421 3.495.803 6.991 1.146 10.486.522 5.396.95 10.792 1.284 16.187.739 11.991.967 23.991.681 36.001z" fill="#000"/><path d="M702.483 470.889c.058 4.178-1.131 8.442-2.233 12.54-.08.29-.153.573-.225.863a11.955 11.955 0 0 1-6.404-4.801 13.713 13.713 0 0 1-1.719-4.025 708.675 708.675 0 0 1-9.935 6.636c-10.929 7.179-22.482 14.308-35.254 20.212a168.522 168.522 0 0 1-13.489 5.577 359.466 359.466 0 0 1-2.756-10.219 94.44 94.44 0 0 1-2.233-10.726 54.482 54.482 0 0 1 2.407-24.404l.327-.943a53.346 53.346 0 0 1 4.75-10.001c1.806-2.9 5.381-2.415 9.029-1.45 1.654.428 3.329.943 4.852 1.262 9.479 1.987 19.32-.065 29.009.479a34.683 34.683 0 0 1 13.308 3.386c4.663 2.343 8.42 5.925 9.892 10.879.209.713.369 1.44.479 2.175.122.849.187 1.704.195 2.56zM528.008 136.886c-14.976-14.504-31.997-26.797-49.409-38.291a135.783 135.783 0 0 1-13.055-9.305c-4.351-3.626-8.144-7.883-12.764-11.147-4.619-3.263-10.334-5.504-15.882-4.431-5.548 1.073-10.479 6.382-9.667 11.937.725 4.888 5.12 8.239 9.181 11.046 7.688 5.315 15.411 10.646 23.773 14.816a74.46 74.46 0 0 1 8.434 4.496c5.208 3.51 9 8.703 12.938 13.584a188.877 188.877 0 0 0 53.667 45.689c.247.145 8.826-18.37 8.464-20.771-.798-5.518-11.735-13.793-15.68-17.623z" fill="#BE6F72"/><path d="M656.098 371.251c-11.56.725-22.649 4.627-33.955 7.114-11.306 2.488-23.592 3.452-34.086-1.45l6.382 43.578c.356 2.423.725 4.903.196 7.289-.486 2.277-1.748 4.424-1.639 6.752.167 3.684 3.626 6.273 6.882 7.977a61.531 61.531 0 0 0 30.75 7.086c-.791 3.191-1.777 6.346-2.575 9.537 5.331 5.722 14.048 6.106 21.656 7.919 5.801 1.371 11.241 3.749 16.926 5.425a72.253 72.253 0 0 0 21.184 2.951c4.838-.05 9.965-.725 13.722-3.742 4.619-3.72 6.055-10.044 7.056-15.89.558-3.263 1.073-6.57.725-9.863-.377-3.785-1.842-7.368-3.292-10.878l-9.936-24.114c-1.806-4.351-3.626-8.768-5.802-12.967-7.107-13.583-18.899-27.674-34.194-26.724z" fill="#3F3D56"/><path d="M664.946 220.679a10.87 10.87 0 0 1 4.505-5.419 10.871 10.871 0 0 1 6.881-1.521c2.901.406 5.49 1.994 7.977 3.546l13.852 8.645a60.309 60.309 0 0 1 6.592 4.54c9.552 7.919 13.236 20.937 14.287 33.302 1.052 12.365 0 24.941 2.459 37.103-5.845 4.844-12.329 8.942-18.174 13.779-3.061 2.531-6.158 5.077-8.478 8.333-1.842 2.56-3.155 5.49-5.077 7.977a19.188 19.188 0 0 1-12.713 7.064c3.169 1.842 4.946 5.417 5.802 8.978.856 3.561 1.088 7.253 2.038 10.814 1.305 4.837 4.01 9.253 4.902 14.185.624 3.401.348 6.89.573 10.342 1.131 17.862 15.15 33.476 14.244 51.346a77.868 77.868 0 0 1-18.61-9.784c-2.582-1.849-5.076-3.851-7.52-5.845l-18.472-14.976c-8.985-7.252-18.058-14.664-25.201-23.773-4.482-5.715-8.138-12.039-12.634-17.739-4.496-5.7-10.03-10.878-16.898-13.271-1.008 1.515-2.799 2.567-3.807 4.083a3.02 3.02 0 0 0-.421.783 3.428 3.428 0 0 0 .24 2.001 41.694 41.694 0 0 1 1.45 8.986l.457 5.454c.17 1.445.17 2.906 0 4.351-.689 4.663-5.011 8.282-9.675 9.007a4.198 4.198 0 0 1-2.038-.065c-1.298-.435-2.016-1.806-2.407-3.111-1.835-6.194.979-12.728 1.204-19.175a46.377 46.377 0 0 0-.167-4.903l-.435-6.432c-4.214-.878-6.636-5.403-7.753-9.559-3.017-11.219-6.056-22.83-4.308-34.318.464-3.075 1.277-6.193.725-9.268-.725-4.112-3.684-7.448-5.243-11.321-5.077-12.626 5.708-26.333 4.707-39.887-.421-5.693-4.033-10.639-6.208-15.919a44.913 44.913 0 0 0-4.352-8.782c-2.219-3.17-5.214-5.708-8.122-8.261a310.198 310.198 0 0 1-25.514-25.136 18.862 18.862 0 0 1-10.987-5.033c-1.914-1.813-3.488-4.207-3.539-6.839-.051-2.633 1.893-5.396 4.526-5.534 1.537-.079 2.973.682 4.474 1.016 4.7 1.03 9.428-2.43 11.524-6.774 2.096-4.344 2.096-9.341 2.06-14.156a13.575 13.575 0 0 1 12.568 4.402c3.242 3.524 5.352 7.919 7.905 11.966a18.532 18.532 0 0 0 3.945 4.765c3.488 2.77 8.514 3.292 11.56 6.527 1.545 1.653 2.401 3.844 3.815 5.613 3.974 4.982 11.248 5.592 16.68 8.87 5.432 3.278 9.21 9.268 15.23 11.212 2.176.725 4.547.819 6.701 1.624 4.975 1.849 8.014 7.136 8.703 12.394.689 5.258-.486 10.574-1.676 15.752l-2.792 12.119c-.616 2.683-1.088 5.91.892 7.825a8.065 8.065 0 0 0 3.213 1.617c5.077 1.654 10.733 3.278 15.505.936 2.256-1.117 4.025-3.003 5.643-4.932 7.078-8.34 11.785-19.262 15.382-29.524z" fill="#F17A78"/><path d="M722.188 467.292c-1.001 6.636-4.656 13.163-10.639 16.202a15.233 15.233 0 0 1-11.524.798 11.955 11.955 0 0 1-6.404-4.801 13.713 13.713 0 0 1-1.719-4.025c0-.073-.036-.153-.051-.225a31.918 31.918 0 0 1-.674-7.811c-.002-4.07.24-8.136.725-12.176a65.957 65.957 0 0 1 2.002-10.067c1.349-4.706 3.292-9.239 5.076-13.779.929-2.393 1.821-4.794 2.553-7.252.443-1.451.82-2.945 1.124-4.453l.109-.544c.058-.305.109-.609.16-.914.725-4.134.935-8.412 2.799-12.147 4.351-8.768 12.822-6.527 14.113 1.559.098.626.153 1.259.167 1.893.196 10.233-3.866 20.234-2.009 30.503a71.093 71.093 0 0 0 1.972 7.412c.653 2.241 1.241 4.511 1.69 6.809a38.71 38.71 0 0 1 .53 13.018z" fill="#BE6F72"/><path d="M726.176 353.504c.196 4.192.001 8.435.842 12.547 1.965 9.718 9.428 18.319 8.601 28.197-.203 2.407-1.095 4.996-3.198 6.186-2.103 1.189-5.585 1.095-6.274 3.488-.195.667-.094 1.393-.311 2.052-.457 1.407-2.176 2.009-3.626 1.973-1.451-.036-2.901-.515-4.403-.391-5.258.442-7.187 7.477-11.872 9.892-3.154 1.624-7.252.725-9.855-1.676-2.604-2.4-3.743-6.142-3.54-9.689.153-2.676 1.001-5.258 1.451-7.897.819-4.707.392-9.53-.036-14.287-.631-6.97-1.284-14.026-3.576-20.633-1.08-3.119-2.516-6.099-3.452-9.261-1.334-4.475-1.639-9.182-1.777-13.845-.282-9.812.392-20.306 6.252-28.197 4.402-5.917 10.711-10.726 15.694-16.201 3.118-3.43 4.018-4.504 7.462-1.596 2.836 2.386 5.802 5.679 6.121 8.913.871 8.29 0 16.441 1.552 24.883s3.539 16.876 3.945 25.542z" fill="#F17A78"/><path d="M650.956 193.773c20.427 0 36.987-16.559 36.987-36.986 0-20.428-16.56-36.987-36.987-36.987-20.427 0-36.987 16.559-36.987 36.987 0 20.427 16.56 36.986 36.987 36.986z" fill="#BE6F72"/><path d="M684.824 227.54c.812-1.139 1.777-2.364 3.155-2.604a5.512 5.512 0 0 1 3.002.631l9.74 4.069a31.801 31.801 0 0 0 4.526-14.331c.203-3.111-.044-6.266.551-9.326.884-4.54 3.575-8.609 4.199-13.192.493-3.699-.399-7.419-.936-11.11-1.653-11.401.124-23.034-.827-34.514-.95-11.48-5.555-23.78-15.795-29.053-2.901-1.45-6.027-2.32-9.044-3.466-6.722-2.56-12.749-6.658-19.392-9.428-6.643-2.77-14.447-4.04-20.887-.856-6.44 3.184-10.189 12.14-6.004 17.986 1.377 1.922 3.394 3.285 5.323 4.67 3.923 2.807 7.926 6.273 8.833 11.016 1.624 8.536-7.252 15.23-9.754 23.577a20.05 20.05 0 0 0-.24 10.001c1.081 4.946 3.721 9.617 3.626 14.679-.072 5.548-3.394 10.574-4.017 16.093-.225 2.023-.087 4.075-.341 6.092a31.42 31.42 0 0 1-2.343 7.709c-5.801 14.504-11.683 29.161-20.306 42.201a55.896 55.896 0 0 0 26.565-6.208 43.901 43.901 0 0 1-6.65 15.621 50.344 50.344 0 0 0 20.785-7.252 67.522 67.522 0 0 1-6.6 15.672c.247-.421 4.808-1.45 5.65-1.929a9.838 9.838 0 0 0 3.988-4.257c2.466-4.41 4.004-9.725 6.288-14.309a208.367 208.367 0 0 1 16.905-28.182zM404.321 5.584a34.334 34.334 0 0 1-5.287.124 1.153 1.153 0 0 0-1.269 1l-3.372 25.296a10.279 10.279 0 0 1-2.176 5.012 10.923 10.923 0 0 0-2.459 8.347v42.97s-.217 5.729 4.185 5.729a63.64 63.64 0 0 0 15.868 0s3.524-.667 3.524-5.954v-42.31a10.342 10.342 0 0 0-2.175-8.413 10.53 10.53 0 0 1-2.111-4.982l-3.502-25.825a1.153 1.153 0 0 0-1.226-.994z" fill="#3F3D56"/><path d="M404.343 46.132h-5.345a8.014 8.014 0 0 0-8.014 8.013v20.11a8.014 8.014 0 0 0 8.014 8.015h5.345a8.014 8.014 0 0 0 8.014-8.014v-20.11a8.014 8.014 0 0 0-8.014-8.014z" fill="#EE4744"/><path d="M454.362 42.57a34.342 34.342 0 0 1-5.287.124 1.155 1.155 0 0 0-1.269 1.001l-3.373 25.296a10.268 10.268 0 0 1-2.175 5.011 10.923 10.923 0 0 0-2.459 8.348v42.969s-.217 5.73 4.185 5.73a63.64 63.64 0 0 0 15.868 0s3.524-.668 3.524-5.955v-42.31a10.342 10.342 0 0 0-2.176-8.412 10.54 10.54 0 0 1-2.11-4.982l-3.503-25.826a1.152 1.152 0 0 0-1.225-.993z" fill="#3F3D56"/><path d="M454.383 83.118h-5.344a8.014 8.014 0 0 0-8.014 8.014v20.11a8.014 8.014 0 0 0 8.014 8.014h5.344a8.014 8.014 0 0 0 8.014-8.014v-20.11a8.014 8.014 0 0 0-8.014-8.014z" fill="#EE4744"/><g opacity=".2"><path opacity=".2" d="M398.113 475.915a13.803 13.803 0 0 1-.268 2.328 491.117 491.117 0 0 0-15.23-2.176v-.623a12.237 12.237 0 0 1 1.813-6.15c1.494-2.364 3.764-3.844 6.266-3.764 2.502.08 4.67 1.697 6.012 4.141a12.228 12.228 0 0 1 1.407 6.244z" fill="#3F3D56"/><path opacity=".2" d="M398.52 463.531c.177-5.609-3.152-10.265-7.435-10.4-4.284-.136-7.9 4.301-8.077 9.91-.177 5.608 3.152 10.265 7.435 10.4 4.284.136 7.9-4.301 8.077-9.91z" fill="#3F3D56"/><path opacity=".2" d="M398.916 451.115c.177-5.609-3.152-10.265-7.435-10.401-4.284-.135-7.9 4.302-8.077 9.911-.178 5.608 3.151 10.265 7.435 10.4 4.283.135 7.899-4.302 8.077-9.91z" fill="#3F3D56"/><path opacity=".2" d="M399.304 438.699c.177-5.609-3.151-10.265-7.435-10.401-4.284-.135-7.9 4.302-8.077 9.91-.177 5.609 3.152 10.266 7.435 10.401 4.284.135 7.9-4.302 8.077-9.91z" fill="#3F3D56"/><path opacity=".2" d="M399.7 426.282c.177-5.608-3.152-10.265-7.435-10.4-4.284-.135-7.9 4.302-8.077 9.91-.177 5.609 3.151 10.265 7.435 10.401 4.283.135 7.9-4.302 8.077-9.911z" fill="#3F3D56"/><path opacity=".2" d="M365.551 340.124a36.074 36.074 0 0 1-2.756-4.352l20.495-2.705-22.062-.529a37.27 37.27 0 0 1 .225-29.473l29.096 16.281-26.652-20.915a37.187 37.187 0 0 1 53.447-10.562 37.177 37.177 0 0 1 13.833 40.716 37.19 37.19 0 0 1-7.202 13.359 36.83 36.83 0 0 1 4.025 6.912l-26.899 12.909 28.524-8.58a37.241 37.241 0 0 1-7.122 34.746 37.193 37.193 0 0 1 2.988 39.356 37.19 37.19 0 1 1-61.412-41.198 37.19 37.19 0 0 1 1.45-45.965h.022z" fill="#EE4744"/><path opacity=".1" d="M431.205 365.202a36.99 36.99 0 0 1-8.703 22.729 37.189 37.189 0 1 1-58.424-1.842c-4.765-6.477 67.258-25.057 67.127-20.887z" fill="#000"/></g><path d="M716.603 512.284l-.752-.413c.703-1.154-1.185-6.066-2.743-8.54-1.082-1.716-1.76-3.276-2.074-4.77-.501-2.378-.025-4.44 1.412-6.128 2.983-3.502 2.957-10.188 2.956-10.255l.869-.008c.003.286.031 7.047-3.149 10.781-2.113 2.482-1.867 5.832.732 9.957 1.224 1.943 3.841 7.586 2.749 9.376z" fill="#D4D5E0"/><path d="M725.892 475.016c.188-6.863-4.241-12.556-9.892-12.717-5.652-.161-10.386 5.272-10.574 12.134-.182 6.663 3.988 12.224 9.403 12.689a3.682 3.682 0 0 1-.839 1.876c-.821.854 2.582.073 2.582.073a6.274 6.274 0 0 1-.367-1.943c5.252-.396 9.509-5.612 9.687-12.112z" fill="#EE4744"/><path opacity=".2" d="M708.071 479.496c-.857-2.497-.067-5.005 1.765-5.757-.085.018-.169.04-.253.066-2.005.622-2.904 3.24-2.01 5.845.869 2.531 3.11 4.119 5.074 3.64.04.198-3.709-1.268-4.576-3.794z" fill="#fff"/><path d="M721.08 521.886l.811.034c.056-1.333 4.142-4.519 6.679-5.813 1.76-.899 3.119-1.871 4.157-2.972 1.651-1.753 2.367-3.736 2.125-5.894-.5-4.478 3.055-10.11 3.091-10.167l-.681-.449c-.154.24-3.75 5.935-3.217 10.709.355 3.173-1.61 5.876-5.84 8.035-1.993 1.017-7.04 4.449-7.125 6.517z" fill="#D4D5E0"/><path d="M733.328 485.012c3.473-5.773 10.241-8.107 15.118-5.212 4.877 2.895 6.016 9.922 2.543 15.695-3.371 5.606-9.85 7.968-14.687 5.451a3.546 3.546 0 0 0-.282 2c.244 1.147-2.228-1.322-2.228-1.322.52-.395.972-.871 1.339-1.41-4.243-3.141-5.092-9.733-1.803-15.202z" fill="#EE4744"/><path opacity=".2" d="M745.627 498.374c2.087-1.729 2.819-4.339 1.722-5.965a2.6 2.6 0 0 1 .172.191c1.312 1.604.609 4.367-1.568 6.172-2.114 1.752-4.842 1.955-6.199.498-.143.152 3.763.853 5.873-.896z" fill="#fff"/><path d="M572.92 555.011l-.811.034c-.056-1.333-4.142-4.519-6.679-5.813-1.76-.899-3.119-1.871-4.157-2.972-1.651-1.753-2.367-3.736-2.125-5.894.5-4.478-3.055-10.11-3.091-10.167l.681-.449c.154.24 3.75 5.935 3.217 10.709-.355 3.173 1.61 5.876 5.84 8.035 1.993 1.017 7.04 4.449 7.125 6.517z" fill="#D4D5E0"/><path d="M560.672 518.739c-3.473-5.773-10.241-8.107-15.118-5.212-4.877 2.895-6.016 9.922-2.543 15.695 3.371 5.606 9.85 7.968 14.687 5.451.286.626.384 1.321.282 2.001-.244 1.146 2.228-1.323 2.228-1.323a6.053 6.053 0 0 1-1.339-1.409c4.243-3.142 5.092-9.734 1.803-15.203z" fill="#EE4744"/><path opacity=".2" d="M548.373 532.101c-2.087-1.729-2.819-4.338-1.722-5.965-.06.061-.118.125-.172.192-1.312 1.604-.609 4.367 1.568 6.171 2.114 1.752 4.842 1.956 6.199.498.143.152-3.763.853-5.873-.896z" fill="#fff"/><path d="M600.625 468.283l-.841.035c-.057-1.333-4.289-4.519-6.916-5.814-1.823-.898-3.232-1.87-4.306-2.971-1.711-1.753-2.451-3.736-2.202-5.895.518-4.477-3.164-10.11-3.201-10.166l.706-.449c.159.24 3.884 5.935 3.331 10.709-.367 3.173 1.668 5.876 6.049 8.035 2.065 1.017 7.291 4.449 7.38 6.516z" fill="#D4D5E0"/><path d="M588.376 432.012c-3.472-5.773-10.241-8.107-15.118-5.212-4.877 2.895-6.015 9.922-2.543 15.695 3.372 5.606 9.85 7.968 14.688 5.451.286.626.383 1.321.281 2-.243 1.147 2.229-1.322 2.229-1.322a6.038 6.038 0 0 1-1.339-1.41c4.243-3.141 5.091-9.733 1.802-15.202z" fill="#EE4744"/><path opacity=".2" d="M575.475 444.771c-2.087-1.729-2.818-4.338-1.722-5.964a2.85 2.85 0 0 0-.172.191c-1.311 1.604-.609 4.367 1.568 6.171 2.115 1.752 4.842 1.956 6.199.498.143.152-3.762.853-5.873-.896z" fill="#fff"/><path d="M590.989 505.022l-.841.035c-.057-1.333-4.289-4.519-6.917-5.814-1.823-.898-3.231-1.87-4.305-2.971-1.711-1.753-2.452-3.737-2.202-5.895.518-4.477-3.164-10.11-3.201-10.166l.706-.45c.158.24 3.883 5.936 3.331 10.709-.367 3.173 1.668 5.877 6.049 8.035 2.064 1.018 7.291 4.45 7.38 6.517z" fill="#D4D5E0"/><path d="M578.74 468.751c-3.473-5.774-10.241-8.107-15.118-5.213-4.877 2.895-6.016 9.922-2.543 15.696 3.371 5.605 9.85 7.968 14.688 5.451.285.626.383 1.32.281 2-.244 1.146 2.228-1.323 2.228-1.323a6.074 6.074 0 0 1-1.339-1.409c4.243-3.141 5.092-9.734 1.803-15.202z" fill="#EE4744"/><path opacity=".2" d="M566.441 481.51c-2.087-1.729-2.819-4.338-1.722-5.965-.06.061-.118.125-.172.192-1.312 1.604-.609 4.367 1.568 6.171 2.115 1.752 4.842 1.956 6.199.498.143.152-3.762.853-5.873-.896z" fill="#fff"/><path d="M705.372 553.841l-.554-.645c1.091-.855 1.143-6.143.597-9.01-.378-1.989-.436-3.695-.176-5.215.414-2.42 1.628-4.212 3.608-5.326 4.107-2.311 6.57-8.649 6.594-8.713l.82.286c-.103.272-2.592 6.682-6.971 9.146-2.911 1.637-3.926 4.892-3.016 9.673.429 2.253.79 8.477-.902 9.804z" fill="#D4D5E0"/><path d="M727.246 521.974c2.542-6.203.359-12.95-4.876-15.071-5.235-2.121-11.54 1.188-14.082 7.39-2.468 6.022-.481 12.558 4.428 14.874a3.567 3.567 0 0 1-1.432 1.421c-1.064.493 2.392.969 2.392.969.005-.648.115-1.29.326-1.903 5.053 1.472 10.836-1.805 13.244-7.68z" fill="#EE4744"/><path opacity=".2" d="M709.552 519.675c.118-2.709 1.748-4.86 3.698-4.956a2.684 2.684 0 0 0-.255-.023c-2.062-.09-3.832 2.129-3.954 4.957-.119 2.745 1.36 5.054 3.333 5.268-.035.205-2.94-2.505-2.822-5.246z" fill="#fff"/><path opacity=".1" d="M638.568 561.67c43.242 0 78.296-2.561 78.296-5.721s-35.054-5.722-78.296-5.722c-43.241 0-78.295 2.562-78.295 5.722 0 3.16 35.054 5.721 78.295 5.721z" fill="#EE4744"/><path d="M631.943 404.922v9.192h.602v-9.637l-.602.445zm19.273 2.882v8.116h1.807l-.402-9.034-1.405.918zm-37.341 1.491l-1.205.94v8.095h1.205v-9.035z" fill="#53425A"/><path d="M617.489 433.386h-6.023v-16.261h4.633a2.065 2.065 0 0 0-.107.386c-.18.934-.125 2.696.044 4.715.403 4.84 1.453 11.16 1.453 11.16zm19.875-.264l-7.228.867v-21.08h4.573a8.864 8.864 0 0 0-.062.81c-.013 1.591.082 3.18.285 4.758.155 1.373.359 2.848.582 4.315.173 1.137.359 2.267.542 3.343a240.873 240.873 0 0 0 1.308 6.987zm19.272-2.12l-6.625.578v-16.864h4.555c-.161.359-.232.964-.234 1.734.029 1.391.148 2.779.356 4.153.646 4.724 1.948 10.399 1.948 10.399z" fill="#EE4744"/><path d="M615.025 392.432s.461 1.768-4.382 6.631-2.921 14.662 2.23 14.367c0 0 4.815.761 6.547-2.38.36-.678.522-1.437.468-2.196a4.097 4.097 0 0 0-.776-2.115c-1.591-2.247-4.661-6.968-4.087-9.223v-5.084z" fill="#FFC13D"/><path opacity=".5" d="M613.963 399.057s.276 1.111-2.629 4.168c-2.906 3.056-1.753 9.216 1.337 9.031 0 0 2.954.489 3.962-1.563a2.654 2.654 0 0 0-.221-2.648c-.903-1.335-2.591-4.05-2.487-5.541.016-.233.038-.466.038-.7v-2.747z" fill="#fff"/><path d="M653.212 390.625s.438 1.718-4.163 6.442c-4.601 4.723-2.775 14.243 2.118 13.956 0 0 4.574.74 6.22-2.312a4.015 4.015 0 0 0-.292-4.188c-1.512-2.182-4.429-6.768-3.883-8.959v-4.939z" fill="#FFC13D"/><path opacity=".5" d="M652.637 400.864s.207.808-1.972 3.031-1.315 6.703 1.003 6.568c0 0 2.167.348 2.946-1.088a1.886 1.886 0 0 0-.138-1.971c-.716-1.027-2.098-3.185-1.839-4.216v-2.324z" fill="#fff"/><path d="M633.567 384s.53 2.122-5.039 7.957c-5.57 5.836-3.36 17.595 2.563 17.241 0 0 5.538.914 7.53-2.856a5.053 5.053 0 0 0-.354-5.173c-1.83-2.696-5.36-8.361-4.7-11.068V384z" fill="#FFC13D"/><path opacity=".5" d="M632.992 394.841s.3 1.162-2.848 4.358c-3.148 3.195-1.899 9.635 1.449 9.441 0 0 3.129.5 4.255-1.564a2.68 2.68 0 0 0 .304-1.444 2.711 2.711 0 0 0-.503-1.389c-1.035-1.476-3.03-4.579-2.657-6.061v-3.341zm-16.708 27.012c-1.492 1.405-3.553 3.918-4.818 5.511v-5.762c1.394-1.502 3.392-3.287 4.772-4.477-.191.937-.132 2.704.046 4.728zm18.671-3.263a52.482 52.482 0 0 0-4.819 4.558v-5.83a26.19 26.19 0 0 1 4.532-3.807 39.361 39.361 0 0 0 .287 5.079z" fill="#fff"/><path d="M636.159 426.446a503.479 503.479 0 0 0-6.023 5.134v-3.856c1.805-1.577 4.013-3.393 5.472-4.576.175 1.121.364 2.236.551 3.298z" fill="#EE4744"/><path opacity=".5" d="M654.83 420.791c-1.645 1.435-3.552 3.408-4.819 4.766v-5.588c1.346-1.396 3.131-2.629 4.452-3.446.03 1.429.152 2.855.367 4.268z" fill="#fff"/><path d="M671.091 437.602H599.42v32.523h71.671v-32.523z" fill="#C99398"/><path opacity=".1" d="M671.091 437.602v4.714c-1.371.254-3.167-.138-4.672-.618a6.477 6.477 0 0 0-2.763-.266 6.402 6.402 0 0 0-2.609.912c-4.129 2.577-7.353 2.032-9.602.75a8.62 8.62 0 0 0-7.484-.551 8.475 8.475 0 0 1-3.319.581 7.26 7.26 0 0 0-3.767.992c-3.391 1.96-6.771.826-8.894-.359a6.529 6.529 0 0 0-4.599-.633 6.943 6.943 0 0 1-2.043.159 7.964 7.964 0 0 0-4.511.929c-5.598 3.122-7.447-.669-8.55-1.227-1.245-.629-1.39 1.537-1.757 1.537s-1.61-2.864-1.904-1.887c-.136.459-1.289 1.011-2.475 1.468a5.162 5.162 0 0 1-2.722.268v-6.769h71.671z" fill="#000"/><path d="M601.979 430.684s-11.838 5.185-5.521 11.664a4.953 4.953 0 0 0 2.521 1.361c.96.196 1.958.107 2.865-.257 1.195-.472 2.357-1.044 2.495-1.519.295-1.014 1.55 1.955 1.919 1.955s.516-2.245 1.77-1.593c1.112.577 2.975 4.507 8.617 1.27a7.859 7.859 0 0 1 4.548-.962 6.74 6.74 0 0 0 2.057-.165 6.43 6.43 0 0 1 4.636.655c2.141 1.228 5.548 2.403 8.965.374a7.15 7.15 0 0 1 3.797-1.029 8.287 8.287 0 0 0 3.343-.603 8.508 8.508 0 0 1 3.843-.601 8.45 8.45 0 0 1 3.702 1.173c2.267 1.329 5.517 1.893 9.677-.776a6.313 6.313 0 0 1 2.629-.946 6.368 6.368 0 0 1 2.785.275c3.026.995 7.23 1.629 6.849-2.721-.59-6.734-8.707-8.69-12.101-8.762-3.394-.073-9.002-.652-15.347 0-6.346.652-19.258.579-19.258.579s-21.682-.845-24.791.628z" fill="#F8F8FA"/><path d="M687.352 470.125H584.364v40.352h102.988v-40.352z" fill="#C99398"/><path opacity=".1" d="M671.091 463.5v6.625h-39.856a5.519 5.519 0 0 0-1.216 0H599.42v-5.907c3.334.393 6.697.892 10.011.879 4.399-.019 8.746-.902 13.153-.665 15.412.829 31.104 1.075 46.453-.69.683-.078 1.369-.161 2.054-.242zm16.261 6.625v3.484c-1.119-.135-2.197-.562-3.279-.9-.975-.304-2.031-.541-3.022-.289-.522.133-.998.395-1.513.547-2.155.642-4.403-.695-6.662-.704-2.239-.008-4.241 1.281-6.427 1.75-3.378.725-6.832-.547-10.069-1.726-1.309-.476-2.827-.93-4.05-.279-.538.285-.943.754-1.467 1.062-1.534.905-3.54.199-5.069-.714-.967-.577-2.137-1.255-3.157-.769-.527.249-.856.754-1.292 1.128-1.381 1.182-3.553.865-5.246.146-1.69-.718-3.296-1.779-5.142-1.91-2.601-.188-4.88 1.488-7.15 2.715-2.27 1.228-5.418 1.955-7.27.197-.613-.581-1.067-1.422-1.905-1.623-1.387-.33-2.429 1.31-3.828 1.597-1.723.355-3.126-1.396-4.854-1.741-1.787-.357-3.451.831-5.029 1.708-1.577.876-3.869 1.371-5.013.012-.365-.433-.564-1.016-1.064-1.303a2.211 2.211 0 0 0-1.23-.188 12.988 12.988 0 0 0-4.339.99c-1.575.664-3.099 1.659-4.818 1.627-.031 0-.062-.002-.093-.004v-4.813h102.988z" fill="#000"/><path d="M609.296 465.646c-7.862.033-15.981-2.897-23.393-.291-2.689.946-5.416 3.183-5.133 6.005a4.111 4.111 0 0 0 1.299 2.496 4.151 4.151 0 0 0 2.607 1.086c1.711.033 3.228-.999 4.795-1.685a12.475 12.475 0 0 1 4.318-1.028c.419-.056.845.012 1.225.197.496.296.695.901 1.058 1.35 1.139 1.407 3.418.895 4.988-.014 1.57-.908 3.227-2.139 5.005-1.769 1.718.357 3.114 2.172 4.83 1.804 1.39-.298 2.427-1.995 3.808-1.653.836.206 1.286 1.077 1.897 1.681 1.841 1.819 4.974 1.067 7.233-.205 2.259-1.272 4.526-3.007 7.115-2.814 1.837.138 3.434 1.237 5.118 1.98 1.684.744 3.846 1.072 5.219-.15.435-.388.763-.912 1.286-1.171 1.014-.502 2.18.201 3.141.798 1.521.945 3.519 1.677 5.045.739.52-.319.924-.805 1.458-1.1 1.218-.675 2.73-.204 4.032.29 3.22 1.22 6.658 2.538 10.02 1.787 2.174-.486 4.168-1.82 6.395-1.812 2.247.008 4.484 1.394 6.629.729.513-.158.986-.429 1.505-.567.988-.261 2.036-.016 3.008.3 1.29.419 2.574.971 3.93.975 1.357.004 2.841-.733 3.165-2.042.249-1.003-.235-2.042-.839-2.882-2.193-3.05-5.996-4.619-9.744-5.037-3.748-.417-7.524.165-11.269.608-15.387 1.817-31.118 1.564-46.565.71-4.419-.244-8.776.667-13.186.685z" fill="#F8F8FA"/><path d="M690.966 506.864H577.739v46.375h113.227v-46.375z" fill="#C99398"/><path opacity=".1" d="M691.568 505.418a130.177 130.177 0 0 1-17.196 2.633 11.48 11.48 0 0 0-5.802.456c-.036.012-.071.023-.106.036-3.573 1.303-6.648 4.393-10.437 4.343-3.024-.041-5.639-2.1-8.544-2.962a10.582 10.582 0 0 0-2.551-.429 10.78 10.78 0 0 0-1.76.05c-3.513.095-7.026.133-10.54.059-5.154-.107-10.297-.459-15.441-.809l-16.494-1.123a593884.246 593884.246 0 0 0-19.329-1.317c-1.368-.093-2.383.211-2.936-1.048-.656-1.508-.077-3.008.727-4.32.692.014 1.386.064 2.075.114 10.476.76 20.95 1.547 31.422 2.36l-1.61.293a170.677 170.677 0 0 1 33.08-2.109c5.165.175 10.359.584 15.487-.095 3.604-.477 7.135-1.484 10.756-1.8 4.974-.434 9.959.452 14.88 1.335a28.96 28.96 0 0 1 3.075.672c.262 1.298.555 2.594 1.244 3.661z" fill="#000"/><path opacity=".1" d="M690.966 506.864v4.362c-1.412-.208-2.796-.414-3.654.584-.403.471-.559 1.11-.95 1.592-.808.991-2.385.989-3.538.426-1.15-.562-2.028-1.547-3.02-2.357a12.04 12.04 0 0 0-5.448-2.454 12.076 12.076 0 0 0-5.963.464c-3.568 1.257-6.639 4.236-10.422 4.188-3.021-.04-5.632-2.025-8.533-2.857a11.57 11.57 0 0 0-9.724 1.644c-2.054 1.451-3.995 3.704-6.496 3.417-1.311-.151-2.413-1-3.526-1.707a18.797 18.797 0 0 0-7.385-2.723c-1.146-.162-2.362-.21-3.418.262-1.331.598-2.191 1.918-3.428 2.693-2.871 1.797-6.593.175-9.551-1.474-2.961-1.648-6.624-3.335-9.556-1.641-.691.398-1.283.967-2.013 1.287-4.125 1.801-8.175-5.139-12.407-3.605-.955.346-1.716 1.092-2.655 1.477a3.203 3.203 0 0 1-1.54.215v-3.793h113.227z" fill="#000"/><path d="M614.782 503.94a6724.024 6724.024 0 0 0-31.408-2.284c-1.818-.127-3.682-.25-5.43.268-1.747.518-3.38 1.819-3.753 3.599-.565 2.69 2.635 5.344 5.183 4.298.941-.386 1.702-1.136 2.658-1.483 4.235-1.537 8.289 5.426 12.416 3.618.731-.321 1.323-.89 2.014-1.29 2.936-1.701 6.602-.006 9.564 1.648 2.962 1.653 6.687 3.279 9.561 1.476 1.238-.776 2.097-2.101 3.43-2.7 1.057-.475 2.273-.427 3.421-.263 2.63.377 5.15 1.309 7.392 2.732 1.114.708 2.217 1.56 3.529 1.711 2.503.289 4.446-1.972 6.501-3.428a11.577 11.577 0 0 1 9.732-1.65c2.903.835 5.517 2.828 8.539 2.867 3.787.049 6.861-2.94 10.431-4.202a12.062 12.062 0 0 1 11.422 1.997c.993.813 1.87 1.8 3.023 2.365 1.153.565 2.731.568 3.54-.428.392-.482.547-1.125.951-1.596 1.653-1.928 5.253.62 7.257-.942a2.73 2.73 0 0 0 .917-1.507c.503-1.997-.755-4.103-2.478-5.238-1.723-1.134-3.822-1.513-5.856-1.866-4.916-.855-9.899-1.713-14.871-1.293-3.62.305-7.149 1.282-10.751 1.743-5.125.656-10.316.261-15.48.092a176.1 176.1 0 0 0-33.065 2.039" fill="#F8F8FA"/><path opacity=".1" d="M690.966 540.474v10.901c-4.334.221-8.668.44-13.003.658-7 .355-14.007.709-21.013.574-5.922-.116-11.831-.58-17.75-.764-12.447-.385-24.929.479-37.34-.512-3.973-.317-7.933-.823-11.912-1.048a88.054 88.054 0 0 0-12.209.175v-10.271c.374-.03.749-.039 1.124-.026 1.963.064 3.893.528 5.669 1.364 1.388.654 2.703 1.542 4.217 1.803 3.937.676 7.358-3.025 11.344-3.32 3.21-.236 6.094 1.744 8.848 3.401.53.317 1.12.637 1.729.547.51-.075.931-.422 1.346-.727 3.929-2.884 9.915-2.534 13.474.79.387.359.772.764 1.283.898 1.01.267 1.916-.604 2.717-1.274 4.338-3.639 11.023-2.545 16.001.168.922.502 1.943 1.073 2.961.81.682-.175 1.208-.696 1.753-1.14 4.239-3.46 10.615-2.817 15.575-.49.48.225.986.468 1.511.409.632-.074 1.116-.558 1.602-.963a8.2 8.2 0 0 1 8.59-1.059c.783.374 1.509.88 2.341 1.134 2.369.72 4.776-.745 7.14-1.486a12.33 12.33 0 0 1 4.002-.552z" fill="#000"/><path d="M703.011 551.373c-8.331.422-16.663.843-24.996 1.263-7.017.354-14.041.709-21.065.573-5.936-.116-11.859-.58-17.794-.764-12.477-.385-24.99.48-37.432-.512-3.982-.317-7.952-.823-11.941-1.048a89.546 89.546 0 0 0-13.465.282c-.957.09-2.43.565-3.357.379-.999-.201-.617-.315-.291-1.254.098-.279.18-.564.247-.851.274-1.149.324-2.309.437-3.502.145-1.523.37-3.199 1.641-4.235.999-.816 2.381-.982 3.676-.941 1.968.065 3.902.529 5.683 1.364 1.391.654 2.71 1.543 4.227 1.803 3.947.676 7.377-3.024 11.373-3.32 3.217-.236 6.108 1.744 8.869 3.401.531.317 1.122.637 1.733.547.512-.074.933-.422 1.35-.726 3.939-2.885 9.939-2.535 13.507.79.388.359.774.763 1.286.897 1.012.267 1.921-.604 2.723-1.274 4.349-3.639 11.051-2.545 16.041.169.924.501 1.947 1.072 2.968.809.684-.175 1.211-.695 1.758-1.14 4.25-3.46 10.64-2.816 15.613-.49.481.225.988.468 1.515.409.633-.074 1.118-.558 1.606-.963a8.235 8.235 0 0 1 8.611-1.059c.785.374 1.513.88 2.347 1.134 2.375.72 4.787-.744 7.158-1.486a12.479 12.479 0 0 1 9.35.765 12.331 12.331 0 0 1 6.131 7.048c.218.629.383 1.275.491 1.932z" fill="#F8F8FA"/><path opacity=".1" d="M703.011 551.464c-8.331.401-16.663.802-24.996 1.201-7.017.337-14.041.675-21.065.545-5.936-.11-11.859-.551-17.794-.726-12.477-.367-24.99.456-37.432-.487-3.982-.302-7.952-.783-11.941-.998a94.123 94.123 0 0 0-13.465.269c-.957.085-2.43.537-3.357.36-.999-.192-.617-.3-.291-1.193a7.48 7.48 0 0 0 .247-.81H702.52c.218.599.383 1.214.491 1.839z" fill="#000"/><path d="M569.497 549.625h135.131a4.48 4.48 0 0 1 3.115 1.25 4.198 4.198 0 0 1 1.291 3.018v.55H565.091v-.55c0-1.132.464-2.218 1.291-3.018a4.48 4.48 0 0 1 3.115-1.25z" fill="#D4D5E0"/><path d="M602.966 434.5l-.088-.027a.357.357 0 0 0-.446.239l-.437 1.449a.357.357 0 0 0 .24.445l.088.026c.19.057.39-.05.447-.239l.437-1.449a.356.356 0 0 0-.241-.444zM591.2 466.769l-.088-.027a.36.36 0 0 0-.447.24l-.437 1.449a.358.358 0 0 0 .241.444l.088.027a.36.36 0 0 0 .447-.24l.436-1.449a.356.356 0 0 0-.24-.444zm-12.601 37.365l-.089-.026a.358.358 0 0 0-.446.239l-.437 1.449a.356.356 0 0 0 .24.444l.089.027a.358.358 0 0 0 .446-.239l.437-1.449a.358.358 0 0 0-.24-.445zm31.509 2.482l-.089-.026a.358.358 0 0 0-.446.239l-.437 1.449a.355.355 0 0 0 .24.444l.089.027a.359.359 0 0 0 .446-.239l.437-1.449a.358.358 0 0 0-.24-.445zm18.708-1.398l-.089-.027a.358.358 0 0 0-.446.239l-.437 1.449a.357.357 0 0 0 .24.445l.089.026a.358.358 0 0 0 .446-.239l.437-1.449a.356.356 0 0 0-.24-.444zm26.371 2.834l-.088-.026a.357.357 0 0 0-.446.239l-.437 1.449a.357.357 0 0 0 .24.445l.089.026a.358.358 0 0 0 .446-.239l.437-1.449a.357.357 0 0 0-.241-.445zm18.037-4.142l-.089-.027a.359.359 0 0 0-.446.24l-.437 1.449a.356.356 0 0 0 .24.444l.089.027a.36.36 0 0 0 .446-.24l.437-1.449a.357.357 0 0 0-.24-.444zm-79.215 1.768l-.089-.027a.36.36 0 0 0-.446.24l-.437 1.449a.357.357 0 0 0 .24.444l.089.027a.359.359 0 0 0 .446-.24l.437-1.448a.357.357 0 0 0-.24-.445zm38.24 3.764l-.089-.026a.358.358 0 0 0-.446.239l-.437 1.449a.356.356 0 0 0 .24.444l.089.027a.358.358 0 0 0 .446-.239l.437-1.449a.358.358 0 0 0-.24-.445zm15.779-4.224l-.088-.027a.36.36 0 0 0-.447.239l-.437 1.449a.357.357 0 0 0 .241.445l.088.026c.19.057.39-.05.446-.239l.437-1.449a.355.355 0 0 0-.24-.444zm33.325-1.308l-.088-.027a.36.36 0 0 0-.447.24l-.436 1.449a.356.356 0 0 0 .24.444l.088.027a.36.36 0 0 0 .447-.24l.437-1.449a.358.358 0 0 0-.241-.444zm-38.26-69.498l-.055.074a.356.356 0 0 0 .077.499l1.224.896a.36.36 0 0 0 .501-.076l.055-.074a.356.356 0 0 0-.077-.499l-1.224-.896a.36.36 0 0 0-.501.076zm-9.826-.731l-.055.074a.356.356 0 0 0 .077.499l1.224.896a.36.36 0 0 0 .501-.076l.054-.074a.355.355 0 0 0-.076-.499l-1.224-.897a.36.36 0 0 0-.501.077zm-15.954 0l-.055.074a.357.357 0 0 0 .076.499l1.224.896c.16.117.384.083.501-.076l.055-.074a.356.356 0 0 0-.077-.499l-1.223-.897a.36.36 0 0 0-.501.077zm-21.254 32.361l-.055.074a.356.356 0 0 0 .077.499l1.223.896c.16.117.384.083.501-.076l.055-.074a.357.357 0 0 0-.076-.499l-1.224-.896a.359.359 0 0 0-.501.076zm1.212 3.269l-.055.074a.357.357 0 0 0 .076.5l1.224.896a.36.36 0 0 0 .501-.076l.055-.075a.356.356 0 0 0-.077-.499l-1.223-.896a.359.359 0 0 0-.501.076zm26.227-3.009l-.055.074a.356.356 0 0 0 .077.499l1.224.896a.36.36 0 0 0 .501-.076l.054-.074a.356.356 0 0 0-.076-.499l-1.224-.897a.36.36 0 0 0-.501.077zm-10.403 42.547l-.055.074a.356.356 0 0 0 .077.499l1.223.897a.36.36 0 0 0 .501-.077l.055-.074a.357.357 0 0 0-.076-.499l-1.224-.896a.359.359 0 0 0-.501.076zm38.81-40.862l-.055.074a.356.356 0 0 0 .076.499l1.224.896a.359.359 0 0 0 .501-.076l.055-.074a.356.356 0 0 0-.077-.499l-1.223-.896a.359.359 0 0 0-.501.076zm11.682 1.544l-.054.074a.356.356 0 0 0 .076.499l1.224.896a.359.359 0 0 0 .501-.076l.055-.074a.356.356 0 0 0-.077-.499l-1.224-.896a.36.36 0 0 0-.501.076zm-3.535 34.735l-.054.075a.355.355 0 0 0 .076.499l1.224.896a.36.36 0 0 0 .501-.076l.055-.075a.356.356 0 0 0-.077-.499l-1.224-.896a.36.36 0 0 0-.501.076zm24.078 4.135l-.055.074a.356.356 0 0 0 .076.499l1.224.896a.359.359 0 0 0 .501-.076l.055-.074a.356.356 0 0 0-.077-.499l-1.223-.896a.359.359 0 0 0-.501.076zm-81.662-2.367l-.055.075a.356.356 0 0 0 .077.499l1.224.896a.36.36 0 0 0 .501-.076l.054-.075a.356.356 0 0 0-.076-.499l-1.224-.896a.36.36 0 0 0-.501.076zm-17.531-1.543l-.055.074a.357.357 0 0 0 .076.499l1.224.896a.359.359 0 0 0 .501-.076l.055-.074a.356.356 0 0 0-.077-.499l-1.223-.897a.36.36 0 0 0-.501.077zm34.79 2.701l-.055.075a.356.356 0 0 0 .077.499l1.223.896c.16.117.384.083.501-.076l.055-.075a.357.357 0 0 0-.076-.499l-1.224-.896a.36.36 0 0 0-.501.076zm18.772-1.158l-.055.075a.357.357 0 0 0 .076.499l1.224.896a.359.359 0 0 0 .501-.076l.055-.075a.356.356 0 0 0-.077-.499l-1.223-.896a.36.36 0 0 0-.501.076zm25.481-70.541l-.053-.075a.36.36 0 0 0-.5-.085l-1.239.875a.357.357 0 0 0-.086.498l.054.075a.36.36 0 0 0 .5.085l1.239-.875a.356.356 0 0 0 .085-.498zm-20.704 3.034l-.054-.075a.358.358 0 0 0-.499-.085l-1.24.875a.356.356 0 0 0-.085.497l.054.076a.36.36 0 0 0 .499.084l1.24-.874a.357.357 0 0 0 .085-.498zm-34.241 29.861l-.053-.075a.36.36 0 0 0-.5-.085l-1.239.874a.356.356 0 0 0-.085.498l.053.075a.36.36 0 0 0 .5.085l1.239-.875a.354.354 0 0 0 .085-.497zm10.353 1.014l-.053-.075a.36.36 0 0 0-.5-.085l-1.239.874a.355.355 0 0 0-.085.498l.053.075a.36.36 0 0 0 .5.085l1.239-.875a.354.354 0 0 0 .085-.497zm20.013 0l-.054-.075a.358.358 0 0 0-.499-.085l-1.24.874a.357.357 0 0 0-.085.498l.054.075a.358.358 0 0 0 .499.085l1.24-.875a.356.356 0 0 0 .085-.497zm6.256-2.115l-.053-.075a.36.36 0 0 0-.5-.085l-1.239.875a.357.357 0 0 0-.086.498l.054.075a.36.36 0 0 0 .5.085l1.239-.875a.356.356 0 0 0 .085-.498zm14.808.791l-.053-.076a.36.36 0 0 0-.5-.084l-1.239.874a.355.355 0 0 0-.085.498l.053.075a.36.36 0 0 0 .5.085l1.239-.875a.354.354 0 0 0 .085-.497zm10.805-1.686l-.053-.075a.36.36 0 0 0-.5-.085l-1.239.875a.355.355 0 0 0-.085.497l.053.075a.36.36 0 0 0 .5.085l1.239-.874a.355.355 0 0 0 .085-.498zm14.671.895l-.053-.075a.36.36 0 0 0-.5-.085l-1.239.875a.355.355 0 0 0-.085.498l.053.075a.36.36 0 0 0 .5.085l1.239-.875a.355.355 0 0 0 .085-.498zm-45.593-34.423l-.089-.027a.358.358 0 0 0-.446.239l-.437 1.449a.357.357 0 0 0 .24.445l.089.026a.358.358 0 0 0 .446-.239l.437-1.449a.356.356 0 0 0-.24-.444zm12.133-.537l-.088-.026a.359.359 0 0 0-.447.239l-.436 1.449a.355.355 0 0 0 .24.444l.088.027c.19.057.39-.05.447-.239l.437-1.449a.358.358 0 0 0-.241-.445zm-16.658 4.886l-.088-.026a.359.359 0 0 0-.447.239l-.437 1.449a.357.357 0 0 0 .241.445l.088.026c.19.057.39-.05.446-.239l.437-1.449a.357.357 0 0 0-.24-.445zm-23.733.867l-.089-.026a.358.358 0 0 0-.446.239l-.437 1.449a.356.356 0 0 0 .24.444l.089.027a.358.358 0 0 0 .446-.239l.437-1.449a.357.357 0 0 0-.24-.445zm42.253-1.95l-.089-.026a.358.358 0 0 0-.446.239l-.437 1.449a.357.357 0 0 0 .24.444l.089.027a.36.36 0 0 0 .446-.24l.437-1.448a.358.358 0 0 0-.24-.445zm-44.235-3.266l-.089-.027a.358.358 0 0 0-.446.239l-.437 1.449a.357.357 0 0 0 .24.445l.089.026a.358.358 0 0 0 .446-.239l.437-1.449a.356.356 0 0 0-.24-.444zm12.466 2.183l-.089-.027a.359.359 0 0 0-.446.239l-.437 1.449a.358.358 0 0 0 .24.445l.089.026c.19.057.389-.05.446-.239l.437-1.449a.355.355 0 0 0-.24-.444zm-7.615 31.722l-.088-.027a.36.36 0 0 0-.447.24l-.436 1.449a.356.356 0 0 0 .24.444l.088.027a.36.36 0 0 0 .447-.24l.436-1.449a.356.356 0 0 0-.24-.444zm18.626 0l-.089-.027a.358.358 0 0 0-.446.239l-.437 1.449a.357.357 0 0 0 .24.445l.089.026a.358.358 0 0 0 .446-.239l.437-1.449a.356.356 0 0 0-.24-.444zm43.243.862l-.089-.027a.359.359 0 0 0-.446.239l-.437 1.449a.358.358 0 0 0 .24.445l.089.026c.19.057.389-.05.446-.239l.437-1.449a.355.355 0 0 0-.24-.444zm4.527-.001l-.089-.026a.358.358 0 0 0-.446.239l-.437 1.449a.358.358 0 0 0 .24.445l.089.026a.358.358 0 0 0 .446-.239l.437-1.449a.358.358 0 0 0-.24-.445zm-53.804-29.55l-.088-.026a.359.359 0 0 0-.447.239l-.437 1.449a.356.356 0 0 0 .241.444l.088.027c.19.057.39-.051.446-.239l.437-1.449a.357.357 0 0 0-.24-.445z" fill="#EE4744"/><path opacity=".1" d="M580.833 511.08s-1.66 2.446-1.21 2.408c.449-.037 1.729-1.43 1.729-1.43l-.519-.978zm.519 2.409s-1.877 1.877-1.804 2.355c.072.477 1.804-2.355 1.804-2.355zm.603.602s-1.777 2.45-1.015 2.96c.761.51 1.015-2.96 1.015-2.96zm-1.806-5.421s-1.125 1.645-.303 1.757c.822.113.904 0 .904 0l-.601-1.757zm-.001-5.42a13.64 13.64 0 0 1-.867 2.409c-.136-.396-.249-.8-.338-1.208a8.603 8.603 0 0 1 1.205-1.201zm26.5 10.841s-3.462 1.705-4.133 1.795c-.671.09 2.932-.366 2.932-.366l1.201-1.429zm3.011 1.204s-4.605 1.27-6.625 1.039c0 0 5.031.779 6.625-1.039zm-13.357-24.766a9.323 9.323 0 0 0-.156-.482c.047.162.1.323.156.482z" fill="#000"/><path d="M649.934 505.057l-.525-.645c1.034-.855 1.082-6.143.566-9.01-.359-1.99-.414-3.696-.167-5.215.392-2.42 1.542-4.212 3.418-5.326 3.891-2.311 6.224-8.65 6.247-8.713l.777.286c-.098.271-2.456 6.682-6.605 9.146-2.757 1.637-3.718 4.892-2.857 9.673.407 2.253.749 8.477-.854 9.804z" fill="#D4D5E0"/><path d="M671.807 473.19c2.614-6.203.369-12.95-5.016-15.071-5.385-2.121-11.869 1.188-14.484 7.39-2.539 6.022-.495 12.558 4.554 14.874a3.62 3.62 0 0 1-1.473 1.421c-1.093.493 2.46.969 2.46.969a5.86 5.86 0 0 1 .336-1.903c5.197 1.472 11.146-1.805 13.623-7.68z" fill="#EE4744"/><path opacity=".2" d="M653.541 471.493c.117-2.709 1.748-4.86 3.698-4.956a3.12 3.12 0 0 0-.256-.023c-2.061-.09-3.831 2.13-3.954 4.957-.118 2.745 1.36 5.054 3.333 5.268-.035.205-2.939-2.505-2.821-5.246z" fill="#fff"/><path d="M681.854 547.216l-.524-.645c1.033-.855 1.082-6.143.565-9.01-.359-1.989-.413-3.695-.167-5.215.392-2.42 1.542-4.212 3.418-5.326 3.891-2.311 6.224-8.649 6.247-8.713l.777.286c-.098.272-2.456 6.682-6.604 9.146-2.758 1.637-3.719 4.892-2.857 9.673.406 2.253.748 8.477-.855 9.804z" fill="#D4D5E0"/><path d="M703.155 515.349c2.542-6.203.359-12.95-4.876-15.071-5.235-2.121-11.54 1.188-14.082 7.39-2.468 6.022-.481 12.558 4.428 14.874a3.567 3.567 0 0 1-1.432 1.421c-1.064.493 2.392.969 2.392.969.005-.648.115-1.29.326-1.903 5.053 1.472 10.836-1.805 13.244-7.68z" fill="#EE4744"/><path opacity=".2" d="M685.462 513.652c.117-2.709 1.747-4.86 3.697-4.956a3.057 3.057 0 0 0-.255-.023c-2.062-.09-3.832 2.13-3.954 4.957-.119 2.745 1.36 5.054 3.333 5.268-.035.205-2.94-2.505-2.821-5.246z" fill="#fff"/><path d="M633.07 465.909l-.525-.645c1.034-.855 1.083-6.143.566-9.01-.359-1.989-.413-3.695-.167-5.215.392-2.42 1.542-4.212 3.418-5.326 3.891-2.311 6.224-8.649 6.247-8.713l.777.286c-.098.272-2.456 6.682-6.604 9.146-2.758 1.637-3.719 4.892-2.857 9.673.406 2.253.748 8.477-.855 9.804z" fill="#D4D5E0"/><path d="M654.973 434.042c2.542-6.202.359-12.95-4.876-15.071-5.235-2.121-11.54 1.188-14.082 7.391-2.468 6.022-.481 12.557 4.428 14.873a3.567 3.567 0 0 1-1.432 1.421c-1.063.494 2.392.969 2.392.969.005-.648.115-1.29.326-1.903 5.053 1.473 10.836-1.805 13.244-7.68z" fill="#EE4744"/><path opacity=".2" d="M636.677 431.743c.118-2.709 1.748-4.86 3.698-4.956a3.057 3.057 0 0 0-.255-.023c-2.062-.09-3.832 2.13-3.954 4.957-.119 2.745 1.36 5.054 3.333 5.268-.035.205-2.94-2.505-2.822-5.246z" fill="#fff"/></svg>