<svg width="37" height="36" viewBox="0 0 37 36" fill="none" xmlns="http://www.w3.org/2000/svg"><path opacity=".5" d="M25.778 1.03C25.015.265 23.901-.04 22.64.173c-1.178.2-2.356.837-3.316 1.796-.279.28-.513.601-.694.952a3.886 3.886 0 0 0-.688-.986C16.994.958 15.83.3 14.655.08c-1.254-.237-2.373.05-3.15.804-.777.753-1.098 1.862-.903 3.121.182 1.185.8 2.369 1.748 3.345 1.989 2.052 5.957 1.25 6.125 1.215l.05-.01.152.035c.168.038 4.121.907 6.144-1.11.962-.958 1.603-2.135 1.807-3.312.216-1.257-.086-2.372-.85-3.138zm-7.975 6.352c-.959.129-3.349.304-4.536-.92-.762-.787-1.262-1.729-1.404-2.65-.13-.84.06-1.556.53-2.013.184-.177.405-.313.646-.396.396-.14.867-.167 1.381-.07.917.17 1.842.7 2.606 1.486 1.186 1.227.935 3.61.777 4.563zm7.566-3.43c-.158.918-.673 1.85-1.45 2.624-1.207 1.204-3.594.987-4.55.842-.142-.957-.351-3.344.856-4.548.776-.774 1.71-1.286 2.63-1.441.516-.087.986-.054 1.38.093.24.088.458.227.64.408.463.467.639 1.185.494 2.022z" fill="url(#a)"/><path d="M18.858 8.308l-.377.08c-.16.034-3.958.8-5.863-1.162-.905-.933-1.498-2.07-1.673-3.198-.187-1.207.118-2.268.863-2.989.745-.72 1.815-.994 3.015-.77 1.125.21 2.24.84 3.145 1.773 1.902 1.963 1.017 5.734.978 5.893l-.088.373zM13.28 1.535a1.71 1.71 0 0 0-.62.379c-.45.437-.63 1.12-.506 1.925.136.882.614 1.783 1.344 2.536 1.135 1.171 3.422 1.007 4.339.88.152-.913.391-3.194-.744-4.365-.73-.753-1.615-1.258-2.492-1.421-.492-.094-.942-.068-1.321.066z" fill="#EE4744"/><path d="M18.298 8.325l-.085-.377c-.037-.16-.856-3.946 1.08-5.875.92-.918 2.048-1.528 3.175-1.717 1.204-.204 2.27.088 3 .821.732.733 1.02 1.8.813 3.003-.195 1.125-.809 2.25-1.729 3.17-1.934 1.926-5.717 1.097-5.878 1.06l-.376-.085zm5.695-6.677c-.377-.14-.829-.173-1.32-.09-.88.149-1.776.639-2.516 1.38-1.156 1.151-.956 3.434-.82 4.351.915.14 3.198.347 4.355-.805.743-.74 1.235-1.633 1.387-2.512.139-.802-.03-1.49-.474-1.934a1.697 1.697 0 0 0-.613-.39h.001z" fill="#EE4744"/><path opacity=".5" d="M36.812 7.316H0v7.366h1.913V36h32.986V14.682h1.913V7.316z" fill="url(#b)"/><path d="M34.482 9.543H2.33v26.095h32.152V9.543z" fill="#19CCD7"/><path d="M21.435 14.203h-6.058v21.435h6.058V14.203z" fill="#EE4744"/><path opacity=".1" d="M34.482 8.145H2.33v6.524h32.152V8.145z" fill="#000"/><path d="M36.346 7.679H.465v6.524h35.88V7.679z" fill="#19CCD7"/><path d="M21.435 7.679h-6.058v6.524h6.058V7.679z" fill="#EE4744"/><defs><linearGradient id="a" x1="18.621" y1="8.809" x2="18.621" gradientUnits="userSpaceOnUse"><stop stop-color="gray" stop-opacity=".25"/><stop offset=".54" stop-color="gray" stop-opacity=".12"/><stop offset="1" stop-color="gray" stop-opacity=".1"/></linearGradient><linearGradient id="b" x1="15462.5" y1="23086.8" x2="15462.5" y2="9192.26" gradientUnits="userSpaceOnUse"><stop stop-color="gray" stop-opacity=".25"/><stop offset=".54" stop-color="gray" stop-opacity=".12"/><stop offset="1" stop-color="gray" stop-opacity=".1"/></linearGradient></defs></svg>